<?xml version="1.0" encoding="UTF-8"?>
<svg xmlns="http://www.w3.org/2000/svg" xmlns:xlink="http://www.w3.org/1999/xlink" viewBox="0 0 1609.59 1076.65">
  <defs>
    <clipPath id="clippath">
      <polygon points="120.15 150.91 1445.59 2.2 1607.25 1074.54 2.28 998.69 120.15 150.91" style="fill: none; stroke-width: 0px;"/>
    </clipPath>
  </defs>
  <g style="isolation: isolate;">
    <g id="Layer_2" data-name="Layer 2">
      <g id="Elementos_Mutaveis" data-name="Elementos Mutaveis">
        <polygon points="120.15 150.91 1445.59 2.2 1607.25 1074.54 2.28 998.69 120.15 150.91" style="fill: #b7dfe7; stroke: #000; stroke-miterlimit: 10; stroke-width: 4px;"/>
        <g style="clip-path: url(#clippath);">
          <g style="mix-blend-mode: multiply; opacity: .35;">
            <path d="m219.64,254.52c.06,0,.11-.05.11-.11s-.05-.11-.11-.11-.11.05-.11.11.05.11.11.11Z" style="fill: #71939c; stroke-width: 0px;"/>
            <path d="m260.8,254.52c.06,0,.11-.05.11-.11s-.05-.11-.11-.11-.11.05-.11.11.05.11.11.11Z" style="fill: #71939c; stroke-width: 0px;"/>
            <path d="m301.95,254.52c.06,0,.11-.05.11-.11s-.05-.11-.11-.11-.11.05-.11.11.05.11.11.11Z" style="fill: #71939c; stroke-width: 0px;"/>
            <circle cx="55.04" cy="295.56" r=".23" style="fill: #71939c; stroke-width: 0px;"/>
            <path d="m96.19,296.02c.25,0,.46-.2.46-.46s-.2-.46-.46-.46-.46.2-.46.46.2.46.46.46Z" style="fill: #71939c; stroke-width: 0px;"/>
            <path d="m137.34,296.25c.38,0,.68-.31.68-.69s-.31-.68-.68-.68-.69.31-.69.68.31.69.69.69Z" style="fill: #71939c; stroke-width: 0px;"/>
            <path d="m178.49,296.47c.5,0,.91-.41.91-.91s-.41-.91-.91-.91-.91.41-.91.91.41.91.91.91Z" style="fill: #71939c; stroke-width: 0px;"/>
            <circle cx="219.64" cy="295.56" r="1.03" style="fill: #71939c; stroke-width: 0px;"/>
            <circle cx="260.8" cy="295.56" r="1.03" style="fill: #71939c; stroke-width: 0px;"/>
            <circle cx="301.95" cy="295.56" r="1.03" style="fill: #71939c; stroke-width: 0px;"/>
            <circle cx="343.1" cy="295.56" r=".91" style="fill: #71939c; stroke-width: 0px;"/>
            <path d="m384.25,296.25c.38,0,.68-.31.68-.69s-.31-.68-.68-.68-.68.31-.68.68.31.69.68.69Z" style="fill: #71939c; stroke-width: 0px;"/>
            <circle cx="425.4" cy="295.56" r=".46" style="fill: #71939c; stroke-width: 0px;"/>
            <circle cx="466.55" cy="295.56" r=".23" style="fill: #71939c; stroke-width: 0px;"/>
            <circle cx="13.89" cy="336.71" r=".8" style="fill: #71939c; stroke-width: 0px;"/>
            <path d="m55.04,337.97c.69,0,1.25-.56,1.25-1.25s-.56-1.25-1.25-1.25-1.26.56-1.26,1.25.56,1.25,1.26,1.25Z" style="fill: #71939c; stroke-width: 0px;"/>
            <circle cx="96.19" cy="336.71" r="1.6" style="fill: #71939c; stroke-width: 0px;"/>
            <path d="m137.34,338.54c1.01,0,1.83-.82,1.83-1.83s-.82-1.83-1.83-1.83-1.83.82-1.83,1.83.82,1.83,1.83,1.83Z" style="fill: #71939c; stroke-width: 0px;"/>
            <path d="m178.49,338.77c1.13,0,2.05-.92,2.05-2.05s-.92-2.05-2.05-2.05-2.05.92-2.05,2.05.92,2.05,2.05,2.05Z" style="fill: #71939c; stroke-width: 0px;"/>
            <circle cx="219.64" cy="336.71" r="2.17" style="fill: #71939c; stroke-width: 0px;"/>
            <path d="m260.8,338.99c1.26,0,2.28-1.02,2.28-2.28s-1.02-2.28-2.28-2.28-2.28,1.02-2.28,2.28,1.02,2.28,2.28,2.28Z" style="fill: #71939c; stroke-width: 0px;"/>
            <circle cx="301.95" cy="336.71" r="2.17" style="fill: #71939c; stroke-width: 0px;"/>
            <path d="m343.1,338.77c1.13,0,2.05-.92,2.05-2.05s-.92-2.05-2.05-2.05-2.05.92-2.05,2.05.92,2.05,2.05,2.05Z" style="fill: #71939c; stroke-width: 0px;"/>
            <circle cx="384.25" cy="336.71" r="1.94" style="fill: #71939c; stroke-width: 0px;"/>
            <circle cx="425.4" cy="336.71" r="1.6" style="fill: #71939c; stroke-width: 0px;"/>
            <circle cx="466.55" cy="336.71" r="1.25" style="fill: #71939c; stroke-width: 0px;"/>
            <circle cx="507.7" cy="336.71" r=".8" style="fill: #71939c; stroke-width: 0px;"/>
            <circle cx="548.85" cy="336.71" r=".34" style="fill: #71939c; stroke-width: 0px;"/>
            <path d="m13.89,379.69c1.01,0,1.83-.82,1.83-1.83s-.82-1.83-1.83-1.83-1.83.82-1.83,1.83.82,1.83,1.83,1.83Z" style="fill: #71939c; stroke-width: 0px;"/>
            <path d="m55.04,380.14c1.26,0,2.28-1.02,2.28-2.28s-1.02-2.28-2.28-2.28-2.28,1.02-2.28,2.28,1.02,2.28,2.28,2.28Z" style="fill: #71939c; stroke-width: 0px;"/>
            <circle cx="96.19" cy="377.86" r="2.74" style="fill: #71939c; stroke-width: 0px;"/>
            <path d="m137.34,380.94c1.7,0,3.08-1.38,3.08-3.08s-1.38-3.08-3.08-3.08-3.08,1.38-3.08,3.08,1.38,3.08,3.08,3.08Z" style="fill: #71939c; stroke-width: 0px;"/>
            <circle cx="178.49" cy="377.86" r="3.31" style="fill: #71939c; stroke-width: 0px;"/>
            <path d="m219.64,381.29c1.89,0,3.42-1.53,3.42-3.42s-1.53-3.42-3.42-3.42-3.42,1.53-3.42,3.42,1.53,3.42,3.42,3.42Z" style="fill: #71939c; stroke-width: 0px;"/>
            <path d="m260.8,381.29c1.89,0,3.42-1.53,3.42-3.42s-1.53-3.42-3.42-3.42-3.42,1.53-3.42,3.42,1.53,3.42,3.42,3.42Z" style="fill: #71939c; stroke-width: 0px;"/>
            <path d="m301.95,381.29c1.89,0,3.42-1.53,3.42-3.42s-1.53-3.42-3.42-3.42-3.42,1.53-3.42,3.42,1.53,3.42,3.42,3.42Z" style="fill: #71939c; stroke-width: 0px;"/>
            <circle cx="343.1" cy="377.86" r="3.31" style="fill: #71939c; stroke-width: 0px;"/>
            <circle cx="384.25" cy="377.86" r="3.08" style="fill: #71939c; stroke-width: 0px;"/>
            <circle cx="425.4" cy="377.86" r="2.74" style="fill: #71939c; stroke-width: 0px;"/>
            <circle cx="466.55" cy="377.86" r="2.4" style="fill: #71939c; stroke-width: 0px;"/>
            <circle cx="507.7" cy="377.86" r="1.94" style="fill: #71939c; stroke-width: 0px;"/>
            <circle cx="548.85" cy="377.86" r="1.37" style="fill: #71939c; stroke-width: 0px;"/>
            <circle cx="590" cy="377.86" r=".8" style="fill: #71939c; stroke-width: 0px;"/>
            <circle cx="631.15" cy="377.86" r=".23" style="fill: #71939c; stroke-width: 0px;"/>
            <circle cx="13.89" cy="419.01" r="2.97" style="fill: #71939c; stroke-width: 0px;"/>
            <path d="m55.04,422.44c1.89,0,3.42-1.53,3.42-3.42s-1.53-3.42-3.42-3.42-3.42,1.53-3.42,3.42,1.53,3.42,3.42,3.42Z" style="fill: #71939c; stroke-width: 0px;"/>
            <path d="m96.19,422.89c2.14,0,3.88-1.74,3.88-3.88s-1.74-3.88-3.88-3.88-3.88,1.74-3.88,3.88,1.74,3.88,3.88,3.88Z" style="fill: #71939c; stroke-width: 0px;"/>
            <path d="m137.34,423.24c2.33,0,4.22-1.89,4.22-4.22s-1.89-4.22-4.22-4.22-4.22,1.89-4.22,4.22,1.89,4.22,4.22,4.22Z" style="fill: #71939c; stroke-width: 0px;"/>
            <path d="m178.49,423.46c2.46,0,4.45-1.99,4.45-4.45s-1.99-4.45-4.45-4.45-4.45,1.99-4.45,4.45,1.99,4.45,4.45,4.45Z" style="fill: #71939c; stroke-width: 0px;"/>
            <circle cx="219.64" cy="419.01" r="4.56" style="fill: #71939c; stroke-width: 0px;"/>
            <circle cx="260.8" cy="419.01" r="4.68" style="fill: #71939c; stroke-width: 0px;"/>
            <circle cx="301.95" cy="419.01" r="4.68" style="fill: #71939c; stroke-width: 0px;"/>
            <path d="m343.1,423.46c2.46,0,4.45-1.99,4.45-4.45s-1.99-4.45-4.45-4.45-4.45,1.99-4.45,4.45,1.99,4.45,4.45,4.45Z" style="fill: #71939c; stroke-width: 0px;"/>
            <path d="m384.25,423.24c2.33,0,4.22-1.89,4.22-4.22s-1.89-4.22-4.22-4.22-4.22,1.89-4.22,4.22,1.89,4.22,4.22,4.22Z" style="fill: #71939c; stroke-width: 0px;"/>
            <circle cx="425.4" cy="419.01" r="3.88" style="fill: #71939c; stroke-width: 0px;"/>
            <circle cx="466.55" cy="419.01" r="3.54" style="fill: #71939c; stroke-width: 0px;"/>
            <circle cx="507.7" cy="419.01" r="2.97" style="fill: #71939c; stroke-width: 0px;"/>
            <circle cx="548.85" cy="419.01" r="2.4" style="fill: #71939c; stroke-width: 0px;"/>
            <circle cx="590" cy="419.01" r="1.83" style="fill: #71939c; stroke-width: 0px;"/>
            <circle cx="631.15" cy="419.01" r="1.14" style="fill: #71939c; stroke-width: 0px;"/>
            <path d="m672.3,419.36c.19,0,.34-.15.34-.34s-.15-.34-.34-.34-.34.15-.34.34.15.34.34.34Z" style="fill: #71939c; stroke-width: 0px;"/>
            <path d="m13.89,464.16c2.2,0,3.99-1.79,3.99-3.99s-1.79-3.99-3.99-3.99-3.99,1.79-3.99,3.99,1.79,3.99,3.99,3.99Z" style="fill: #71939c; stroke-width: 0px;"/>
            <path d="m55.04,464.73c2.52,0,4.56-2.04,4.56-4.56s-2.04-4.56-4.56-4.56-4.57,2.04-4.57,4.56,2.04,4.56,4.57,4.56Z" style="fill: #71939c; stroke-width: 0px;"/>
            <path d="m96.19,465.18c2.77,0,5.02-2.25,5.02-5.02s-2.25-5.02-5.02-5.02-5.02,2.25-5.02,5.02,2.25,5.02,5.02,5.02Z" style="fill: #71939c; stroke-width: 0px;"/>
            <circle cx="137.34" cy="460.16" r="5.36" style="fill: #71939c; stroke-width: 0px;"/>
            <path d="m178.49,465.76c3.09,0,5.59-2.5,5.59-5.59s-2.5-5.59-5.59-5.59-5.59,2.5-5.59,5.59,2.5,5.59,5.59,5.59Z" style="fill: #71939c; stroke-width: 0px;"/>
            <path d="m219.64,465.98c3.21,0,5.82-2.61,5.82-5.82s-2.6-5.82-5.82-5.82-5.82,2.6-5.82,5.82,2.61,5.82,5.82,5.82Z" style="fill: #71939c; stroke-width: 0px;"/>
            <path d="m260.8,465.98c3.21,0,5.82-2.61,5.82-5.82s-2.6-5.82-5.82-5.82-5.82,2.6-5.82,5.82,2.61,5.82,5.82,5.82Z" style="fill: #71939c; stroke-width: 0px;"/>
            <path d="m301.95,465.98c3.21,0,5.82-2.61,5.82-5.82s-2.6-5.82-5.82-5.82-5.82,2.6-5.82,5.82,2.61,5.82,5.82,5.82Z" style="fill: #71939c; stroke-width: 0px;"/>
            <circle cx="343.1" cy="460.16" r="5.71" style="fill: #71939c; stroke-width: 0px;"/>
            <circle cx="384.25" cy="460.16" r="5.36" style="fill: #71939c; stroke-width: 0px;"/>
            <path d="m425.4,465.18c2.77,0,5.02-2.25,5.02-5.02s-2.25-5.02-5.02-5.02-5.02,2.25-5.02,5.02,2.25,5.02,5.02,5.02Z" style="fill: #71939c; stroke-width: 0px;"/>
            <circle cx="466.55" cy="460.16" r="4.56" style="fill: #71939c; stroke-width: 0px;"/>
            <circle cx="507.7" cy="460.16" r="4.11" style="fill: #71939c; stroke-width: 0px;"/>
            <path d="m548.85,463.59c1.89,0,3.42-1.53,3.42-3.42s-1.53-3.42-3.42-3.42-3.42,1.53-3.42,3.42,1.53,3.42,3.42,3.42Z" style="fill: #71939c; stroke-width: 0px;"/>
            <circle cx="590" cy="460.16" r="2.74" style="fill: #71939c; stroke-width: 0px;"/>
            <path d="m631.15,462.22c1.13,0,2.05-.92,2.05-2.05s-.92-2.05-2.05-2.05-2.05.92-2.05,2.05.92,2.05,2.05,2.05Z" style="fill: #71939c; stroke-width: 0px;"/>
            <path d="m672.3,461.42c.69,0,1.26-.56,1.26-1.26s-.56-1.25-1.26-1.25-1.25.56-1.25,1.25.56,1.26,1.25,1.26Z" style="fill: #71939c; stroke-width: 0px;"/>
            <path d="m713.45,460.62c.25,0,.46-.2.46-.46s-.2-.46-.46-.46-.46.2-.46.46.2.46.46.46Z" style="fill: #71939c; stroke-width: 0px;"/>
            <path d="m13.89,506.34c2.77,0,5.02-2.25,5.02-5.02s-2.25-5.02-5.02-5.02-5.02,2.25-5.02,5.02,2.25,5.02,5.02,5.02Z" style="fill: #71939c; stroke-width: 0px;"/>
            <path d="m55.04,506.91c3.09,0,5.59-2.5,5.59-5.59s-2.5-5.59-5.59-5.59-5.59,2.5-5.59,5.59,2.5,5.59,5.59,5.59Z" style="fill: #71939c; stroke-width: 0px;"/>
            <path d="m96.19,507.48c3.4,0,6.16-2.76,6.16-6.16s-2.76-6.16-6.16-6.16-6.16,2.76-6.16,6.16,2.76,6.16,6.16,6.16Z" style="fill: #71939c; stroke-width: 0px;"/>
            <circle cx="137.34" cy="501.31" r="6.5" style="fill: #71939c; stroke-width: 0px;"/>
            <circle cx="178.49" cy="501.31" r="6.85" style="fill: #71939c; stroke-width: 0px;"/>
            <circle cx="219.64" cy="501.31" r="7.07" style="fill: #71939c; stroke-width: 0px;"/>
            <circle cx="260.8" cy="501.31" r="7.07" style="fill: #71939c; stroke-width: 0px;"/>
            <circle cx="301.95" cy="501.31" r="7.07" style="fill: #71939c; stroke-width: 0px;"/>
            <circle cx="343.1" cy="501.31" r="6.85" style="fill: #71939c; stroke-width: 0px;"/>
            <path d="m384.25,507.93c3.65,0,6.62-2.96,6.62-6.62s-2.96-6.62-6.62-6.62-6.62,2.96-6.62,6.62,2.96,6.62,6.62,6.62Z" style="fill: #71939c; stroke-width: 0px;"/>
            <path d="m425.4,507.48c3.4,0,6.16-2.76,6.16-6.16s-2.76-6.16-6.16-6.16-6.16,2.76-6.16,6.16,2.76,6.16,6.16,6.16Z" style="fill: #71939c; stroke-width: 0px;"/>
            <circle cx="466.55" cy="501.31" r="5.71" style="fill: #71939c; stroke-width: 0px;"/>
            <circle cx="507.7" cy="501.31" r="5.13" style="fill: #71939c; stroke-width: 0px;"/>
            <path d="m548.85,505.76c2.46,0,4.45-1.99,4.45-4.45s-1.99-4.45-4.45-4.45-4.45,1.99-4.45,4.45,1.99,4.45,4.45,4.45Z" style="fill: #71939c; stroke-width: 0px;"/>
            <circle cx="590" cy="501.31" r="3.77" style="fill: #71939c; stroke-width: 0px;"/>
            <circle cx="631.15" cy="501.31" r="2.97" style="fill: #71939c; stroke-width: 0px;"/>
            <circle cx="672.3" cy="501.31" r="2.17" style="fill: #71939c; stroke-width: 0px;"/>
            <path d="m713.45,502.57c.69,0,1.26-.56,1.26-1.26s-.56-1.25-1.26-1.25-1.25.56-1.25,1.25.56,1.26,1.25,1.26Z" style="fill: #71939c; stroke-width: 0px;"/>
            <path d="m754.6,501.77c.25,0,.46-.2.46-.46s-.2-.46-.46-.46-.46.2-.46.46.2.46.46.46Z" style="fill: #71939c; stroke-width: 0px;"/>
            <path d="m13.89,548.51c3.34,0,6.05-2.71,6.05-6.05s-2.71-6.05-6.05-6.05-6.05,2.71-6.05,6.05,2.71,6.05,6.05,6.05Z" style="fill: #71939c; stroke-width: 0px;"/>
            <path d="m55.04,549.2c3.72,0,6.73-3.01,6.73-6.73s-3.01-6.73-6.73-6.73-6.73,3.01-6.73,6.73,3.01,6.73,6.73,6.73Z" style="fill: #71939c; stroke-width: 0px;"/>
            <path d="m96.19,549.65c3.97,0,7.19-3.22,7.19-7.19s-3.22-7.19-7.19-7.19-7.19,3.22-7.19,7.19,3.22,7.19,7.19,7.19Z" style="fill: #71939c; stroke-width: 0px;"/>
            <circle cx="137.34" cy="542.46" r="7.65" style="fill: #71939c; stroke-width: 0px;"/>
            <path d="m178.49,550.45c4.41,0,7.99-3.58,7.99-7.99s-3.58-7.99-7.99-7.99-7.99,3.58-7.99,7.99,3.58,7.99,7.99,7.99Z" style="fill: #71939c; stroke-width: 0px;"/>
            <path d="m219.64,550.68c4.54,0,8.22-3.68,8.22-8.22s-3.68-8.22-8.22-8.22-8.22,3.68-8.22,8.22,3.68,8.22,8.22,8.22Z" style="fill: #71939c; stroke-width: 0px;"/>
            <path d="m260.8,550.68c4.54,0,8.22-3.68,8.22-8.22s-3.68-8.22-8.22-8.22-8.22,3.68-8.22,8.22,3.68,8.22,8.22,8.22Z" style="fill: #71939c; stroke-width: 0px;"/>
            <path d="m301.95,550.68c4.54,0,8.22-3.68,8.22-8.22s-3.68-8.22-8.22-8.22-8.22,3.68-8.22,8.22,3.68,8.22,8.22,8.22Z" style="fill: #71939c; stroke-width: 0px;"/>
            <path d="m343.1,550.45c4.41,0,7.99-3.58,7.99-7.99s-3.58-7.99-7.99-7.99-7.99,3.58-7.99,7.99,3.58,7.99,7.99,7.99Z" style="fill: #71939c; stroke-width: 0px;"/>
            <path d="m384.25,550.22c4.29,0,7.76-3.47,7.76-7.76s-3.47-7.76-7.76-7.76-7.76,3.47-7.76,7.76,3.47,7.76,7.76,7.76Z" style="fill: #71939c; stroke-width: 0px;"/>
            <circle cx="425.4" cy="542.46" r="7.3" style="fill: #71939c; stroke-width: 0px;"/>
            <circle cx="466.55" cy="542.46" r="6.73" style="fill: #71939c; stroke-width: 0px;"/>
            <path d="m507.7,548.63c3.4,0,6.16-2.76,6.16-6.16s-2.76-6.16-6.16-6.16-6.16,2.76-6.16,6.16,2.76,6.16,6.16,6.16Z" style="fill: #71939c; stroke-width: 0px;"/>
            <path d="m548.85,547.83c2.96,0,5.36-2.4,5.36-5.36s-2.4-5.36-5.36-5.36-5.36,2.4-5.36,5.36,2.4,5.36,5.36,5.36Z" style="fill: #71939c; stroke-width: 0px;"/>
            <path d="m590,547.14c2.58,0,4.68-2.09,4.68-4.68s-2.09-4.68-4.68-4.68-4.68,2.09-4.68,4.68,2.1,4.68,4.68,4.68Z" style="fill: #71939c; stroke-width: 0px;"/>
            <path d="m631.15,546.34c2.14,0,3.88-1.74,3.88-3.88s-1.74-3.88-3.88-3.88-3.88,1.74-3.88,3.88,1.74,3.88,3.88,3.88Z" style="fill: #71939c; stroke-width: 0px;"/>
            <circle cx="672.3" cy="542.46" r="2.97" style="fill: #71939c; stroke-width: 0px;"/>
            <path d="m713.45,544.52c1.13,0,2.05-.92,2.05-2.05s-.92-2.05-2.05-2.05-2.05.92-2.05,2.05.92,2.05,2.05,2.05Z" style="fill: #71939c; stroke-width: 0px;"/>
            <path d="m754.6,543.61c.63,0,1.14-.51,1.14-1.14s-.51-1.14-1.14-1.14-1.14.51-1.14,1.14.51,1.14,1.14,1.14Z" style="fill: #71939c; stroke-width: 0px;"/>
            <path d="m795.75,542.69c.13,0,.23-.1.23-.23s-.1-.23-.23-.23-.23.1-.23.23.1.23.23.23Z" style="fill: #71939c; stroke-width: 0px;"/>
            <circle cx="13.89" cy="583.62" r="7.07" style="fill: #71939c; stroke-width: 0px;"/>
            <path d="m55.04,591.38c4.28,0,7.76-3.47,7.76-7.76s-3.47-7.76-7.76-7.76-7.76,3.47-7.76,7.76,3.47,7.76,7.76,7.76Z" style="fill: #71939c; stroke-width: 0px;"/>
            <path d="m96.19,591.95c4.6,0,8.33-3.73,8.33-8.33s-3.73-8.33-8.33-8.33-8.33,3.73-8.33,8.33,3.73,8.33,8.33,8.33Z" style="fill: #71939c; stroke-width: 0px;"/>
            <path d="m137.34,592.4c4.85,0,8.79-3.93,8.79-8.79s-3.93-8.79-8.79-8.79-8.79,3.93-8.79,8.79,3.93,8.79,8.79,8.79Z" style="fill: #71939c; stroke-width: 0px;"/>
            <path d="m178.49,592.74c5.04,0,9.13-4.09,9.13-9.13s-4.09-9.13-9.13-9.13-9.13,4.09-9.13,9.13,4.09,9.13,9.13,9.13Z" style="fill: #71939c; stroke-width: 0px;"/>
            <path d="m219.64,592.97c5.17,0,9.36-4.19,9.36-9.36s-4.19-9.36-9.36-9.36-9.36,4.19-9.36,9.36,4.19,9.36,9.36,9.36Z" style="fill: #71939c; stroke-width: 0px;"/>
            <circle cx="260.8" cy="583.62" r="9.47" style="fill: #71939c; stroke-width: 0px;"/>
            <path d="m301.95,592.97c5.17,0,9.36-4.19,9.36-9.36s-4.19-9.36-9.36-9.36-9.36,4.19-9.36,9.36,4.19,9.36,9.36,9.36Z" style="fill: #71939c; stroke-width: 0px;"/>
            <circle cx="343.1" cy="583.62" r="9.24" style="fill: #71939c; stroke-width: 0px;"/>
            <path d="m384.25,592.4c4.85,0,8.79-3.93,8.79-8.79s-3.93-8.79-8.79-8.79-8.79,3.93-8.79,8.79,3.93,8.79,8.79,8.79Z" style="fill: #71939c; stroke-width: 0px;"/>
            <path d="m425.4,591.95c4.6,0,8.33-3.73,8.33-8.33s-3.73-8.33-8.33-8.33-8.33,3.73-8.33,8.33,3.73,8.33,8.33,8.33Z" style="fill: #71939c; stroke-width: 0px;"/>
            <path d="m466.55,591.38c4.29,0,7.76-3.47,7.76-7.76s-3.47-7.76-7.76-7.76-7.76,3.47-7.76,7.76,3.47,7.76,7.76,7.76Z" style="fill: #71939c; stroke-width: 0px;"/>
            <circle cx="507.7" cy="583.62" r="7.07" style="fill: #71939c; stroke-width: 0px;"/>
            <path d="m548.85,590.01c3.53,0,6.39-2.86,6.39-6.39s-2.86-6.39-6.39-6.39-6.39,2.86-6.39,6.39,2.86,6.39,6.39,6.39Z" style="fill: #71939c; stroke-width: 0px;"/>
            <path d="m590,589.21c3.09,0,5.59-2.5,5.59-5.59s-2.5-5.59-5.59-5.59-5.59,2.5-5.59,5.59,2.5,5.59,5.59,5.59Z" style="fill: #71939c; stroke-width: 0px;"/>
            <path d="m631.15,588.29c2.58,0,4.68-2.09,4.68-4.68s-2.09-4.68-4.68-4.68-4.68,2.09-4.68,4.68,2.1,4.68,4.68,4.68Z" style="fill: #71939c; stroke-width: 0px;"/>
            <circle cx="672.3" cy="583.62" r="3.77" style="fill: #71939c; stroke-width: 0px;"/>
            <circle cx="713.45" cy="583.62" r="2.74" style="fill: #71939c; stroke-width: 0px;"/>
            <path d="m754.6,585.44c1.01,0,1.83-.82,1.83-1.83s-.82-1.83-1.83-1.83-1.83.82-1.83,1.83.82,1.83,1.83,1.83Z" style="fill: #71939c; stroke-width: 0px;"/>
            <circle cx="795.75" cy="583.62" r=".8" style="fill: #71939c; stroke-width: 0px;"/>
            <path d="m836.91,583.73c.06,0,.11-.05.11-.11s-.05-.11-.11-.11-.11.05-.11.11.05.11.11.11Z" style="fill: #71939c; stroke-width: 0px;"/>
            <path d="m13.89,632.75c4.41,0,7.99-3.58,7.99-7.99s-3.58-7.99-7.99-7.99-7.99,3.58-7.99,7.99,3.58,7.99,7.99,7.99Z" style="fill: #71939c; stroke-width: 0px;"/>
            <circle cx="55.04" cy="624.77" r="8.67" style="fill: #71939c; stroke-width: 0px;"/>
            <path d="m96.19,634.12c5.17,0,9.36-4.19,9.36-9.36s-4.19-9.36-9.36-9.36-9.36,4.19-9.36,9.36,4.19,9.36,9.36,9.36Z" style="fill: #71939c; stroke-width: 0px;"/>
            <path d="m137.34,634.69c5.48,0,9.93-4.44,9.93-9.93s-4.44-9.93-9.93-9.93-9.93,4.44-9.93,9.93,4.44,9.93,9.93,9.93Z" style="fill: #71939c; stroke-width: 0px;"/>
            <path d="m178.49,635.15c5.73,0,10.38-4.65,10.38-10.38s-4.65-10.38-10.38-10.38-10.38,4.65-10.38,10.38,4.65,10.38,10.38,10.38Z" style="fill: #71939c; stroke-width: 0px;"/>
            <circle cx="219.64" cy="624.77" r="10.61" style="fill: #71939c; stroke-width: 0px;"/>
            <path d="m260.8,635.49c5.92,0,10.73-4.8,10.73-10.73s-4.8-10.73-10.73-10.73-10.73,4.8-10.73,10.73,4.8,10.73,10.73,10.73Z" style="fill: #71939c; stroke-width: 0px;"/>
            <circle cx="301.95" cy="624.77" r="10.61" style="fill: #71939c; stroke-width: 0px;"/>
            <path d="m343.1,635.15c5.73,0,10.38-4.65,10.38-10.38s-4.65-10.38-10.38-10.38-10.38,4.65-10.38,10.38,4.65,10.38,10.38,10.38Z" style="fill: #71939c; stroke-width: 0px;"/>
            <circle cx="384.25" cy="624.77" r="10.04" style="fill: #71939c; stroke-width: 0px;"/>
            <circle cx="425.4" cy="624.77" r="9.47" style="fill: #71939c; stroke-width: 0px;"/>
            <path d="m466.55,633.55c4.85,0,8.79-3.93,8.79-8.79s-3.93-8.79-8.79-8.79-8.79,3.93-8.79,8.79,3.93,8.79,8.79,8.79Z" style="fill: #71939c; stroke-width: 0px;"/>
            <path d="m507.7,632.87c4.47,0,8.1-3.63,8.1-8.1s-3.63-8.1-8.1-8.1-8.1,3.63-8.1,8.1,3.63,8.1,8.1,8.1Z" style="fill: #71939c; stroke-width: 0px;"/>
            <path d="m548.85,631.96c3.97,0,7.19-3.22,7.19-7.19s-3.22-7.19-7.19-7.19-7.19,3.22-7.19,7.19,3.22,7.19,7.19,7.19Z" style="fill: #71939c; stroke-width: 0px;"/>
            <path d="m590,631.16c3.53,0,6.39-2.86,6.39-6.39s-2.86-6.39-6.39-6.39-6.39,2.86-6.39,6.39,2.86,6.39,6.39,6.39Z" style="fill: #71939c; stroke-width: 0px;"/>
            <path d="m631.15,630.24c3.03,0,5.48-2.45,5.48-5.48s-2.45-5.48-5.48-5.48-5.48,2.45-5.48,5.48,2.45,5.48,5.48,5.48Z" style="fill: #71939c; stroke-width: 0px;"/>
            <path d="m672.3,629.22c2.46,0,4.45-1.99,4.45-4.45s-1.99-4.45-4.45-4.45-4.45,1.99-4.45,4.45,1.99,4.45,4.45,4.45Z" style="fill: #71939c; stroke-width: 0px;"/>
            <circle cx="713.45" cy="624.77" r="3.54" style="fill: #71939c; stroke-width: 0px;"/>
            <path d="m754.6,627.16c1.32,0,2.4-1.07,2.4-2.4s-1.07-2.4-2.4-2.4-2.4,1.07-2.4,2.4,1.07,2.4,2.4,2.4Z" style="fill: #71939c; stroke-width: 0px;"/>
            <circle cx="795.75" cy="624.77" r="1.37" style="fill: #71939c; stroke-width: 0px;"/>
            <path d="m836.91,625.11c.19,0,.34-.15.34-.34s-.15-.34-.34-.34-.34.15-.34.34.15.34.34.34Z" style="fill: #71939c; stroke-width: 0px;"/>
            <path d="m13.89,674.82c4.92,0,8.9-3.98,8.9-8.9s-3.98-8.9-8.9-8.9-8.9,3.98-8.9,8.9,3.99,8.9,8.9,8.9Z" style="fill: #71939c; stroke-width: 0px;"/>
            <path d="m55.04,675.62c5.36,0,9.7-4.34,9.7-9.7s-4.34-9.7-9.7-9.7-9.7,4.34-9.7,9.7,4.34,9.7,9.7,9.7Z" style="fill: #71939c; stroke-width: 0px;"/>
            <path d="m96.19,676.3c5.73,0,10.38-4.65,10.38-10.38s-4.65-10.38-10.38-10.38-10.38,4.65-10.38,10.38,4.65,10.38,10.38,10.38Z" style="fill: #71939c; stroke-width: 0px;"/>
            <path d="m137.34,676.99c6.11,0,11.07-4.96,11.07-11.07s-4.96-11.07-11.07-11.07-11.07,4.96-11.07,11.07,4.96,11.07,11.07,11.07Z" style="fill: #71939c; stroke-width: 0px;"/>
            <path d="m178.49,677.44c6.36,0,11.52-5.16,11.52-11.53s-5.16-11.52-11.52-11.52-11.53,5.16-11.53,11.52,5.16,11.53,11.53,11.53Z" style="fill: #71939c; stroke-width: 0px;"/>
            <path d="m219.64,677.67c6.49,0,11.75-5.26,11.75-11.75s-5.26-11.75-11.75-11.75-11.75,5.26-11.75,11.75,5.26,11.75,11.75,11.75Z" style="fill: #71939c; stroke-width: 0px;"/>
            <path d="m260.8,677.79c6.55,0,11.87-5.31,11.87-11.87s-5.31-11.87-11.87-11.87-11.87,5.31-11.87,11.87,5.31,11.87,11.87,11.87Z" style="fill: #71939c; stroke-width: 0px;"/>
            <path d="m301.95,677.67c6.49,0,11.75-5.26,11.75-11.75s-5.26-11.75-11.75-11.75-11.75,5.26-11.75,11.75,5.26,11.75,11.75,11.75Z" style="fill: #71939c; stroke-width: 0px;"/>
            <path d="m343.1,677.44c6.37,0,11.52-5.16,11.52-11.53s-5.16-11.52-11.52-11.52-11.53,5.16-11.53,11.52,5.16,11.53,11.53,11.53Z" style="fill: #71939c; stroke-width: 0px;"/>
            <path d="m384.25,676.99c6.11,0,11.07-4.96,11.07-11.07s-4.96-11.07-11.07-11.07-11.07,4.96-11.07,11.07,4.96,11.07,11.07,11.07Z" style="fill: #71939c; stroke-width: 0px;"/>
            <path d="m425.4,676.42c5.8,0,10.5-4.7,10.5-10.5s-4.7-10.5-10.5-10.5-10.5,4.7-10.5,10.5,4.7,10.5,10.5,10.5Z" style="fill: #71939c; stroke-width: 0px;"/>
            <path d="m466.55,675.73c5.42,0,9.81-4.39,9.81-9.81s-4.39-9.81-9.81-9.81-9.81,4.39-9.81,9.81,4.39,9.81,9.81,9.81Z" style="fill: #71939c; stroke-width: 0px;"/>
            <path d="m507.7,674.82c4.92,0,8.9-3.98,8.9-8.9s-3.98-8.9-8.9-8.9-8.9,3.98-8.9,8.9,3.98,8.9,8.9,8.9Z" style="fill: #71939c; stroke-width: 0px;"/>
            <path d="m548.85,674.02c4.47,0,8.1-3.63,8.1-8.1s-3.63-8.1-8.1-8.1-8.1,3.63-8.1,8.1,3.63,8.1,8.1,8.1Z" style="fill: #71939c; stroke-width: 0px;"/>
            <path d="m590,673.11c3.97,0,7.19-3.22,7.19-7.19s-3.22-7.19-7.19-7.19-7.19,3.22-7.19,7.19,3.22,7.19,7.19,7.19Z" style="fill: #71939c; stroke-width: 0px;"/>
            <path d="m631.15,672.08c3.4,0,6.16-2.76,6.16-6.16s-2.76-6.16-6.16-6.16-6.16,2.76-6.16,6.16,2.76,6.16,6.16,6.16Z" style="fill: #71939c; stroke-width: 0px;"/>
            <circle cx="672.3" cy="665.92" r="5.13" style="fill: #71939c; stroke-width: 0px;"/>
            <path d="m713.45,670.03c2.27,0,4.11-1.84,4.11-4.11s-1.84-4.11-4.11-4.11-4.11,1.84-4.11,4.11,1.84,4.11,4.11,4.11Z" style="fill: #71939c; stroke-width: 0px;"/>
            <path d="m754.6,669c1.7,0,3.08-1.38,3.08-3.08s-1.38-3.08-3.08-3.08-3.08,1.38-3.08,3.08,1.38,3.08,3.08,3.08Z" style="fill: #71939c; stroke-width: 0px;"/>
            <path d="m795.75,667.86c1.07,0,1.94-.87,1.94-1.94s-.87-1.94-1.94-1.94-1.94.87-1.94,1.94.87,1.94,1.94,1.94Z" style="fill: #71939c; stroke-width: 0px;"/>
            <path d="m836.91,666.83c.5,0,.91-.41.91-.91s-.41-.91-.91-.91-.91.41-.91.91.41.91.91.91Z" style="fill: #71939c; stroke-width: 0px;"/>
            <path d="m878.06,666.03c.06,0,.11-.05.11-.11s-.05-.11-.11-.11-.11.05-.11.11.05.11.11.11Z" style="fill: #71939c; stroke-width: 0px;"/>
            <path d="m13.89,716.77c5.36,0,9.7-4.34,9.7-9.7s-4.34-9.7-9.7-9.7-9.7,4.34-9.7,9.7,4.34,9.7,9.7,9.7Z" style="fill: #71939c; stroke-width: 0px;"/>
            <path d="m55.04,717.68c5.86,0,10.61-4.75,10.61-10.61s-4.75-10.61-10.61-10.61-10.61,4.75-10.61,10.61,4.75,10.61,10.61,10.61Z" style="fill: #71939c; stroke-width: 0px;"/>
            <circle cx="96.19" cy="707.07" r="11.41" style="fill: #71939c; stroke-width: 0px;"/>
            <path d="m137.34,719.16c6.68,0,12.1-5.42,12.1-12.1s-5.42-12.1-12.1-12.1-12.1,5.42-12.1,12.1,5.42,12.1,12.1,12.1Z" style="fill: #71939c; stroke-width: 0px;"/>
            <path d="m178.49,719.62c6.93,0,12.55-5.62,12.55-12.55s-5.62-12.55-12.55-12.55-12.55,5.62-12.55,12.55,5.62,12.55,12.55,12.55Z" style="fill: #71939c; stroke-width: 0px;"/>
            <path d="m219.64,720.08c7.18,0,13.01-5.82,13.01-13.01s-5.82-13.01-13.01-13.01-13.01,5.82-13.01,13.01,5.82,13.01,13.01,13.01Z" style="fill: #71939c; stroke-width: 0px;"/>
            <path d="m260.8,720.19c7.25,0,13.12-5.88,13.12-13.12s-5.88-13.12-13.12-13.12-13.12,5.88-13.12,13.12,5.88,13.12,13.12,13.12Z" style="fill: #71939c; stroke-width: 0px;"/>
            <path d="m301.95,720.08c7.18,0,13.01-5.82,13.01-13.01s-5.82-13.01-13.01-13.01-13.01,5.82-13.01,13.01,5.82,13.01,13.01,13.01Z" style="fill: #71939c; stroke-width: 0px;"/>
            <path d="m343.1,719.73c7,0,12.67-5.67,12.67-12.67s-5.67-12.67-12.67-12.67-12.67,5.67-12.67,12.67,5.67,12.67,12.67,12.67Z" style="fill: #71939c; stroke-width: 0px;"/>
            <path d="m384.25,719.16c6.68,0,12.1-5.42,12.1-12.1s-5.42-12.1-12.1-12.1-12.1,5.42-12.1,12.1,5.42,12.1,12.1,12.1Z" style="fill: #71939c; stroke-width: 0px;"/>
            <circle cx="425.4" cy="707.07" r="11.41" style="fill: #71939c; stroke-width: 0px;"/>
            <path d="m466.55,717.79c5.92,0,10.73-4.8,10.73-10.73s-4.8-10.73-10.73-10.73-10.73,4.8-10.73,10.73,4.8,10.73,10.73,10.73Z" style="fill: #71939c; stroke-width: 0px;"/>
            <path d="m507.7,716.88c5.42,0,9.81-4.39,9.81-9.81s-4.39-9.81-9.81-9.81-9.81,4.39-9.81,9.81,4.39,9.81,9.81,9.81Z" style="fill: #71939c; stroke-width: 0px;"/>
            <path d="m548.85,715.85c4.85,0,8.79-3.93,8.79-8.79s-3.93-8.79-8.79-8.79-8.79,3.93-8.79,8.79,3.93,8.79,8.79,8.79Z" style="fill: #71939c; stroke-width: 0px;"/>
            <path d="m590,714.83c4.29,0,7.76-3.47,7.76-7.76s-3.47-7.76-7.76-7.76-7.76,3.47-7.76,7.76,3.47,7.76,7.76,7.76Z" style="fill: #71939c; stroke-width: 0px;"/>
            <path d="m631.15,713.91c3.78,0,6.85-3.06,6.85-6.85s-3.07-6.85-6.85-6.85-6.85,3.06-6.85,6.85,3.07,6.85,6.85,6.85Z" style="fill: #71939c; stroke-width: 0px;"/>
            <circle cx="672.3" cy="707.07" r="5.71" style="fill: #71939c; stroke-width: 0px;"/>
            <path d="m713.45,711.75c2.58,0,4.68-2.09,4.68-4.68s-2.09-4.68-4.68-4.68-4.68,2.09-4.68,4.68,2.09,4.68,4.68,4.68Z" style="fill: #71939c; stroke-width: 0px;"/>
            <circle cx="754.6" cy="707.07" r="3.54" style="fill: #71939c; stroke-width: 0px;"/>
            <path d="m795.75,709.46c1.32,0,2.4-1.07,2.4-2.4s-1.07-2.4-2.4-2.4-2.4,1.07-2.4,2.4,1.07,2.4,2.4,2.4Z" style="fill: #71939c; stroke-width: 0px;"/>
            <path d="m836.91,708.32c.69,0,1.26-.56,1.26-1.26s-.56-1.25-1.26-1.25-1.25.56-1.25,1.25.56,1.26,1.25,1.26Z" style="fill: #71939c; stroke-width: 0px;"/>
            <path d="m878.06,707.3c.13,0,.23-.1.23-.23s-.1-.23-.23-.23-.23.1-.23.23.1.23.23.23Z" style="fill: #71939c; stroke-width: 0px;"/>
            <path d="m13.89,758.6c5.73,0,10.38-4.65,10.38-10.38s-4.65-10.38-10.38-10.38-10.38,4.65-10.38,10.38,4.65,10.38,10.38,10.38Z" style="fill: #71939c; stroke-width: 0px;"/>
            <path d="m55.04,759.63c6.3,0,11.41-5.11,11.41-11.41s-5.11-11.41-11.41-11.41-11.41,5.11-11.41,11.41,5.11,11.41,11.41,11.41Z" style="fill: #71939c; stroke-width: 0px;"/>
            <path d="m96.19,760.54c6.81,0,12.32-5.52,12.32-12.32s-5.52-12.32-12.32-12.32-12.32,5.52-12.32,12.32,5.52,12.32,12.32,12.32Z" style="fill: #71939c; stroke-width: 0px;"/>
            <path d="m137.34,761.34c7.25,0,13.12-5.88,13.12-13.12s-5.87-13.12-13.12-13.12-13.12,5.88-13.12,13.12,5.88,13.12,13.12,13.12Z" style="fill: #71939c; stroke-width: 0px;"/>
            <path d="m178.49,761.91c7.56,0,13.69-6.13,13.69-13.69s-6.13-13.69-13.69-13.69-13.69,6.13-13.69,13.69,6.13,13.69,13.69,13.69Z" style="fill: #71939c; stroke-width: 0px;"/>
            <path d="m219.64,762.37c7.81,0,14.15-6.33,14.15-14.15s-6.34-14.15-14.15-14.15-14.15,6.33-14.15,14.15,6.34,14.15,14.15,14.15Z" style="fill: #71939c; stroke-width: 0px;"/>
            <path d="m260.8,762.48c7.88,0,14.26-6.39,14.26-14.26s-6.39-14.26-14.26-14.26-14.26,6.39-14.26,14.26,6.39,14.26,14.26,14.26Z" style="fill: #71939c; stroke-width: 0px;"/>
            <path d="m301.95,762.37c7.81,0,14.15-6.33,14.15-14.15s-6.34-14.15-14.15-14.15-14.15,6.33-14.15,14.15,6.34,14.15,14.15,14.15Z" style="fill: #71939c; stroke-width: 0px;"/>
            <path d="m343.1,762.03c7.63,0,13.81-6.18,13.81-13.81s-6.18-13.81-13.81-13.81-13.81,6.18-13.81,13.81,6.18,13.81,13.81,13.81Z" style="fill: #71939c; stroke-width: 0px;"/>
            <path d="m384.25,761.34c7.25,0,13.12-5.88,13.12-13.12s-5.88-13.12-13.12-13.12-13.12,5.88-13.12,13.12,5.88,13.12,13.12,13.12Z" style="fill: #71939c; stroke-width: 0px;"/>
            <path d="m425.4,760.54c6.81,0,12.32-5.52,12.32-12.32s-5.52-12.32-12.32-12.32-12.32,5.52-12.32,12.32,5.52,12.32,12.32,12.32Z" style="fill: #71939c; stroke-width: 0px;"/>
            <path d="m466.55,759.74c6.37,0,11.53-5.16,11.53-11.53s-5.16-11.52-11.53-11.52-11.52,5.16-11.52,11.52,5.16,11.53,11.52,11.53Z" style="fill: #71939c; stroke-width: 0px;"/>
            <path d="m507.7,758.72c5.8,0,10.5-4.7,10.5-10.5s-4.7-10.5-10.5-10.5-10.5,4.7-10.5,10.5,4.7,10.5,10.5,10.5Z" style="fill: #71939c; stroke-width: 0px;"/>
            <path d="m548.85,757.69c5.23,0,9.47-4.24,9.47-9.47s-4.24-9.47-9.47-9.47-9.47,4.24-9.47,9.47,4.24,9.47,9.47,9.47Z" style="fill: #71939c; stroke-width: 0px;"/>
            <path d="m590,756.66c4.66,0,8.44-3.78,8.44-8.44s-3.78-8.44-8.44-8.44-8.44,3.78-8.44,8.44,3.78,8.44,8.44,8.44Z" style="fill: #71939c; stroke-width: 0px;"/>
            <path d="m631.15,755.52c4.03,0,7.3-3.27,7.3-7.3s-3.27-7.3-7.3-7.3-7.3,3.27-7.3,7.3,3.27,7.3,7.3,7.3Z" style="fill: #71939c; stroke-width: 0px;"/>
            <path d="m672.3,754.38c3.4,0,6.16-2.76,6.16-6.16s-2.76-6.16-6.16-6.16-6.16,2.76-6.16,6.16,2.76,6.16,6.16,6.16Z" style="fill: #71939c; stroke-width: 0px;"/>
            <path d="m713.45,753.35c2.84,0,5.13-2.3,5.13-5.14s-2.3-5.13-5.13-5.13-5.13,2.3-5.13,5.13,2.3,5.14,5.13,5.14Z" style="fill: #71939c; stroke-width: 0px;"/>
            <path d="m754.6,752.21c2.21,0,3.99-1.79,3.99-3.99s-1.79-3.99-3.99-3.99-3.99,1.79-3.99,3.99,1.79,3.99,3.99,3.99Z" style="fill: #71939c; stroke-width: 0px;"/>
            <path d="m795.75,751.07c1.58,0,2.85-1.28,2.85-2.85s-1.28-2.85-2.85-2.85-2.85,1.28-2.85,2.85,1.28,2.85,2.85,2.85Z" style="fill: #71939c; stroke-width: 0px;"/>
            <path d="m836.91,749.93c.95,0,1.71-.77,1.71-1.71s-.77-1.71-1.71-1.71-1.71.77-1.71,1.71.77,1.71,1.71,1.71Z" style="fill: #71939c; stroke-width: 0px;"/>
            <path d="m878.06,748.79c.32,0,.57-.26.57-.57s-.26-.57-.57-.57-.57.26-.57.57.26.57.57.57Z" style="fill: #71939c; stroke-width: 0px;"/>
            <path d="m13.89,800.44c6.11,0,11.07-4.96,11.07-11.07s-4.96-11.07-11.07-11.07-11.07,4.96-11.07,11.07,4.96,11.07,11.07,11.07Z" style="fill: #71939c; stroke-width: 0px;"/>
            <path d="m55.04,801.47c6.68,0,12.1-5.42,12.1-12.1s-5.42-12.1-12.1-12.1-12.1,5.42-12.1,12.1,5.42,12.1,12.1,12.1Z" style="fill: #71939c; stroke-width: 0px;"/>
            <path d="m96.19,802.49c7.25,0,13.12-5.88,13.12-13.12s-5.87-13.12-13.12-13.12-13.12,5.88-13.12,13.12,5.88,13.12,13.12,13.12Z" style="fill: #71939c; stroke-width: 0px;"/>
            <path d="m137.34,803.29c7.69,0,13.92-6.23,13.92-13.92s-6.23-13.92-13.92-13.92-13.92,6.23-13.92,13.92,6.23,13.92,13.92,13.92Z" style="fill: #71939c; stroke-width: 0px;"/>
            <path d="m178.49,804.09c8.13,0,14.72-6.59,14.72-14.72s-6.59-14.72-14.72-14.72-14.72,6.59-14.72,14.72,6.59,14.72,14.72,14.72Z" style="fill: #71939c; stroke-width: 0px;"/>
            <path d="m219.64,804.66c8.44,0,15.29-6.85,15.29-15.29s-6.85-15.29-15.29-15.29-15.29,6.85-15.29,15.29,6.85,15.29,15.29,15.29Z" style="fill: #71939c; stroke-width: 0px;"/>
            <path d="m260.8,804.89c8.57,0,15.52-6.95,15.52-15.52s-6.95-15.52-15.52-15.52-15.52,6.95-15.52,15.52,6.95,15.52,15.52,15.52Z" style="fill: #71939c; stroke-width: 0px;"/>
            <path d="m301.95,804.66c8.45,0,15.29-6.85,15.29-15.29s-6.85-15.29-15.29-15.29-15.29,6.85-15.29,15.29,6.85,15.29,15.29,15.29Z" style="fill: #71939c; stroke-width: 0px;"/>
            <path d="m343.1,804.2c8.19,0,14.83-6.64,14.83-14.83s-6.64-14.83-14.83-14.83-14.83,6.64-14.83,14.83,6.64,14.83,14.83,14.83Z" style="fill: #71939c; stroke-width: 0px;"/>
            <path d="m384.25,803.41c7.75,0,14.04-6.28,14.04-14.04s-6.28-14.04-14.04-14.04-14.04,6.28-14.04,14.04,6.28,14.04,14.04,14.04Z" style="fill: #71939c; stroke-width: 0px;"/>
            <path d="m425.4,802.49c7.25,0,13.12-5.88,13.12-13.12s-5.88-13.12-13.12-13.12-13.12,5.88-13.12,13.12,5.88,13.12,13.12,13.12Z" style="fill: #71939c; stroke-width: 0px;"/>
            <path d="m466.55,801.47c6.68,0,12.1-5.42,12.1-12.1s-5.42-12.1-12.1-12.1-12.1,5.42-12.1,12.1,5.42,12.1,12.1,12.1Z" style="fill: #71939c; stroke-width: 0px;"/>
            <path d="m507.7,800.44c6.11,0,11.07-4.96,11.07-11.07s-4.96-11.07-11.07-11.07-11.07,4.96-11.07,11.07,4.96,11.07,11.07,11.07Z" style="fill: #71939c; stroke-width: 0px;"/>
            <circle cx="548.85" cy="789.37" r="10.04" style="fill: #71939c; stroke-width: 0px;"/>
            <path d="m590,798.27c4.92,0,8.9-3.98,8.9-8.9s-3.98-8.9-8.9-8.9-8.9,3.98-8.9,8.9,3.98,8.9,8.9,8.9Z" style="fill: #71939c; stroke-width: 0px;"/>
            <path d="m631.15,797.13c4.29,0,7.76-3.47,7.76-7.76s-3.47-7.76-7.76-7.76-7.76,3.47-7.76,7.76,3.47,7.76,7.76,7.76Z" style="fill: #71939c; stroke-width: 0px;"/>
            <path d="m672.3,795.99c3.66,0,6.62-2.96,6.62-6.62s-2.96-6.62-6.62-6.62-6.62,2.96-6.62,6.62,2.96,6.62,6.62,6.62Z" style="fill: #71939c; stroke-width: 0px;"/>
            <path d="m713.45,794.85c3.03,0,5.48-2.45,5.48-5.48s-2.45-5.48-5.48-5.48-5.48,2.45-5.48,5.48,2.45,5.48,5.48,5.48Z" style="fill: #71939c; stroke-width: 0px;"/>
            <circle cx="754.6" cy="789.37" r="4.34" style="fill: #71939c; stroke-width: 0px;"/>
            <path d="m795.75,792.57c1.77,0,3.2-1.43,3.2-3.19s-1.43-3.2-3.2-3.2-3.19,1.43-3.19,3.2,1.43,3.19,3.19,3.19Z" style="fill: #71939c; stroke-width: 0px;"/>
            <path d="m836.91,791.31c1.07,0,1.94-.87,1.94-1.94s-.87-1.94-1.94-1.94-1.94.87-1.94,1.94.87,1.94,1.94,1.94Z" style="fill: #71939c; stroke-width: 0px;"/>
            <path d="m878.06,790.17c.44,0,.8-.36.8-.8s-.36-.8-.8-.8-.8.36-.8.8.36.8.8.8Z" style="fill: #71939c; stroke-width: 0px;"/>
            <path d="m13.89,842.05c6.36,0,11.52-5.16,11.52-11.52s-5.16-11.53-11.52-11.53-11.53,5.16-11.53,11.53,5.16,11.52,11.53,11.52Z" style="fill: #71939c; stroke-width: 0px;"/>
            <path d="m55.04,843.07c6.93,0,12.55-5.62,12.55-12.55s-5.62-12.55-12.55-12.55-12.55,5.62-12.55,12.55,5.62,12.55,12.55,12.55Z" style="fill: #71939c; stroke-width: 0px;"/>
            <path d="m96.19,844.21c7.56,0,13.69-6.13,13.69-13.69s-6.13-13.69-13.69-13.69-13.69,6.13-13.69,13.69,6.13,13.69,13.69,13.69Z" style="fill: #71939c; stroke-width: 0px;"/>
            <path d="m137.34,845.24c8.13,0,14.72-6.59,14.72-14.72s-6.59-14.72-14.72-14.72-14.72,6.59-14.72,14.72,6.59,14.72,14.72,14.72Z" style="fill: #71939c; stroke-width: 0px;"/>
            <path d="m178.49,846.15c8.63,0,15.63-7,15.63-15.63s-7-15.63-15.63-15.63-15.63,7-15.63,15.63,7,15.63,15.63,15.63Z" style="fill: #71939c; stroke-width: 0px;"/>
            <path d="m219.64,846.95c9.08,0,16.43-7.36,16.43-16.43s-7.36-16.43-16.43-16.43-16.43,7.36-16.43,16.43,7.36,16.43,16.43,16.43Z" style="fill: #71939c; stroke-width: 0px;"/>
            <path d="m260.8,847.18c9.2,0,16.66-7.46,16.66-16.66s-7.46-16.66-16.66-16.66-16.66,7.46-16.66,16.66,7.46,16.66,16.66,16.66Z" style="fill: #71939c; stroke-width: 0px;"/>
            <path d="m301.95,846.95c9.08,0,16.43-7.36,16.43-16.43s-7.36-16.43-16.43-16.43-16.43,7.36-16.43,16.43,7.36,16.43,16.43,16.43Z" style="fill: #71939c; stroke-width: 0px;"/>
            <circle cx="343.1" cy="830.52" r="15.75" style="fill: #71939c; stroke-width: 0px;"/>
            <path d="m384.25,845.35c8.19,0,14.83-6.64,14.83-14.83s-6.64-14.83-14.83-14.83-14.83,6.64-14.83,14.83,6.64,14.83,14.83,14.83Z" style="fill: #71939c; stroke-width: 0px;"/>
            <path d="m425.4,844.33c7.63,0,13.81-6.18,13.81-13.81s-6.18-13.81-13.81-13.81-13.81,6.18-13.81,13.81,6.18,13.81,13.81,13.81Z" style="fill: #71939c; stroke-width: 0px;"/>
            <path d="m466.55,843.19c7,0,12.67-5.67,12.67-12.67s-5.67-12.67-12.67-12.67-12.67,5.67-12.67,12.67,5.67,12.67,12.67,12.67Z" style="fill: #71939c; stroke-width: 0px;"/>
            <path d="m507.7,842.05c6.37,0,11.53-5.16,11.53-11.52s-5.16-11.53-11.53-11.53-11.52,5.16-11.52,11.53,5.16,11.52,11.52,11.52Z" style="fill: #71939c; stroke-width: 0px;"/>
            <path d="m548.85,841.02c5.8,0,10.5-4.7,10.5-10.5s-4.7-10.5-10.5-10.5-10.5,4.7-10.5,10.5,4.7,10.5,10.5,10.5Z" style="fill: #71939c; stroke-width: 0px;"/>
            <circle cx="590" cy="830.52" r="9.24" style="fill: #71939c; stroke-width: 0px;"/>
            <path d="m631.15,838.62c4.47,0,8.1-3.63,8.1-8.1s-3.63-8.1-8.1-8.1-8.1,3.63-8.1,8.1,3.63,8.1,8.1,8.1Z" style="fill: #71939c; stroke-width: 0px;"/>
            <path d="m672.3,837.48c3.84,0,6.96-3.12,6.96-6.96s-3.12-6.96-6.96-6.96-6.96,3.12-6.96,6.96,3.12,6.96,6.96,6.96Z" style="fill: #71939c; stroke-width: 0px;"/>
            <circle cx="713.45" cy="830.52" r="5.71" style="fill: #71939c; stroke-width: 0px;"/>
            <path d="m754.6,835.09c2.52,0,4.57-2.04,4.57-4.56s-2.04-4.57-4.57-4.57-4.56,2.04-4.56,4.57,2.04,4.56,4.56,4.56Z" style="fill: #71939c; stroke-width: 0px;"/>
            <path d="m795.75,833.94c1.89,0,3.42-1.53,3.42-3.42s-1.53-3.42-3.42-3.42-3.42,1.53-3.42,3.42,1.53,3.42,3.42,3.42Z" style="fill: #71939c; stroke-width: 0px;"/>
            <circle cx="836.91" cy="830.52" r="2.17" style="fill: #71939c; stroke-width: 0px;"/>
            <path d="m878.06,831.55c.57,0,1.03-.46,1.03-1.03s-.46-1.03-1.03-1.03-1.03.46-1.03,1.03.46,1.03,1.03,1.03Z" style="fill: #71939c; stroke-width: 0px;"/>
            <path d="m919.21,830.63c.06,0,.11-.05.11-.11s-.05-.11-.11-.11-.11.05-.11.11.05.11.11.11Z" style="fill: #71939c; stroke-width: 0px;"/>
            <path d="m13.89,883.42c6.49,0,11.75-5.26,11.75-11.75s-5.26-11.75-11.75-11.75-11.75,5.26-11.75,11.75,5.26,11.75,11.75,11.75Z" style="fill: #71939c; stroke-width: 0px;"/>
            <circle cx="55.04" cy="871.67" r="13.01" style="fill: #71939c; stroke-width: 0px;"/>
            <path d="m96.19,885.82c7.81,0,14.15-6.33,14.15-14.15s-6.34-14.15-14.15-14.15-14.15,6.33-14.15,14.15,6.33,14.15,14.15,14.15Z" style="fill: #71939c; stroke-width: 0px;"/>
            <path d="m137.34,886.96c8.44,0,15.29-6.85,15.29-15.29s-6.85-15.29-15.29-15.29-15.29,6.85-15.29,15.29,6.85,15.29,15.29,15.29Z" style="fill: #71939c; stroke-width: 0px;"/>
            <path d="m178.49,888.1c9.08,0,16.43-7.36,16.43-16.43s-7.36-16.43-16.43-16.43-16.43,7.36-16.43,16.43,7.36,16.43,16.43,16.43Z" style="fill: #71939c; stroke-width: 0px;"/>
            <circle cx="219.64" cy="871.67" r="17.34" style="fill: #71939c; stroke-width: 0px;"/>
            <path d="m260.8,889.47c9.83,0,17.8-7.97,17.8-17.8s-7.97-17.8-17.8-17.8-17.8,7.97-17.8,17.8,7.97,17.8,17.8,17.8Z" style="fill: #71939c; stroke-width: 0px;"/>
            <path d="m301.95,889.13c9.64,0,17.46-7.82,17.46-17.46s-7.82-17.46-17.46-17.46-17.46,7.82-17.46,17.46,7.82,17.46,17.46,17.46Z" style="fill: #71939c; stroke-width: 0px;"/>
            <circle cx="343.1" cy="871.67" r="16.55" style="fill: #71939c; stroke-width: 0px;"/>
            <path d="m384.25,887.08c8.51,0,15.4-6.9,15.4-15.4s-6.9-15.41-15.4-15.41-15.4,6.9-15.4,15.41,6.9,15.4,15.4,15.4Z" style="fill: #71939c; stroke-width: 0px;"/>
            <path d="m425.4,885.94c7.88,0,14.26-6.39,14.26-14.26s-6.39-14.26-14.26-14.26-14.26,6.39-14.26,14.26,6.39,14.26,14.26,14.26Z" style="fill: #71939c; stroke-width: 0px;"/>
            <path d="m466.55,884.79c7.25,0,13.12-5.88,13.12-13.12s-5.88-13.12-13.12-13.12-13.12,5.88-13.12,13.12,5.88,13.12,13.12,13.12Z" style="fill: #71939c; stroke-width: 0px;"/>
            <path d="m507.7,883.54c6.55,0,11.87-5.31,11.87-11.87s-5.31-11.87-11.87-11.87-11.87,5.31-11.87,11.87,5.31,11.87,11.87,11.87Z" style="fill: #71939c; stroke-width: 0px;"/>
            <path d="m548.85,882.4c5.92,0,10.73-4.8,10.73-10.73s-4.8-10.73-10.73-10.73-10.73,4.8-10.73,10.73,4.8,10.73,10.73,10.73Z" style="fill: #71939c; stroke-width: 0px;"/>
            <circle cx="590" cy="871.67" r="9.47" style="fill: #71939c; stroke-width: 0px;"/>
            <path d="m631.15,880c4.6,0,8.33-3.73,8.33-8.33s-3.73-8.33-8.33-8.33-8.33,3.73-8.33,8.33,3.73,8.33,8.33,8.33Z" style="fill: #71939c; stroke-width: 0px;"/>
            <circle cx="672.3" cy="871.67" r="7.07" style="fill: #71939c; stroke-width: 0px;"/>
            <path d="m713.45,877.61c3.28,0,5.93-2.66,5.93-5.93s-2.66-5.93-5.93-5.93-5.93,2.66-5.93,5.93,2.66,5.93,5.93,5.93Z" style="fill: #71939c; stroke-width: 0px;"/>
            <path d="m754.6,876.35c2.58,0,4.68-2.09,4.68-4.68s-2.09-4.68-4.68-4.68-4.68,2.09-4.68,4.68,2.09,4.68,4.68,4.68Z" style="fill: #71939c; stroke-width: 0px;"/>
            <circle cx="795.75" cy="871.67" r="3.54" style="fill: #71939c; stroke-width: 0px;"/>
            <path d="m836.91,873.95c1.26,0,2.28-1.02,2.28-2.28s-1.02-2.28-2.28-2.28-2.28,1.02-2.28,2.28,1.02,2.28,2.28,2.28Z" style="fill: #71939c; stroke-width: 0px;"/>
            <path d="m878.06,872.81c.63,0,1.14-.51,1.14-1.14s-.51-1.14-1.14-1.14-1.14.51-1.14,1.14.51,1.14,1.14,1.14Z" style="fill: #71939c; stroke-width: 0px;"/>
            <path d="m919.21,871.79c.06,0,.11-.05.11-.11s-.05-.11-.11-.11-.11.05-.11.11.05.11.11.11Z" style="fill: #71939c; stroke-width: 0px;"/>
            <path d="m13.89,924.69c6.55,0,11.87-5.31,11.87-11.87s-5.31-11.87-11.87-11.87-11.87,5.31-11.87,11.87,5.31,11.87,11.87,11.87Z" style="fill: #71939c; stroke-width: 0px;"/>
            <path d="m55.04,925.94c7.25,0,13.12-5.88,13.12-13.12s-5.88-13.12-13.12-13.12-13.12,5.88-13.12,13.12,5.88,13.12,13.12,13.12Z" style="fill: #71939c; stroke-width: 0px;"/>
            <path d="m96.19,927.09c7.88,0,14.26-6.39,14.26-14.26s-6.39-14.26-14.26-14.26-14.26,6.39-14.26,14.26,6.39,14.26,14.26,14.26Z" style="fill: #71939c; stroke-width: 0px;"/>
            <path d="m137.34,928.34c8.57,0,15.52-6.95,15.52-15.52s-6.95-15.52-15.52-15.52-15.52,6.95-15.52,15.52,6.95,15.52,15.52,15.52Z" style="fill: #71939c; stroke-width: 0px;"/>
            <path d="m178.49,929.48c9.2,0,16.66-7.46,16.66-16.66s-7.46-16.66-16.66-16.66-16.66,7.46-16.66,16.66,7.46,16.66,16.66,16.66Z" style="fill: #71939c; stroke-width: 0px;"/>
            <path d="m219.64,930.62c9.83,0,17.8-7.97,17.8-17.8s-7.97-17.8-17.8-17.8-17.8,7.97-17.8,17.8,7.97,17.8,17.8,17.8Z" style="fill: #71939c; stroke-width: 0px;"/>
            <circle cx="260.8" cy="912.82" r="18.71" style="fill: #71939c; stroke-width: 0px;"/>
            <circle cx="301.95" cy="912.82" r="17.92" style="fill: #71939c; stroke-width: 0px;"/>
            <path d="m343.1,929.6c9.26,0,16.77-7.51,16.77-16.77s-7.51-16.77-16.77-16.77-16.77,7.51-16.77,16.77,7.51,16.77,16.77,16.77Z" style="fill: #71939c; stroke-width: 0px;"/>
            <path d="m384.25,928.46c8.63,0,15.63-7,15.63-15.63s-7-15.63-15.63-15.63-15.63,7-15.63,15.63,7,15.63,15.63,15.63Z" style="fill: #71939c; stroke-width: 0px;"/>
            <circle cx="425.4" cy="912.82" r="14.38" style="fill: #71939c; stroke-width: 0px;"/>
            <path d="m466.55,926.06c7.31,0,13.24-5.93,13.24-13.24s-5.93-13.24-13.24-13.24-13.24,5.93-13.24,13.24,5.93,13.24,13.24,13.24Z" style="fill: #71939c; stroke-width: 0px;"/>
            <path d="m507.7,924.8c6.62,0,11.98-5.36,11.98-11.98s-5.36-11.98-11.98-11.98-11.98,5.36-11.98,11.98,5.36,11.98,11.98,11.98Z" style="fill: #71939c; stroke-width: 0px;"/>
            <circle cx="548.85" cy="912.82" r="10.84" style="fill: #71939c; stroke-width: 0px;"/>
            <path d="m590,922.41c5.29,0,9.59-4.29,9.59-9.58s-4.29-9.59-9.59-9.59-9.58,4.29-9.58,9.59,4.29,9.58,9.58,9.58Z" style="fill: #71939c; stroke-width: 0px;"/>
            <path d="m631.15,921.15c4.6,0,8.33-3.73,8.33-8.33s-3.73-8.33-8.33-8.33-8.33,3.73-8.33,8.33,3.73,8.33,8.33,8.33Z" style="fill: #71939c; stroke-width: 0px;"/>
            <path d="m672.3,920.01c3.97,0,7.19-3.22,7.19-7.19s-3.22-7.19-7.19-7.19-7.19,3.22-7.19,7.19,3.22,7.19,7.19,7.19Z" style="fill: #71939c; stroke-width: 0px;"/>
            <circle cx="713.45" cy="912.82" r="5.93" style="fill: #71939c; stroke-width: 0px;"/>
            <path d="m754.6,917.61c2.65,0,4.79-2.15,4.79-4.79s-2.15-4.79-4.79-4.79-4.79,2.15-4.79,4.79,2.15,4.79,4.79,4.79Z" style="fill: #71939c; stroke-width: 0px;"/>
            <circle cx="795.75" cy="912.82" r="3.54" style="fill: #71939c; stroke-width: 0px;"/>
            <path d="m836.91,915.22c1.32,0,2.4-1.07,2.4-2.4s-1.07-2.4-2.4-2.4-2.4,1.07-2.4,2.4,1.07,2.4,2.4,2.4Z" style="fill: #71939c; stroke-width: 0px;"/>
            <path d="m878.06,913.96c.63,0,1.14-.51,1.14-1.14s-.51-1.14-1.14-1.14-1.14.51-1.14,1.14.51,1.14,1.14,1.14Z" style="fill: #71939c; stroke-width: 0px;"/>
            <path d="m919.21,912.94c.06,0,.11-.05.11-.11s-.05-.11-.11-.11-.11.05-.11.11.05.11.11.11Z" style="fill: #71939c; stroke-width: 0px;"/>
            <path d="m13.89,965.73c6.49,0,11.75-5.26,11.75-11.75s-5.26-11.75-11.75-11.75-11.75,5.26-11.75,11.75,5.26,11.75,11.75,11.75Z" style="fill: #71939c; stroke-width: 0px;"/>
            <circle cx="55.04" cy="953.97" r="13.01" style="fill: #71939c; stroke-width: 0px;"/>
            <circle cx="96.19" cy="953.97" r="14.15" style="fill: #71939c; stroke-width: 0px;"/>
            <path d="m137.34,969.26c8.44,0,15.29-6.85,15.29-15.29s-6.85-15.29-15.29-15.29-15.29,6.85-15.29,15.29,6.85,15.29,15.29,15.29Z" style="fill: #71939c; stroke-width: 0px;"/>
            <path d="m178.49,970.4c9.08,0,16.43-7.36,16.43-16.43s-7.36-16.43-16.43-16.43-16.43,7.36-16.43,16.43,7.36,16.43,16.43,16.43Z" style="fill: #71939c; stroke-width: 0px;"/>
            <path d="m219.64,971.43c9.64,0,17.46-7.82,17.46-17.46s-7.82-17.46-17.46-17.46-17.46,7.82-17.46,17.46,7.82,17.46,17.46,17.46Z" style="fill: #71939c; stroke-width: 0px;"/>
            <circle cx="260.8" cy="953.97" r="17.92" style="fill: #71939c; stroke-width: 0px;"/>
            <path d="m301.95,971.43c9.64,0,17.46-7.82,17.46-17.46s-7.82-17.46-17.46-17.46-17.46,7.82-17.46,17.46,7.82,17.46,17.46,17.46Z" style="fill: #71939c; stroke-width: 0px;"/>
            <circle cx="343.1" cy="953.97" r="16.55" style="fill: #71939c; stroke-width: 0px;"/>
            <path d="m384.25,969.38c8.51,0,15.4-6.9,15.4-15.4s-6.9-15.41-15.4-15.41-15.4,6.9-15.4,15.41,6.9,15.4,15.4,15.4Z" style="fill: #71939c; stroke-width: 0px;"/>
            <path d="m425.4,968.24c7.88,0,14.26-6.39,14.26-14.26s-6.39-14.26-14.26-14.26-14.26,6.39-14.26,14.26,6.39,14.26,14.26,14.26Z" style="fill: #71939c; stroke-width: 0px;"/>
            <path d="m466.55,967.1c7.25,0,13.12-5.88,13.12-13.12s-5.88-13.12-13.12-13.12-13.12,5.88-13.12,13.12,5.88,13.12,13.12,13.12Z" style="fill: #71939c; stroke-width: 0px;"/>
            <path d="m507.7,965.84c6.55,0,11.87-5.31,11.87-11.87s-5.31-11.87-11.87-11.87-11.87,5.31-11.87,11.87,5.31,11.87,11.87,11.87Z" style="fill: #71939c; stroke-width: 0px;"/>
            <path d="m548.85,964.7c5.92,0,10.73-4.8,10.73-10.73s-4.8-10.73-10.73-10.73-10.73,4.8-10.73,10.73,4.8,10.73,10.73,10.73Z" style="fill: #71939c; stroke-width: 0px;"/>
            <circle cx="590" cy="953.97" r="9.47" style="fill: #71939c; stroke-width: 0px;"/>
            <path d="m631.15,962.3c4.6,0,8.33-3.73,8.33-8.33s-3.73-8.33-8.33-8.33-8.33,3.73-8.33,8.33,3.73,8.33,8.33,8.33Z" style="fill: #71939c; stroke-width: 0px;"/>
            <path d="m672.3,961.16c3.97,0,7.19-3.22,7.19-7.19s-3.22-7.19-7.19-7.19-7.19,3.22-7.19,7.19,3.22,7.19,7.19,7.19Z" style="fill: #71939c; stroke-width: 0px;"/>
            <circle cx="713.45" cy="953.97" r="5.93" style="fill: #71939c; stroke-width: 0px;"/>
            <path d="m754.6,958.65c2.58,0,4.68-2.09,4.68-4.68s-2.09-4.68-4.68-4.68-4.68,2.09-4.68,4.68,2.09,4.68,4.68,4.68Z" style="fill: #71939c; stroke-width: 0px;"/>
            <circle cx="795.75" cy="953.97" r="3.54" style="fill: #71939c; stroke-width: 0px;"/>
            <path d="m836.91,956.25c1.26,0,2.28-1.02,2.28-2.28s-1.02-2.28-2.28-2.28-2.28,1.02-2.28,2.28,1.02,2.28,2.28,2.28Z" style="fill: #71939c; stroke-width: 0px;"/>
            <path d="m878.06,955.11c.63,0,1.14-.51,1.14-1.14s-.51-1.14-1.14-1.14-1.14.51-1.14,1.14.51,1.14,1.14,1.14Z" style="fill: #71939c; stroke-width: 0px;"/>
            <path d="m919.21,954.09c.06,0,.11-.05.11-.11s-.05-.11-.11-.11-.11.05-.11.11.05.11.11.11Z" style="fill: #71939c; stroke-width: 0px;"/>
            <path d="m13.89,1006.65c6.36,0,11.52-5.16,11.52-11.52s-5.16-11.53-11.52-11.53-11.53,5.16-11.53,11.53,5.16,11.52,11.53,11.52Z" style="fill: #71939c; stroke-width: 0px;"/>
            <path d="m55.04,1007.79c7,0,12.67-5.67,12.67-12.67s-5.67-12.67-12.67-12.67-12.67,5.67-12.67,12.67,5.67,12.67,12.67,12.67Z" style="fill: #71939c; stroke-width: 0px;"/>
            <circle cx="96.19" cy="995.12" r="13.81" style="fill: #71939c; stroke-width: 0px;"/>
            <path d="m137.34,1009.96c8.19,0,14.83-6.64,14.83-14.83s-6.64-14.83-14.83-14.83-14.83,6.64-14.83,14.83,6.64,14.83,14.83,14.83Z" style="fill: #71939c; stroke-width: 0px;"/>
            <circle cx="178.49" cy="995.12" r="15.75" style="fill: #71939c; stroke-width: 0px;"/>
            <circle cx="219.64" cy="995.12" r="16.55" style="fill: #71939c; stroke-width: 0px;"/>
            <circle cx="260.8" cy="995.12" r="16.77" style="fill: #71939c; stroke-width: 0px;"/>
            <circle cx="301.95" cy="995.12" r="16.55" style="fill: #71939c; stroke-width: 0px;"/>
            <path d="m343.1,1010.98c8.76,0,15.86-7.1,15.86-15.86s-7.1-15.86-15.86-15.86-15.86,7.1-15.86,15.86,7.1,15.86,15.86,15.86Z" style="fill: #71939c; stroke-width: 0px;"/>
            <path d="m384.25,1009.96c8.19,0,14.83-6.64,14.83-14.83s-6.64-14.83-14.83-14.83-14.83,6.64-14.83,14.83,6.64,14.83,14.83,14.83Z" style="fill: #71939c; stroke-width: 0px;"/>
            <circle cx="425.4" cy="995.12" r="13.81" style="fill: #71939c; stroke-width: 0px;"/>
            <circle cx="466.55" cy="995.12" r="12.78" style="fill: #71939c; stroke-width: 0px;"/>
            <circle cx="507.7" cy="995.12" r="11.64" style="fill: #71939c; stroke-width: 0px;"/>
            <path d="m548.85,1005.62c5.8,0,10.5-4.7,10.5-10.5s-4.7-10.5-10.5-10.5-10.5,4.7-10.5,10.5,4.7,10.5,10.5,10.5Z" style="fill: #71939c; stroke-width: 0px;"/>
            <circle cx="590" cy="995.12" r="9.24" style="fill: #71939c; stroke-width: 0px;"/>
            <circle cx="631.15" cy="995.12" r="8.1" style="fill: #71939c; stroke-width: 0px;"/>
            <path d="m672.3,1002.08c3.84,0,6.96-3.12,6.96-6.96s-3.12-6.96-6.96-6.96-6.96,3.12-6.96,6.96,3.12,6.96,6.96,6.96Z" style="fill: #71939c; stroke-width: 0px;"/>
            <circle cx="713.45" cy="995.12" r="5.71" style="fill: #71939c; stroke-width: 0px;"/>
            <path d="m754.6,999.69c2.52,0,4.57-2.04,4.57-4.56s-2.04-4.56-4.57-4.56-4.56,2.04-4.56,4.56,2.04,4.56,4.56,4.56Z" style="fill: #71939c; stroke-width: 0px;"/>
            <path d="m795.75,998.55c1.89,0,3.42-1.53,3.42-3.42s-1.53-3.42-3.42-3.42-3.42,1.53-3.42,3.42,1.53,3.42,3.42,3.42Z" style="fill: #71939c; stroke-width: 0px;"/>
            <circle cx="836.91" cy="995.12" r="2.17" style="fill: #71939c; stroke-width: 0px;"/>
            <path d="m878.06,996.15c.57,0,1.03-.46,1.03-1.03s-.46-1.03-1.03-1.03-1.03.46-1.03,1.03.46,1.03,1.03,1.03Z" style="fill: #71939c; stroke-width: 0px;"/>
            <path d="m919.21,995.24c.06,0,.11-.05.11-.11s-.05-.11-.11-.11-.11.05-.11.11.05.11.11.11Z" style="fill: #71939c; stroke-width: 0px;"/>
            <path d="m13.89,1047.34c6.11,0,11.07-4.96,11.07-11.07s-4.96-11.07-11.07-11.07-11.07,4.96-11.07,11.07,4.96,11.07,11.07,11.07Z" style="fill: #71939c; stroke-width: 0px;"/>
            <path d="m55.04,1048.37c6.68,0,12.1-5.42,12.1-12.1s-5.42-12.1-12.1-12.1-12.1,5.42-12.1,12.1,5.42,12.1,12.1,12.1Z" style="fill: #71939c; stroke-width: 0px;"/>
            <path d="m96.19,1049.4c7.25,0,13.12-5.87,13.12-13.12s-5.87-13.12-13.12-13.12-13.12,5.88-13.12,13.12,5.88,13.12,13.12,13.12Z" style="fill: #71939c; stroke-width: 0px;"/>
            <path d="m137.34,1050.31c7.75,0,14.04-6.28,14.04-14.04s-6.28-14.04-14.04-14.04-14.04,6.28-14.04,14.04,6.28,14.04,14.04,14.04Z" style="fill: #71939c; stroke-width: 0px;"/>
            <path d="m178.49,1051.11c8.19,0,14.83-6.64,14.83-14.83s-6.64-14.83-14.83-14.83-14.83,6.64-14.83,14.83,6.64,14.83,14.83,14.83Z" style="fill: #71939c; stroke-width: 0px;"/>
            <circle cx="219.64" cy="1036.27" r="15.4" style="fill: #71939c; stroke-width: 0px;"/>
            <path d="m260.8,1051.91c8.63,0,15.63-7,15.63-15.63s-7-15.63-15.63-15.63-15.63,7-15.63,15.63,7,15.63,15.63,15.63Z" style="fill: #71939c; stroke-width: 0px;"/>
            <circle cx="301.95" cy="1036.27" r="15.4" style="fill: #71939c; stroke-width: 0px;"/>
            <path d="m343.1,1051.11c8.19,0,14.83-6.64,14.83-14.83s-6.64-14.83-14.83-14.83-14.83,6.64-14.83,14.83,6.64,14.83,14.83,14.83Z" style="fill: #71939c; stroke-width: 0px;"/>
            <circle cx="384.25" cy="1036.27" r="14.15" style="fill: #71939c; stroke-width: 0px;"/>
            <circle cx="425.4" cy="1036.27" r="13.24" style="fill: #71939c; stroke-width: 0px;"/>
            <circle cx="466.55" cy="1036.27" r="12.21" style="fill: #71939c; stroke-width: 0px;"/>
            <circle cx="507.7" cy="1036.27" r="11.18" style="fill: #71939c; stroke-width: 0px;"/>
            <circle cx="548.85" cy="1036.27" r="10.04" style="fill: #71939c; stroke-width: 0px;"/>
            <circle cx="590" cy="1036.27" r="8.9" style="fill: #71939c; stroke-width: 0px;"/>
            <path d="m631.15,1044.03c4.29,0,7.76-3.47,7.76-7.76s-3.47-7.76-7.76-7.76-7.76,3.47-7.76,7.76,3.47,7.76,7.76,7.76Z" style="fill: #71939c; stroke-width: 0px;"/>
            <path d="m672.3,1042.89c3.66,0,6.62-2.96,6.62-6.62s-2.96-6.62-6.62-6.62-6.62,2.96-6.62,6.62,2.96,6.62,6.62,6.62Z" style="fill: #71939c; stroke-width: 0px;"/>
            <circle cx="713.45" cy="1036.27" r="5.48" style="fill: #71939c; stroke-width: 0px;"/>
            <circle cx="754.6" cy="1036.27" r="4.34" style="fill: #71939c; stroke-width: 0px;"/>
            <path d="m795.75,1039.47c1.77,0,3.2-1.43,3.2-3.19s-1.43-3.19-3.2-3.19-3.19,1.43-3.19,3.19,1.43,3.19,3.19,3.19Z" style="fill: #71939c; stroke-width: 0px;"/>
            <path d="m836.91,1038.21c1.07,0,1.94-.87,1.94-1.94s-.87-1.94-1.94-1.94-1.94.87-1.94,1.94.87,1.94,1.94,1.94Z" style="fill: #71939c; stroke-width: 0px;"/>
            <path d="m878.06,1037.07c.44,0,.8-.36.8-.8s-.36-.8-.8-.8-.8.36-.8.8.36.8.8.8Z" style="fill: #71939c; stroke-width: 0px;"/>
            <path d="m13.89,1087.92c5.8,0,10.5-4.7,10.5-10.5s-4.7-10.5-10.5-10.5-10.5,4.7-10.5,10.5,4.7,10.5,10.5,10.5Z" style="fill: #71939c; stroke-width: 0px;"/>
            <circle cx="55.04" cy="1077.43" r="11.41" style="fill: #71939c; stroke-width: 0px;"/>
            <path d="m96.19,1089.75c6.81,0,12.32-5.52,12.32-12.32s-5.52-12.32-12.32-12.32-12.32,5.52-12.32,12.32,5.52,12.32,12.32,12.32Z" style="fill: #71939c; stroke-width: 0px;"/>
            <path d="m137.34,1090.55c7.25,0,13.12-5.87,13.12-13.12s-5.87-13.12-13.12-13.12-13.12,5.88-13.12,13.12,5.88,13.12,13.12,13.12Z" style="fill: #71939c; stroke-width: 0px;"/>
            <circle cx="178.49" cy="1077.43" r="13.81" style="fill: #71939c; stroke-width: 0px;"/>
            <path d="m219.64,1091.69c7.88,0,14.26-6.39,14.26-14.26s-6.39-14.26-14.26-14.26-14.26,6.39-14.26,14.26,6.39,14.26,14.26,14.26Z" style="fill: #71939c; stroke-width: 0px;"/>
            <circle cx="260.8" cy="1077.43" r="14.38" style="fill: #71939c; stroke-width: 0px;"/>
            <path d="m301.95,1091.69c7.88,0,14.26-6.39,14.26-14.26s-6.39-14.26-14.26-14.26-14.26,6.39-14.26,14.26,6.39,14.26,14.26,14.26Z" style="fill: #71939c; stroke-width: 0px;"/>
            <circle cx="343.1" cy="1077.43" r="13.81" style="fill: #71939c; stroke-width: 0px;"/>
            <circle cx="384.25" cy="1077.43" r="13.24" style="fill: #71939c; stroke-width: 0px;"/>
            <circle cx="425.4" cy="1077.43" r="12.44" style="fill: #71939c; stroke-width: 0px;"/>
            <path d="m466.55,1088.95c6.37,0,11.53-5.16,11.53-11.52s-5.16-11.53-11.53-11.53-11.52,5.16-11.52,11.53,5.16,11.52,11.52,11.52Z" style="fill: #71939c; stroke-width: 0px;"/>
            <circle cx="507.7" cy="1077.43" r="10.61" style="fill: #71939c; stroke-width: 0px;"/>
            <path d="m548.85,1087.01c5.29,0,9.59-4.29,9.59-9.58s-4.29-9.59-9.59-9.59-9.59,4.29-9.59,9.59,4.29,9.58,9.59,9.58Z" style="fill: #71939c; stroke-width: 0px;"/>
            <circle cx="590" cy="1077.43" r="8.44" style="fill: #71939c; stroke-width: 0px;"/>
            <path d="m631.15,1084.84c4.1,0,7.42-3.32,7.42-7.42s-3.32-7.42-7.42-7.42-7.42,3.32-7.42,7.42,3.32,7.42,7.42,7.42Z" style="fill: #71939c; stroke-width: 0px;"/>
            <circle cx="672.3" cy="1077.43" r="6.28" style="fill: #71939c; stroke-width: 0px;"/>
            <circle cx="713.45" cy="1077.43" r="5.13" style="fill: #71939c; stroke-width: 0px;"/>
            <path d="m754.6,1081.42c2.21,0,3.99-1.79,3.99-3.99s-1.79-3.99-3.99-3.99-3.99,1.79-3.99,3.99,1.79,3.99,3.99,3.99Z" style="fill: #71939c; stroke-width: 0px;"/>
            <path d="m795.75,1080.28c1.58,0,2.85-1.28,2.85-2.85s-1.28-2.85-2.85-2.85-2.85,1.28-2.85,2.85,1.28,2.85,2.85,2.85Z" style="fill: #71939c; stroke-width: 0px;"/>
            <path d="m836.91,1079.14c.95,0,1.71-.77,1.71-1.71s-.77-1.71-1.71-1.71-1.71.77-1.71,1.71.77,1.71,1.71,1.71Z" style="fill: #71939c; stroke-width: 0px;"/>
          </g>
        </g>
      </g>
    </g>
  </g>
</svg>