<?xml version="1.0" encoding="UTF-8"?>
<svg id="Layer_2" data-name="Layer 2" xmlns="http://www.w3.org/2000/svg" viewBox="0 0 264.01 114.82">
  <g id="Butoes">
    <g>
      <rect x="4" y="3.76" width="256" height="17.1" style="stroke-width: 0px;"/>
      <rect x="4" y="3.76" width="256" height="90.21" style="fill: #fff; stroke-width: 0px;"/>
      <rect x="4" y="93.97" width="256" height="17.1" style="fill: #818181; stroke-width: 0px;"/>
      <path d="m0,0h264.01v97.72H0V0Zm260,93.97V3.76H4v90.21h256" style="stroke-width: 0px;"/>
      <rect y="97.72" width="264.01" height="17.1" style="stroke-width: 0px;"/>
      <g>
        <path d="m47.97,77.18l-9.36-24.56v24.56h-10.56V23.82h11.44c3.92,0,8.24.32,11.6,2.56,4.24,2.8,6.32,8,6.32,12.96,0,6.08-2.4,10.4-7.6,13.6l9.28,24.24h-11.12Zm-9.36-30.4c.56.08,1.2.08,1.76.08,4.56,0,6.8-3.12,6.8-7.44s-1.92-7.28-6.56-7.28h-2v14.64Z" style="stroke-width: 0px;"/>
        <path d="m64.68,77.18V23.82h21.2v9.92h-10.64v11.52h9.36v10.08h-9.36v12h10.8v9.84h-21.36Z" style="stroke-width: 0px;"/>
        <path d="m113.88,35.9c-2.16-1.84-4.64-3.44-7.6-3.44-3.12,0-5.28,2.08-5.28,5.2,0,9.2,16,9.04,16,23.92,0,9.2-5.52,16.48-15.2,16.48-3.28,0-6.48-.88-9.2-2.72v-10.08c2.4,1.6,4.88,2.88,7.84,2.88,3.6,0,6.24-2.24,6.24-5.92,0-.96-.16-1.84-.56-2.72-.96-2-3.92-3.76-5.68-4.96-6-4.16-9.84-8-9.84-15.76,0-8.4,4.88-15.76,13.92-15.76,3.6,0,6.24.8,9.36,2.56v10.32Z" style="stroke-width: 0px;"/>
        <path d="m136.6,33.58v43.6h-10.56v-43.6h-8.24v-9.76h27.04v9.76h-8.24Z" style="stroke-width: 0px;"/>
        <path d="m167.89,77.18l-2-8.96h-10.64l-1.92,8.96h-10.56l12.48-53.36h11.04l12.8,53.36h-11.2Zm-3.6-17.2c-1.12-5.12-2.24-10.16-3.04-15.36-.32-2.32-.64-4.72-.88-7.04-.48,7.52-2,14.96-3.52,22.4h7.44Z" style="stroke-width: 0px;"/>
        <path d="m202.2,77.18l-9.36-24.56v24.56h-10.56V23.82h11.44c3.92,0,8.24.32,11.6,2.56,4.24,2.8,6.32,8,6.32,12.96,0,6.08-2.4,10.4-7.6,13.6l9.28,24.24h-11.12Zm-9.36-30.4c.56.08,1.2.08,1.76.08,4.56,0,6.8-3.12,6.8-7.44s-1.92-7.28-6.56-7.28h-2v14.64Z" style="stroke-width: 0px;"/>
        <path d="m231.88,33.58v43.6h-10.56v-43.6h-8.24v-9.76h27.04v9.76h-8.24Z" style="stroke-width: 0px;"/>
      </g>
    </g>
  </g>
</svg>