<?xml version="1.0" encoding="UTF-8"?>
<svg id="Layer_2" data-name="Layer 2" xmlns="http://www.w3.org/2000/svg" viewBox="0 0 813.66 534.78">
  <g id="Butoes">
    <g>
      <path d="m794.17,0H.07l.8,472.48-.87,62.3h792.46l21.2-62.3L794.17,0Zm15.3,468.65H4.9l-.74-392.62h766.07l20.16-72.38,19.09,465Z" style="stroke-width: 0px;"/>
      <polygon points="790.38 3.65 809.47 468.65 4.89 468.65 4.01 3.65 790.38 3.65" style="fill: #e45525; stroke: #000; stroke-miterlimit: 10; stroke-width: 4px;"/>
      <g>
        <path d="m722.72,191.54s.01-.02.02-.03c.02-.04.04-.09.06-.13.03-.07.07-.13.1-.2.12-.26.24-.52.35-.79.08-.18.15-.37.22-.55.02-.04.03-.09.05-.13.02-.04.03-.08.05-.12.1-.27.19-.55.28-.83.09-.28.17-.56.24-.85l4.56-17.32s-.02.07-.03.11c.11-.39.21-.79.29-1.2.38-1.87.53-3.87.46-6.03-.07-1.97-.38-3.91-.89-5.76-.52-1.85-1.24-3.61-2.16-5.25-.91-1.64-2.01-3.14-3.27-4.47-1.26-1.33-2.68-2.49-4.24-3.44-1.35-.82-2.78-1.47-4.26-1.97-1.48-.5-3.01-.87-4.56-1.13-1.55-.26-3.11-.42-4.65-.51-1.54-.09-3.07-.12-4.54-.12h-18.09l-2.22,19.33.49,74.45h17.73l4.41-17.06-.03-.84,7.88,17.9h18.69l4.61-17.06-11.54-26.01Zm-3.26-11.33s0,0,0,0c0,0,0,0,0,0,0,0,0,0,0,0Zm5.58-2.54c.1-.13.21-.25.31-.38-.03.04-.06.08-.09.12-.05.07-.11.13-.16.19-.02.02-.04.04-.05.06Zm2.2-3.37c.06-.11.11-.22.16-.34-.02.04-.03.08-.05.12-.04.07-.08.14-.11.22Zm.04-7.61c.03-.35.05-.7.07-1.06-.02.36-.04.71-.07,1.06Zm-.19,1.52c.05-.31.09-.62.13-.94-.04.32-.08.63-.13.94Zm-.17.98c-.04.17-.08.33-.12.49.07-.29.14-.59.2-.89-.03.13-.04.27-.07.4Zm-5.12,9.1s-.04.04-.07.06c-.11.1-.23.2-.34.3-.16.15-.32.29-.49.44l1.23-2.98c.12.49.23.99.32,1.5-.22.23-.43.46-.66.68Zm-4.67,3.48l-.7.4-4.49,17.26,7.21,16.27h-2.38l-11.18-25.35s.02-.01.03-.02c0,0,.01,0,.02-.01.02-.01.03-.02.05-.03.17-.12.33-.25.48-.38.16-.13.31-.27.45-.41.06-.06.11-.12.17-.18.03-.03.05-.06.08-.08.06-.06.12-.12.17-.18.15-.16.29-.33.42-.5.13-.17.25-.34.37-.51,0,0,0,0,0,0,0,0,0,0,0,0,0,0,0,0,0,0,.12-.18.24-.37.35-.57.01-.02.02-.04.03-.07.04-.07.07-.14.11-.21.06-.11.12-.22.17-.33.03-.06.06-.13.08-.19.02-.04.04-.09.06-.13.02-.04.04-.09.06-.13.06-.15.12-.31.18-.47.01-.03.02-.06.03-.09.01-.04.03-.08.04-.12.03-.09.06-.18.09-.26.05-.16.1-.33.14-.5l4.47-17.33c.02-.07.03-.14.04-.21.03-.13.06-.25.08-.38.02-.11.05-.23.07-.34.02-.11.03-.23.05-.35.02-.13.04-.27.06-.4,0-.08.02-.15.03-.23.02-.18.02-.36.04-.54,0-.12.02-.24.02-.37,0-.04,0-.08,0-.12,0-.19,0-.38,0-.57,1.1.75,2.12,1.62,3.04,2.6,1.14,1.21,2.13,2.59,2.96,4.08.56,1.01,1.04,2.08,1.43,3.2-1.2,2.13-2.63,4.69-4.36,7.79Zm-11.82-6.95c-.05,0-.1.02-.16.03-.05,0-.11.01-.17.02-.03,0-.06,0-.08,0,.14-.01.27-.03.41-.05Zm-2.93-2.49c.56.2,1.08.44,1.55.74-.23.01-.46.03-.7.03-.13,0-.27,0-.4,0-.14,0-.27,0-.41,0-.14,0-.28,0-.41,0-.14,0-.27,0-.41-.01l-.03-.98c.28.07.56.15.82.24Zm25.71.08s-.03.09-.05.13c-.02.06-.05.11-.07.17.05-.12.1-.23.14-.35,0,.02-.01.03-.02.05Zm-.71-7.29c.01-.53.01-1.08,0-1.63.02.56.02,1.1,0,1.63Zm-26.33,50.57h-13.83l-1.87-55.52h11.12c.16,0,.32,0,.47,0l-2.44,9.72h2.52l-.47,1.85h1.98c.35,0,.68.01,1.01.03l.1,2.94-4.38,17.3.64.09-.56,2.21,3.11,7.06-.78,3.04,3.24,7.36.13,3.91Z" style="stroke-width: 0px;"/>
        <path d="m677.94,172.42c-.26-2.41-.64-4.95-1.23-7.49-.59-2.54-1.39-5.08-2.47-7.53-1.08-2.44-2.44-4.78-4.16-6.9-1.35-1.66-2.88-3.17-4.56-4.49-1.67-1.32-3.48-2.46-5.38-3.4-1.9-.93-3.88-1.66-5.9-2.15-2.02-.49-4.07-.75-6.11-.75s-4.17.26-6.19.75c-2.02.49-3.97,1.22-5.81,2.15-1.84.93-3.56,2.07-5.13,3.4-1.56,1.32-2.96,2.83-4.15,4.5-1.56,2.15-2.77,4.47-3.69,6.87-.68,1.77-1.2,3.58-1.61,5.41,0-.03.01-.07.02-.1h0s0,0,0,0l-3.89,17.36c-.13.57-.24,1.15-.34,1.72,0-.74-.01-1.5-.03-2.26-.18-6.1-1.08-11.21-2.43-15.5-1.35-4.28-3.15-7.74-5.15-10.53-2-2.79-4.2-4.91-6.35-6.53-2.15-1.61-4.24-2.71-6.02-3.46-1.43-.61-2.82-1.09-4.2-1.45-1.38-.36-2.74-.62-4.11-.8-1.36-.18-2.73-.28-4.11-.34-1.38-.06-2.78-.07-4.21-.07h-14.26l-1.51,19.33.08,74.45h16.37c.99,0,1.95-.03,2.9-.09.31-.02.61-.05.91-.08.5-.04,1-.07,1.49-.13.13-.01.25-.04.38-.06.35-.04.69-.1,1.03-.15.55-.08,1.09-.17,1.62-.28.35-.07.69-.15,1.03-.23.26-.06.53-.11.79-.17.24-.06.47-.14.71-.21.18-.05.38-.09.55-.14.15-.04.28-.1.43-.15.49-.15.96-.32,1.44-.49.3-.11.61-.22.9-.34.12-.05.24-.08.35-.13.37-.16.73-.34,1.09-.51.25-.12.51-.23.75-.35.61-.31,1.2-.65,1.77-1,.09-.06.19-.1.28-.16,0,0,.02,0,.03-.02.5-.31.98-.64,1.45-.98.11-.08.21-.17.32-.25.07-.05.14-.09.2-.14.09-.07.18-.15.27-.23.19-.15.39-.3.58-.45.26-.22.5-.45.75-.68.12-.11.25-.22.37-.33.05-.05.11-.1.17-.15.42-.4.82-.82,1.21-1.25.04-.05.08-.1.12-.15.14-.15.26-.31.39-.47.25-.29.51-.58.75-.89.1-.13.19-.28.3-.41.16-.21.31-.42.46-.64.13-.19.28-.37.41-.57.16-.25.31-.51.47-.77.09-.14.18-.27.27-.41.05-.08.08-.16.13-.24.06-.11.13-.21.19-.31.27-.47.52-.97.76-1.47.05-.11.11-.21.16-.31,0-.02.02-.04.03-.06.28-.59.54-1.19.79-1.8.04-.11.08-.22.12-.33.08-.21.16-.43.24-.64.11-.31.24-.61.34-.92.09-.28.17-.57.26-.85.07-.24.15-.47.22-.71.04-.14.09-.28.13-.43.19-.68.36-1.37.52-2.08l3.86-17.19s-.01.04-.02.07c.12-.54.23-1.08.34-1.63,0,.11,0,.23,0,.34,0,1.33.01,2.63.05,3.88.06,2.04.18,4.31.42,6.7.25,2.39.62,4.9,1.21,7.42.58,2.52,1.37,5.05,2.44,7.48,1.07,2.43,2.42,4.76,4.13,6.88,1.35,1.68,2.89,3.2,4.56,4.54,1.67,1.34,3.48,2.49,5.37,3.44,1.89.94,3.87,1.68,5.87,2.17,2.01.5,4.04.76,6.06.76.57,0,1.14-.02,1.7-.06.18-.01.36-.03.55-.05.39-.04.77-.08,1.15-.13.08-.01.17-.02.25-.03.13-.02.25-.05.37-.07.36-.06.72-.13,1.08-.2.21-.04.42-.09.62-.14.12-.03.24-.05.36-.08.25-.06.49-.14.74-.21.13-.04.27-.07.4-.1.05-.02.1-.04.15-.05.46-.14.93-.3,1.38-.46.08-.03.16-.05.23-.08.53-.2,1.06-.42,1.58-.65.03-.01.06-.03.1-.04.12-.05.24-.12.35-.18.28-.13.55-.26.83-.4.09-.05.17-.1.26-.15.18-.1.37-.2.55-.3.32-.18.64-.37.95-.56.1-.06.2-.11.29-.17.09-.05.17-.12.25-.17.31-.2.61-.4.9-.61.11-.08.23-.15.35-.24.05-.04.1-.08.16-.12.33-.25.66-.5.98-.77.1-.08.2-.15.3-.24.02-.02.04-.04.06-.05.02-.02.05-.04.07-.06.41-.35.8-.71,1.19-1.08.01-.01.02-.02.03-.03.07-.07.14-.15.21-.22.32-.32.63-.64.94-.97.04-.04.08-.08.12-.12.15-.17.3-.34.45-.51.09-.11.18-.21.27-.32.03-.03.05-.06.08-.1.03-.04.06-.07.09-.11.14-.18.28-.36.42-.54.14-.18.27-.36.41-.55.26-.36.51-.73.75-1.09.03-.04.05-.08.07-.12.09-.13.16-.27.25-.4.12-.2.25-.4.37-.6.05-.08.09-.16.14-.25.03-.06.07-.12.11-.18.05-.1.1-.2.16-.29.08-.14.16-.28.23-.42.07-.13.13-.26.2-.39.08-.16.16-.32.24-.49.05-.1.1-.19.14-.28.06-.12.11-.25.16-.37.08-.17.16-.34.24-.51.06-.14.12-.29.18-.43.04-.1.09-.21.14-.31.04-.1.07-.2.11-.3.13-.32.25-.65.37-.97.05-.13.1-.25.14-.38.02-.07.04-.14.07-.21.03-.08.06-.16.09-.25.09-.27.17-.55.26-.82.04-.13.09-.26.13-.4.01-.04.02-.07.03-.11.15-.52.29-1.04.42-1.57,0,0,0-.01,0-.02l4.24-17.18c-.03.12-.06.23-.09.35.29-1.13.53-2.26.73-3.4.43-2.49.66-4.98.76-7.4.1-2.42.07-4.76,0-6.95-.07-2.06-.19-4.36-.45-6.77Zm-62.61,10.4c.02-1.11.01-2.21-.02-3.3.03,1.09.04,2.19.02,3.3Zm-3.87,13.97c.03,1.14.04,2.29.02,3.46,0,.37-.04.74-.05,1.11-.19.38-.38.75-.58,1.12-.09.16-.19.32-.28.49-.2.34-.4.68-.61,1.01-.08.13-.17.25-.25.38-.04.06-.08.13-.13.19-.2.3-.41.6-.63.89-.05.06-.09.12-.14.19-.09.12-.18.24-.28.36-.24.31-.49.61-.75.9-.13.15-.26.31-.4.46-.16.17-.32.34-.49.51-.04.04-.09.09-.13.13-.16.16-.32.33-.48.48-.17.16-.35.32-.53.48-.05.04-.09.08-.14.12-.17.15-.35.31-.53.46-.18.15-.38.3-.57.44-.05.04-.1.08-.15.11-.19.14-.37.29-.57.43-.2.14-.41.28-.61.41-.05.04-.11.07-.16.11-.2.13-.39.26-.59.39-.38.24-.78.46-1.19.68-.13.07-.26.15-.4.22-.05.03-.1.05-.15.07-.49.25-.99.49-1.51.71-.15.06-.3.12-.45.18-.01,0-.03.01-.04.02-.43.17-.86.34-1.31.5-.12.04-.25.09-.38.13-.14.05-.29.09-.44.14-.4.13-.8.25-1.22.36-.04.01-.08.02-.11.03-.25.07-.5.13-.76.19-.31.08-.64.14-.96.21,0,0,0,0,0,0,.05-.07.1-.14.15-.21.15-.22.28-.46.41-.69.06-.1.12-.2.18-.3.01-.03.03-.05.05-.08.2-.36.39-.73.57-1.11,0-.02.02-.04.03-.06,0-.02.02-.03.03-.05.12-.25.22-.52.33-.77.08-.18.17-.36.24-.55,0-.01.01-.03.02-.04.12-.3.22-.59.32-.89.06-.18.13-.35.19-.53,0-.01,0-.02,0-.03,0,0,0-.02.01-.03.1-.32.19-.64.28-.96.04-.16.1-.31.14-.46,0,0,0-.01,0-.02.13-.49.25-.98.36-1.46,1.25-5.74,2.51-11.48,3.76-17.22.02-.09.03-.19.05-.28.02-.09.04-.18.06-.27.04-.19.07-.37.1-.56.04-.23.09-.46.13-.69.05-.28.09-.55.12-.82.02-.15.05-.31.07-.46,0-.07.01-.13.02-.2.03-.27.06-.53.09-.79.02-.21.05-.42.07-.62.02-.26.04-.51.06-.76.01-.15.03-.3.04-.44,0-.04,0-.08,0-.12,0-.04,0-.08,0-.11.01-.21.02-.41.03-.61,0-.16.02-.33.02-.48,0-.24.01-.46.02-.68,0-.11,0-.24,0-.35,0-.02,0-.03,0-.05,0-.23,0-.43,0-.63,0-.09,0-.2,0-.28,0-.28,0-.52-.01-.74-.02-.6-.05-1.32-.11-2.12-.06-.8-.15-1.69-.28-2.63-.13-.94-.29-1.95-.51-2.99-.21-1.04-.48-2.11-.8-3.19-.21-.69-.45-1.39-.71-2.09,1.8,1.45,3.62,3.3,5.29,5.67,1.87,2.64,3.55,5.92,4.81,9.99,1.26,4.07,2.09,8.93,2.27,14.74Zm-13.71.12s0,0,0,0c-.06.1-.13.21-.19.31.07-.1.13-.21.19-.32Zm-1.16,1.69c.17-.22.34-.43.5-.66-.03.04-.06.08-.09.12-.13.18-.27.36-.41.53Zm-.86,1c-.18.19-.35.4-.54.58.19-.18.36-.39.54-.58,0,0,0,0,0,0Zm-9.84-25.09c.5.28,1.01.61,1.53,1.02,1.78,1.36,3.19,3.07,4.29,4.95,1.11,1.88,1.91,3.93,2.5,5.94.59,2.02.96,4.01,1.19,5.78.21,1.63.31,3.06.34,4.17-.58.9-1.24,1.73-2.01,2.47-.52.5-1.07.93-1.65,1.31s-1.2.7-1.84.95c-.65.26-1.32.46-2.03.6-.71.14-1.45.22-2.22.24l-.8-27.78c.23.1.46.22.7.34Zm29,14.7c.02-.16.04-.31.06-.47-.02.16-.04.31-.06.47Zm-.45,2.89c-.06.31-.13.62-.19.93.07-.35.15-.7.21-1.05,0,.04-.01.08-.02.12Zm-1.12,9.78c.07-.15.14-.3.21-.45-.03.07-.06.16-.1.23-.04.08-.08.15-.12.22Zm1.86-15.73c.05-.76.08-1.52.11-2.27-.02.76-.05,1.51-.11,2.27Zm-38.03-25.99c1.41,0,2.76.01,4.08.06.02,0,.03,0,.04,0l-2.31,11.07,1.03.03c.48.02.94.04,1.39.08l-.38,1.82c.62.04,1.2.11,1.75.21.14.02.27.06.41.09l.87,30.3-2.53,11.85h-10.96l-1.55-55.52h8.16Zm98.91,39.61c-.07.2-.14.4-.21.6-.01.04-.03.08-.04.12.12-.33.24-.66.35-.99-.03.09-.06.19-.09.28Zm-.83,2.19c-.04.09-.08.18-.12.27.14-.32.28-.65.41-.98-.01.03-.02.06-.04.1-.08.21-.17.41-.25.61Zm-54.92-26.67c0-.91.03-1.83.07-2.76-.04,1.05-.06,2.09-.07,3.11,0-.12,0-.23,0-.34Zm0,.82c0,.42.01.83.02,1.25v.05c-.02-.43-.02-.86-.02-1.3Zm4.16-16.43c-.03.1-.07.2-.1.3.04-.11.08-.22.11-.33,0,.01,0,.02-.01.04Zm-.66,2.28c.03-.11.05-.23.08-.34-.03.11-.05.23-.08.34Zm3.65-8.8c-.03.05-.07.11-.1.16.06-.09.11-.19.17-.28-.02.04-.05.08-.07.12Zm36.86,15.86c1.62,2,2.9,4.22,3.92,6.54,1.02,2.33,1.77,4.76,2.33,7.19.56,2.43.92,4.86,1.16,7.19.24,2.32.36,4.53.42,6.52.04,1.28.07,2.61.06,3.98,0,1.1-.04,2.24-.1,3.38-.19.34-.38.69-.58,1.02-.07.12-.15.25-.22.37-.03.04-.05.08-.07.12-.3.47-.61.94-.94,1.4-.27.37-.55.73-.83,1.08-.09.12-.2.23-.29.34-.19.23-.39.46-.59.68-.3.32-.6.64-.91.95-.02.02-.03.03-.05.05-.11.1-.21.2-.32.31-.21.2-.42.38-.64.57-.38.34-.78.66-1.19.98-.14.11-.28.22-.42.33-.49.37-1,.71-1.52,1.04-.11.07-.21.14-.32.2-.05.03-.11.06-.17.1-.47.28-.95.55-1.44.81-.19.1-.38.19-.58.29-.45.22-.9.42-1.36.61-.18.07-.35.15-.53.22-.59.23-1.19.44-1.8.62-.13.04-.27.08-.4.11-.55.16-1.11.29-1.68.41-.2.04-.41.08-.62.11-.17.03-.34.05-.5.07.04-.07.09-.14.12-.21.04-.07.07-.14.11-.21.07-.14.15-.28.22-.43.04-.08.09-.16.13-.25.03-.07.06-.14.09-.21.04-.08.08-.16.12-.24.02-.06.04-.12.07-.18.07-.15.14-.3.2-.45.15-.37.29-.75.42-1.14.02-.06.03-.12.05-.17.03-.08.05-.17.08-.25.08-.25.16-.5.24-.76.11-.4.22-.81.32-1.22l4.14-17.19h0s0,0,0,0c.02-.08.03-.17.05-.25.06-.27.11-.54.17-.81.06-.27.12-.53.17-.81.02-.12.04-.25.06-.38.05-.29.09-.57.14-.86.03-.23.08-.45.11-.68.02-.17.04-.34.06-.5.04-.29.07-.58.1-.88.04-.4.08-.79.12-1.19.01-.16.03-.31.05-.47.01-.13.01-.26.02-.4.01-.14.03-.29.04-.43.02-.26.02-.51.04-.76.01-.28.03-.55.04-.83.02-.41.03-.81.04-1.21,0-.25.01-.51.02-.76,0-.06,0-.13,0-.2h0c0-.37,0-.72,0-1.07,0-.2,0-.41,0-.61,0-.03,0-.06,0-.09,0-.58-.02-1.14-.04-1.68-.02-.64-.05-1.31-.09-2-.01-.22-.03-.44-.04-.66-.03-.49-.06-.97-.11-1.48,0-.09-.01-.18-.02-.27-.02-.19-.04-.38-.06-.57-.04-.46-.09-.93-.15-1.4-.04-.3-.08-.61-.12-.92-.03-.25-.06-.49-.09-.74-.03-.21-.07-.43-.11-.65-.03-.18-.05-.36-.08-.54-.02-.13-.05-.27-.08-.4-.08-.47-.17-.93-.27-1.4-.06-.3-.12-.61-.19-.91-.11-.49-.23-.98-.36-1.46-.06-.21-.1-.43-.16-.64-.01-.05-.03-.1-.05-.15-.01-.05-.03-.1-.04-.16.16.12.33.24.49.37,1.54,1.22,2.96,2.61,4.2,4.15Zm9.93,35.04s-.05.09-.07.13c.19-.38.38-.76.56-1.14-.08.17-.16.35-.24.52-.08.16-.16.33-.24.49Zm-.7,1.29c-.09.16-.19.32-.29.48.22-.36.43-.73.63-1.09-.03.05-.05.09-.08.14-.09.16-.17.32-.26.48Zm-47.3-5.22c-.77-1.75-1.38-3.57-1.88-5.4-.16-.61-.32-1.22-.46-1.83-.42-1.83-.72-3.66-.95-5.44-.08-.59-.14-1.18-.2-1.76-.24-2.32-.35-4.53-.41-6.52-.03-.96-.04-1.96-.05-2.97,0-.16,0-.32,0-.49,0-.98.02-1.99.06-3,0-.02,0-.05,0-.07.13-.27.27-.53.41-.79.07-.14.15-.27.23-.4.17-.3.35-.59.53-.89.08-.12.15-.25.23-.37.26-.4.53-.81.81-1.2.26-.37.54-.73.82-1.08.02-.03.05-.05.07-.08.25-.3.51-.6.77-.89.27-.29.55-.58.83-.86.08-.08.15-.16.23-.23.37-.35.75-.69,1.14-1.02.11-.09.22-.17.33-.26.29-.23.58-.46.88-.68.15-.11.31-.22.47-.33.27-.19.53-.37.81-.55.17-.11.34-.21.51-.31.29-.18.59-.35.89-.52.17-.1.34-.19.52-.28.32-.17.65-.33.98-.48.15-.07.31-.15.46-.22.48-.21.96-.41,1.45-.6,0,0,.02,0,.03-.01.5-.19,1-.35,1.51-.51.16-.05.32-.09.48-.14.35-.1.7-.19,1.06-.28.19-.04.38-.08.57-.12.16-.03.32-.06.48-.09,0,0,0,.01,0,.02-.06.13-.12.26-.18.39-.02.06-.05.11-.08.17-.02.04-.03.08-.04.11-.04.09-.08.18-.12.28-.01.03-.03.06-.04.08,0,0,0,.01,0,.02-.14.36-.28.73-.4,1.11-.01.03-.03.07-.04.1-.02.07-.05.15-.07.23,0,.02,0,.03-.01.05-.02.06-.04.13-.06.19-.02.08-.05.15-.07.23-.02.07-.03.14-.05.21-.04.13-.08.25-.11.37-.12.43-.23.88-.33,1.32h0s-3.99,17.36-3.99,17.36c0,0,0,0,0,0h0c-.27,1.19-.49,2.43-.65,3.68-.17,1.25-.28,2.5-.36,3.74-.08,1.24-.12,2.46-.13,3.63-.01,1.17,0,2.3.04,3.35.07,2.38.26,5.16.66,8,.37,2.6.93,5.24,1.75,7.66-.36-.26-.72-.53-1.07-.81-1.56-1.25-3-2.67-4.27-4.25-.41-.51-.79-1.02-1.16-1.55-1.1-1.59-2.02-3.29-2.78-5.04Zm28.6,3.08s-.09.05-.13.08c0,0,0,0,0,0,.11-.07.22-.14.32-.21-.04.02-.07.05-.1.07-.03.02-.05.04-.08.05Zm-2.35,1s.01,0,.02,0c0,0,0,0-.01,0,0,0,0,0,0,0Zm3.88-2.24s.02-.02.03-.03c-.01.01-.02.02-.03.03,0,0,0,0,0,0Zm1.08-1.26s-.04.05-.06.08c.03-.04.06-.07.08-.11,0,0-.01.02-.02.03Zm-20.38-25.23c0-.08,0-.17,0-.25,0,.44,0,.87,0,1.29,0-.34,0-.68,0-1.04Zm0,1.61c0,.38.01.73.02,1.09h0c0-.36-.02-.72-.02-1.09Zm2-1.76c.05-.06.1-.12.15-.18.1-.12.2-.25.31-.37.03-.04.07-.07.1-.1.14-.15.29-.29.44-.43.03-.03.07-.06.1-.09.17-.15.35-.29.54-.42.04-.03.08-.06.12-.08.12-.08.25-.16.37-.23.14-.09.29-.16.44-.24.1-.05.2-.1.31-.14.16-.07.32-.12.49-.18.1-.03.21-.07.32-.1.19-.05.38-.09.58-.12.1-.02.19-.04.28-.05.3-.04.6-.06.92-.06,2.3,0,4.12,1.03,5.55,2.69,1.44,1.66,2.5,3.94,3.28,6.45.78,2.51,1.28,5.23,1.6,7.78.32,2.55.46,4.91.51,6.68.03.88.05,1.9.04,3.02,0,.26-.01.55-.02.82-1.34,1.65-3.1,2.68-5.4,2.68s-4.15-1.04-5.6-2.71c-1.45-1.67-2.52-3.98-3.3-6.5-.78-2.53-1.28-5.28-1.6-7.84-.32-2.56-.46-4.94-.51-6.73-.03-1-.04-2.21-.03-3.51Zm12.27,29.1c.06,0,.11-.02.17-.02-.05,0-.09.02-.14.02,0,0-.02,0-.03,0Zm5.56-3.04s-.03.04-.05.06c-.03.03-.06.06-.08.09.04-.05.09-.1.13-.15Zm15.36,5.97h0c.23-.34.46-.67.67-1.01-.05.08-.1.17-.16.26-.16.25-.34.5-.51.76Zm-45.79-52.51s.03-.06.05-.1c-.02.03-.03.06-.05.1Zm-.9,1.89c.09-.2.18-.41.28-.61-.09.2-.19.41-.28.61Zm49.57,38.88c.1-.44.2-.88.29-1.33-.09.44-.19.89-.29,1.33Zm.43-2.07c.08-.45.16-.9.22-1.35-.04.29-.08.57-.13.86-.03.16-.06.33-.09.49Zm.32-2.03c.08-.56.14-1.11.2-1.67-.06.56-.12,1.11-.2,1.67Zm.24-2c.07-.67.12-1.33.16-2-.04.66-.09,1.33-.16,2Zm.3-6.84c0-.2,0-.4,0-.6,0,.2,0,.4,0,.6Zm-.05,3c0,.08,0,.16,0,.24-.01.34-.04.68-.05,1.02.02-.42.04-.84.06-1.26Zm-51.28-27.81s-.02.06-.03.09c-.05.13-.1.26-.15.39.02-.07.04-.13.07-.2.04-.1.08-.19.12-.29Zm-4.02,7.23c.02-.09.03-.18.04-.28,0,0,0-.02,0-.02-.02.1-.03.2-.05.3Zm-.69,6.54c0-.15.01-.3.02-.46,0-.12.02-.23.03-.35-.02.27-.03.54-.05.81Zm.14-2.02c.02-.26.04-.53.07-.79-.03.26-.05.53-.07.79Zm.21-2.1c.02-.19.04-.38.06-.57,0-.05.01-.09.02-.14-.03.24-.06.47-.08.71Zm55.8,30.67c-.05.17-.11.34-.16.51,0,0,0,.02,0,.02.1-.33.2-.67.29-1.01-.04.16-.08.32-.13.47Z" style="stroke-width: 0px;"/>
        <path d="m476.29,174.19l-17.98,43.37-2.87,17.06h50.27l3.19-17.06-.4-15.94h-20.29l18.38-43.3,3.18-17.48h-49.34l-.85,19.33-1.66,14.02h18.38Zm4.71,29.3l-2.14,12.19h-13.42l17.95-43.35,2.12-12.17h13.88l-18.39,43.32Zm25.85,12.19h-2.56l2.26-12.19.3,12.19Z" style="stroke-width: 0px;"/>
        <path d="m524.43,234.62l2.54-12.54h14.24l3.31,12.54h18.75l3.55-17.06-21.73-76.72h-18.06l-17.2,76.72-3.19,17.06h17.79Zm8.86-46.01c.19.96.39,1.93.59,2.89h-1.14c.18-.96.36-1.92.55-2.89Zm16.21,27.07l-3.33-12.6h-4.14l1.92-9.71-.55-2.13c-.45-1.75-.9-3.47-1.34-5.18s-.86-3.4-1.27-5.1c-.41-1.69-.8-3.38-1.18-5.08-.37-1.7-.73-3.4-1.06-5.13-.13-.75-.26-1.53-.4-2.33-.14-.8-.27-1.62-.41-2.45-.14-.83-.27-1.68-.4-2.52-.13-.85-.25-1.69-.36-2.54l-1.99.04-3.34,17.37c-.11,2.6-.32,5.21-.6,7.82-.28,2.61-.64,5.22-1.04,7.82-.4,2.6-.85,5.2-1.32,7.78-.47,2.58-.97,5.15-1.46,7.7l-.21,1.11h.08l-1.04,5.12h-13.15l12.43-55.52h14.82l15.69,55.52h-6.36Z" style="stroke-width: 0px;"/>
        <path d="m647.1,260.78c-.05.16-.1.31-.15.46-.05.15-.1.3-.14.45-.05.15-.09.29-.14.44s-.09.29-.14.43c-.15.47-.29.93-.44,1.39s-.29.93-.43,1.42c-.15.49-.29,1-.44,1.55-.15.55-.31,1.14-.47,1.79-.24-.7-.49-1.41-.73-2.11-.25-.7-.5-1.4-.75-2.07-.25-.67-.49-1.33-.72-1.94-.23-.61-.45-1.19-.65-1.7l-6.65-17.03h-19.64l-3.87,16.92,20.96,44.13,1.02,32.96h17.81l4.13-16.49-.87-27.29,13.27-33.31,4.22-16.92h-19.99l-5.21,16.93Zm.84,4.02c-.13.42-.26.84-.39,1.28.1-.36.21-.7.31-1.04.02-.08.05-.16.08-.24Zm-.65,2.21c-.02.08-.05.17-.07.25.02-.06.03-.13.05-.19,0-.02.01-.04.02-.06Zm-.28,1.04c-.03.12-.06.25-.1.37.03-.12.06-.25.1-.37Zm-.31,1.21c-.04.14-.07.28-.11.43.02-.06.03-.13.05-.19.02-.08.04-.16.06-.24Zm6.91,50.2h-13.9l-.99-31.62-11.99-25.19h3.17l6.11,15.66c.28.73.6,1.57.93,2.48.33.91.69,1.88,1.04,2.86.35.99.7,1.99,1.03,2.96.33.97.64,1.92.92,2.78l1.13,3.62h0s0,0,0,0l2.61-10.77c.08-.27.16-.55.25-.81.15-.49.3-.97.46-1.46.04-.14.09-.28.14-.43.05-.14.09-.29.14-.44s.09-.3.14-.45c.05-.15.1-.31.14-.47l4.78-15.53h12.92l-10.05,25.2-4.11,16.68,4.3-10.77.05,1.68-2.34,9.46,2.44-6.13.66,20.7Z" style="stroke-width: 0px;"/>
        <path d="m588.32,243.84l-16.43,74.71-.37-13.3h-16.63l-1.66-61.4h-17.85l-1.31,18.8-.04,75.21h51.53l2.85-12.67h13.97l3.36,12.67h18.84l3.96-16.49-22.07-77.52h-18.15Zm6.3,48.99c.15.73.3,1.46.45,2.19h-.86c.14-.73.27-1.46.41-2.19Zm16.51,26.62l-3.39-12.73h-4.51l2.25-9.81-.57-2.19c-.1-.36-.19-.72-.28-1.08-.31-1.19-.62-2.37-.92-3.54-.06-.25-.13-.5-.2-.76-.39-1.51-.76-3-1.13-4.49-.07-.27-.13-.54-.2-.82-.37-1.51-.72-3.02-1.06-4.53-.03-.14-.06-.28-.1-.43-.37-1.66-.72-3.33-1.04-5.02-.14-.8-.28-1.62-.42-2.45-.14-.82-.28-1.66-.42-2.49-.14-.83-.27-1.67-.4-2.51-.13-.83-.25-1.67-.36-2.49h0l-2,.04-3.75,16.81c-.1,2.63-.3,5.26-.58,7.9-.27,2.63-.62,5.27-1.02,7.9-.4,2.63-.84,5.25-1.31,7.86-.47,2.61-.95,5.21-1.44,7.78l-.21,1.13h.49l-1.33,5.91h-13.49l12.49-56.81h14.9l16.15,56.81h-6.17Zm-41.23,0h-3.01l2.67-12.32.34,12.32Zm-22.08-56.81l3.46-16.91,1.65,61.41-2.59,12.32h-10.98l-1.49-56.81h9.94Z" style="stroke-width: 0px;"/>
        <path d="m532.11,260.65c-.58-2.07-1.4-4.03-2.43-5.82-1.04-1.79-2.29-3.42-3.73-4.83-1.44-1.41-3.06-2.61-4.85-3.55-1.15-.61-2.26-1.07-3.37-1.43-1.1-.36-2.2-.61-3.32-.78-1.12-.17-2.27-.27-3.48-.33-1.21-.06-2.48-.07-3.85-.07h-20.21l-1.02,18.8-.21,75.21h17.81l3.19-16.49-.35-14.4c.38-.01.76-.02,1.13-.05.27-.02.52-.04.78-.07.37-.03.75-.05,1.12-.1.2-.02.39-.06.58-.09.14-.02.28-.02.41-.04.15-.02.29-.06.44-.08.53-.09,1.06-.19,1.57-.3.26-.05.51-.1.76-.17.11-.03.23-.05.34-.07.5-.13.98-.28,1.46-.43.11-.03.22-.06.33-.09.02,0,.03-.01.05-.02.64-.21,1.27-.44,1.88-.7.06-.02.11-.05.16-.08.19-.08.36-.17.55-.26.47-.22.93-.44,1.38-.68.09-.05.19-.09.28-.14.12-.07.24-.15.36-.23.19-.11.4-.22.59-.34.24-.15.48-.31.71-.47.07-.05.13-.09.19-.14.04-.03.08-.06.12-.09.12-.09.25-.18.37-.27.23-.17.45-.34.66-.52.22-.18.43-.36.64-.55.12-.11.25-.22.37-.34.12-.11.24-.23.36-.34s.23-.23.35-.35c.02-.02.03-.03.05-.05.01-.01.02-.02.03-.03.09-.09.17-.18.26-.28.18-.2.34-.41.51-.61.08-.09.16-.18.24-.27.02-.02.03-.05.05-.07.02-.03.04-.05.06-.08.28-.35.54-.72.79-1.09,0,0,0,0,0-.01.03-.05.06-.1.09-.15.21-.32.42-.65.61-.99.02-.04.04-.08.06-.12.02-.03.04-.06.06-.1.06-.11.11-.23.17-.35.11-.21.23-.42.34-.64.04-.08.07-.17.11-.25.07-.16.14-.32.21-.49.07-.16.14-.31.21-.47.06-.14.1-.29.16-.43.04-.1.08-.19.11-.28.03-.07.05-.15.07-.23.04-.1.08-.2.11-.31.07-.22.14-.46.2-.69.05-.15.09-.31.14-.46.01-.05.03-.1.05-.16.12-.44.22-.89.31-1.35l3.35-16.76c-.08.38-.17.75-.27,1.13.17-.68.33-1.37.44-2.09.26-1.63.37-3.35.32-5.14-.06-2.26-.39-4.45-.97-6.53Zm-.9,17.04c-.07.16-.14.33-.21.49-.09.19-.18.36-.27.54.24-.48.47-.98.67-1.49-.06.15-.12.31-.19.46Zm-4.15,1.14c.12.52.23,1.04.31,1.56-.22.3-.44.6-.69.88-.11.12-.21.25-.32.37-.41.45-.84.89-1.3,1.31-.49.44-1.01.85-1.55,1.23-.03.02-.07.05-.1.08-.44.31-.91.59-1.38.87-.2.11-.39.23-.59.34-.42.23-.86.44-1.3.64-.16.07-.32.16-.49.23-.62.26-1.25.5-1.91.71-.13.04-.27.08-.41.12-.53.16-1.08.31-1.64.45-.24.06-.48.1-.73.16-.44.09-.88.17-1.33.25.01-.04.03-.08.04-.13.05-.2.1-.41.14-.62l3.25-16.77c.05-.25.09-.52.13-.79,0-.01,0-.03,0-.04,0-.04,0-.09.01-.13.03-.22.05-.43.07-.66,0-.1,0-.21.01-.32,0-.1.01-.2.01-.3,0-.09.01-.17.01-.26,0-.3,0-.6,0-.92-.02-.67-.07-1.3-.14-1.9,1.81.99,3.35,2.21,4.65,3.59,1.37,1.46,2.46,3.09,3.33,4.8.86,1.71,1.49,3.5,1.91,5.27Zm2.57,1.81s-.06.09-.09.14c-.02.03-.05.06-.07.1.36-.54.7-1.1,1.01-1.68-.06.1-.11.21-.17.32-.22.38-.44.76-.68,1.12Zm-22.29-5.43c.32.11.61.24.89.39-.83.1-1.73.15-2.72.15l-.02-.96c.67.09,1.29.23,1.85.42Zm2.84,1.97s0,0,0,0c-.02,0-.04,0-.06.01-.07.02-.15.03-.23.04.1-.02.18-.04.28-.06Zm-1.09.21c-.13.02-.26.03-.39.05.26-.03.52-.07.77-.12-.13.02-.25.05-.38.07Zm-1.11.13c-.2.02-.42.03-.63.04.3-.02.6-.04.88-.07-.09,0-.17.02-.25.03Zm20.92,4.12c.12-.16.26-.31.37-.48-.12.18-.25.35-.38.52v-.04Zm-21.98-4.04s-.09,0-.13,0c-.41.02-.83.03-1.26.03.48,0,.94-.01,1.39-.04Zm23.83-5.41c.02-.12.04-.24.06-.36,0,.04,0,.09-.01.13-.01.08-.03.15-.05.22Zm.27-2.37c0-.14.01-.29.02-.43,0,.14-.01.29-.02.43Zm-29.25-7.17l-1.9,10.15h2.39l-.35,1.87h1.58l.07,2.97-3.16,16.73h1.95c.11,0,.21,0,.31,0l-2.01,10.57,1.07.08c.26.02.52.03.78.05.18.01.37.02.55.02l-.36,1.86c.18,0,.36.02.54.02.18,0,.36.01.54.02.17,0,.34,0,.5,0l.31,12.46h-13.91l-1.36-56.81h12.45Zm30.46,12.15c-.04.16-.09.31-.14.47-.1.34-.2.67-.32,1-.06.16-.12.32-.17.48.24-.63.45-1.28.63-1.96,0,0,0,0,0,.01Z" style="stroke-width: 0px;"/>
        <path d="m435.5,234.62h17.73l2.86-17.06-1.71-76.72h-17.77l-.7,19.33-.4,74.45Zm18.54-18.94h-13.83l-1.19-55.52h10.58l2.82-17.47,1.62,72.99Z" style="stroke-width: 0px;"/>
        <path d="m399.15,234.62h34.17l2.73-17.06-.34-15.94h-16.54l-1.25-60.78h-17.76l-.48,19.33-.53,74.45Zm34.86-18.94h-2.19l1.93-12.19.26,12.19Zm-20.63-55.52l2.59-17.47,1.24,60.79-1.86,12.19h-11.73l-1.09-55.52h10.85Z" style="stroke-width: 0px;"/>
        <path d="m420.29,243.84l-17.69,77.52-2.53,16.49h17.88l2.62-12.67h14.31l3.27,12.67h18.83l2.89-16.49-21.43-77.52h-18.16Zm5.8,51.18l.79-4.92c.01.08.03.16.04.24.02.13.04.25.06.38.02.12.04.25.06.37.24,1.31.51,2.62.79,3.93h-1.74Zm.37-3.53c-.23,1.18-.46,2.36-.68,3.53.3-1.55.6-3.1.9-4.66-.07.38-.14.76-.22,1.14Zm16.03,27.96l-3.29-12.73h-3.79l1.62-9.81-.56-2.19c-.45-1.76-.89-3.5-1.31-5.22-.43-1.72-.85-3.43-1.25-5.14-.4-1.71-.79-3.41-1.15-5.12-.37-1.71-.71-3.43-1.03-5.18-.13-.8-.27-1.62-.4-2.45-.13-.82-.27-1.66-.4-2.49-.13-.83-.26-1.67-.38-2.51s-.24-1.67-.34-2.49h0l-2,.04-2.69,16.81c-.06,1.34-.15,2.68-.26,4.02-.11,1.34-.24,2.68-.4,4.03-.02.15-.04.3-.06.45-.4,2.11-.81,4.22-1.21,6.31l-.22,1.13-1.57,9.81h-.23l-2.63,12.73h-12.62l12.96-56.81h14.9l15.68,56.81h-7.36Z" style="stroke-width: 0px;"/>
        <path d="m373.76,234.62h17.72l2.46-17.06-1.48-76.72h-17.76l-.32,19.33-.62,74.45Zm14.32-74.45l2.43-17.47,1.4,72.99h-13.84l-1.02-55.52h11.03Z" style="stroke-width: 0px;"/>
        <path d="m399.29,243.84h-18.1l-.36,18.8.76,19.44-17.23-38.24h-16.68l-.16,18.8-.72,75.21h17.81l2.31-16.49-.3-17.13,15.13,33.62h16.52l2.52-16.49-1.51-77.52Zm-34.41,75.61h-13.91l-.97-56.81h10.78l20.15,44.79,1.89-.54h0l2.42-16.66c-.22-.94-.41-1.85-.57-2.73-.16-.88-.3-1.74-.42-2.57s-.2-1.64-.27-2.42c-.06-.79-.1-1.55-.12-2.3l-.33-17.57h11.29l2.49-16.91,1.43,73.72h-13.26l-20.32-45.05-1.9.54-2.28,16.75c.15.64.28,1.29.39,1.96s.21,1.36.29,2.06c.08.7.15,1.41.19,2.14.05.73.08,1.47.09,2.22l1.15-8.41,1.27,2.83-.5,3.65.65,1.44.35,19.86Z" style="stroke-width: 0px;"/>
        <path d="m280.26,224.22c1.12,2.47,2.77,4.59,4.88,6.31,2.11,1.72,4.7,3.06,7.71,3.96,3.01.9,6.45,1.37,10.26,1.37.33,0,.68,0,1.05-.01.1,0,.21,0,.31,0,.3,0,.6-.02.91-.04.09,0,.18,0,.27-.01.36-.02.72-.04,1.09-.08.02,0,.05,0,.07,0,.5-.04,1.02-.09,1.55-.16.08-.01.17-.03.25-.04.15-.02.31-.04.46-.07.5-.07,1.01-.16,1.53-.25.11-.02.22-.03.33-.05.05,0,.1-.03.15-.04.64-.13,1.29-.28,1.94-.45.12-.03.24-.07.35-.1.35-.1.7-.19,1.04-.3.19-.06.39-.14.58-.21.1-.04.21-.06.31-.1.14-.05.27-.11.41-.16.13-.05.25-.1.38-.15.43-.17.86-.35,1.28-.55.02,0,.04-.02.06-.03.44-.21.87-.43,1.29-.67.12-.07.23-.14.35-.2.14-.08.29-.16.43-.25.19-.12.38-.25.56-.38.06-.04.13-.08.2-.12.03-.02.05-.04.07-.06.04-.03.08-.05.13-.08.31-.22.62-.46.92-.71.04-.03.07-.07.11-.1.08-.07.16-.14.25-.22.18-.15.35-.3.52-.46.12-.12.24-.24.36-.36.09-.09.19-.19.28-.29.06-.07.13-.13.19-.19.17-.18.33-.37.49-.56.09-.11.19-.23.28-.35.03-.04.06-.07.09-.11.03-.04.07-.08.1-.13.15-.2.3-.41.44-.62s.28-.43.42-.65c.07-.12.15-.24.22-.37s.14-.24.21-.36c.02-.04.05-.08.07-.13.01-.03.03-.05.04-.08.03-.05.06-.11.08-.16.06-.12.12-.24.18-.36.02-.04.03-.07.05-.11.03-.07.07-.14.11-.21.16-.33.29-.66.42-.99,0-.02.02-.05.03-.07.02-.05.03-.1.05-.15.06-.17.13-.35.19-.52.03-.1.05-.19.08-.29.04-.14.1-.27.14-.41.06-.23.11-.46.16-.69.03-.11.06-.21.09-.32.01-.05.02-.11.03-.16.01-.06.03-.13.05-.19.09-.45.16-.9.21-1.36l2.06-17.14c-.01.12-.04.25-.06.37.1-.75.18-1.51.21-2.28.04-1,.04-2.02.02-3.09l-.38-23.75h11.79l1.01,60.87h17.72l2.26-17.06-.77-43.81h9.68l2.33-17.4-.28-15.52h-42.38l.25,15.52-1.66,14.01-.47-29.52h-17.76l.27,17.58-.2,1.75.52,34.09-.69,6.1c-.27.6-.61,1.15-1.07,1.59-.26.25-.55.47-.87.65-.32.19-.68.34-1.06.46-.39.12-.81.21-1.26.27-.46.06-.95.09-1.47.09s-.99-.03-1.44-.09c-.45-.06-.87-.15-1.25-.28-.39-.12-.74-.28-1.07-.47s-.63-.41-.9-.66c-.58-.53-1.01-1.2-1.34-1.95s-.56-1.59-.71-2.48c-.15-.89-.24-1.83-.29-2.77-.05-.95-.06-1.9-.07-2.83l-.74-51.05h-17.76l.79,57.78-1.75,17.17c.04,3.14.65,5.96,1.77,8.43Zm79.66-8.53h-13.84l-.94-55.52h12.97l-1.51,11.73h2.25l-.24,1.85h.56l.74,41.94Zm11.24-61.2h-1.77l1.56-11.79.21,11.79Zm-43.6,44.74c0-.14,0-.27,0-.4,0,.14,0,.27,0,.4Zm-.05,9.27s-.03.05-.04.07c-.15.29-.32.57-.5.86.28-.47.53-.92.76-1.38-.07.15-.14.29-.22.44Zm.03-8.14c0,.08-.01.17-.02.25,0-.16.02-.32.02-.48,0,.07,0,.15,0,.23Zm-.12,1.55c.02-.16.03-.31.04-.47-.01.16-.03.32-.04.47Zm.55,5.63c.15-.33.3-.67.43-1-.01.04-.03.08-.04.11-.11.29-.25.59-.39.89Zm1.15-3.5c-.03.15-.07.3-.11.44.05-.2.09-.4.13-.59,0,.05-.01.1-.03.15Zm-.39,1.48s-.02.07-.03.1c-.03.11-.07.22-.11.33.05-.14.09-.29.14-.43Zm-1.18-8.04l-.97,8.18s-.03.08-.04.12c0,.02-.02.05-.03.07-.11.29-.24.58-.37.87-.05.12-.09.23-.15.34-.02.05-.05.1-.08.16-.2.41-.43.82-.68,1.24,0,0,0,0,0,0-.27.44-.56.86-.87,1.26-.03.03-.05.07-.08.1-.27.34-.55.66-.85.97,0,0-.01.01-.02.02-.08.09-.17.17-.26.26-.28.28-.57.54-.86.79-.05.04-.1.09-.15.13-.35.28-.7.55-1.07.8-.09.06-.19.13-.28.19-.3.2-.6.39-.91.56-.1.06-.19.11-.29.17-.19.11-.39.2-.59.3-.2.1-.4.21-.6.31-.08.04-.16.07-.23.1-.34.15-.68.3-1.02.43-.12.05-.24.09-.36.14-.2.07-.4.14-.6.21-.49.17-.99.33-1.49.46-.13.04-.26.08-.39.11-.6.16-1.21.3-1.81.41-.14.03-.28.05-.41.08-.26.05-.51.08-.77.12,0-.01,0-.03.01-.04.01-.06.02-.12.03-.18.03-.14.07-.28.09-.43.06-.32.1-.65.14-.98h0s0,0,0,0c.59-5.15,1.37-12.02,1.96-17.17.02-.13.02-.27.03-.4.02-.18.03-.36.05-.54,0-.1.02-.21.03-.31.01-.19.01-.37.02-.56,0-.1.01-.2.02-.31,0-.07,0-.14,0-.21,0-.06,0-.13,0-.19,0-.26,0-.51,0-.77,0-.14,0-.28,0-.43,0-.02,0-.05,0-.07,0-.42,0-.84-.02-1.25l-.5-32.4h11.48l2.03-17.47.88,54.8Zm-31.6-6.07v.46s-1.84,17.2-1.84,17.2c.01,1.01.03,2.05.08,3.09.06,1.04.16,2.07.35,3.06,0,.04.02.07.03.11-.2-.07-.4-.13-.6-.2-.5-.18-.97-.38-1.44-.59-.3-.14-.61-.26-.9-.4-.06-.03-.11-.07-.17-.1-.53-.28-1.05-.57-1.54-.88-.04-.03-.08-.06-.13-.09-.49-.32-.97-.66-1.42-1.02-1.95-1.57-3.47-3.5-4.51-5.76-.15-.32-.26-.65-.39-.98-.27-.69-.5-1.41-.68-2.16-.35-1.43-.55-2.94-.57-4.56l-.53-38.45h11.71l1.84-17.47.7,48.73Z" style="stroke-width: 0px;"/>
        <path d="m326.19,243.84h-18.15l-18.12,77.52-1.82,16.49h17.88l2.69-12.67h14.31l3.19,12.67h18.84l2.18-16.49-21.01-77.52Zm-11.04,46.13c.02.13.04.25.06.38.02.13.04.25.06.37.02.12.04.25.06.37.24,1.31.5,2.62.76,3.93h-1.76c.28-1.81.53-3.62.75-5.44.02.13.04.26.06.38Zm11.45,16.75h-3.32l1.2-9.81-.53-2.15c-.44-1.76-.87-3.5-1.29-5.23-.42-1.73-.83-3.44-1.22-5.15-.39-1.71-.77-3.42-1.13-5.13-.36-1.72-.69-3.44-1.01-5.18-.12-.76-.25-1.54-.38-2.35s-.26-1.64-.38-2.48c-.13-.84-.25-1.69-.37-2.55-.12-.85-.23-1.71-.34-2.56l-2,.04-1.94,16.5c-.19,1.11-.36,2.22-.56,3.33,0,0,0,0,0,0-.3,1.68-.63,3.36-.95,5.04-.44,2.25-.89,4.5-1.33,6.73l-.24,1.13-1.15,9.81h-.69l-2.7,12.73h-11.81l13.27-56.81h14.9l15.37,56.81h-8.17l-3.21-12.73Z" style="stroke-width: 0px;"/>
        <path d="m154.71,222.08h14.24l3.09,12.54h18.74l1.09-15.56c.95,2.07,2.1,4.06,3.53,5.89,1.32,1.68,2.83,3.2,4.47,4.54,1.65,1.34,3.43,2.49,5.3,3.44,1.87.94,3.83,1.68,5.83,2.17,2,.5,4.03.76,6.05.76.57,0,1.14-.02,1.7-.06.18-.01.37-.03.55-.05.39-.04.77-.08,1.15-.13.08-.01.17-.02.25-.03.13-.02.25-.05.38-.07.36-.06.72-.13,1.08-.2.21-.04.42-.09.63-.14.12-.03.24-.05.37-.08.25-.06.5-.14.74-.21.13-.04.27-.06.4-.1.05-.02.1-.04.15-.05.47-.14.93-.3,1.39-.46.08-.03.16-.05.24-.08.54-.2,1.07-.42,1.59-.65.03-.01.06-.03.1-.04.12-.06.24-.12.36-.18.28-.13.56-.26.83-.4.09-.05.18-.1.26-.14.19-.1.37-.2.56-.3.33-.18.65-.36.96-.56.1-.06.2-.11.3-.17.09-.06.17-.12.26-.17.31-.2.61-.4.91-.61.12-.08.24-.15.35-.24.05-.04.11-.08.16-.12.33-.24.66-.5.98-.76.1-.08.21-.16.31-.24.02-.02.04-.04.06-.05.03-.02.05-.04.08-.06.41-.35.82-.7,1.21-1.07.01,0,.02-.02.03-.03.07-.07.14-.14.21-.21.33-.32.66-.65.97-.98.04-.04.08-.08.12-.12.16-.17.31-.34.46-.52.09-.11.19-.22.28-.33.03-.03.05-.06.08-.1.03-.03.06-.07.09-.1.15-.18.29-.36.44-.54s.28-.37.42-.55c.27-.36.53-.73.77-1.1,0,0,0-.01.01-.02.08-.12.15-.24.23-.36.16-.25.32-.49.47-.74,0-.01.01-.02.02-.04.09-.15.18-.31.27-.46.13-.22.25-.43.37-.65,0-.02.02-.04.03-.05.09-.17.17-.33.26-.5.11-.2.22-.4.32-.61,0-.02.02-.04.03-.06.01-.03.03-.06.04-.08.05-.09.08-.19.13-.28.3-.62.57-1.25.83-1.89.09-.23.18-.47.27-.7.09-.24.19-.48.28-.72.11-.31.21-.63.31-.95.05-.14.1-.28.15-.42.02-.08.04-.15.06-.23.23-.74.44-1.49.62-2.24,0-.01,0-.03,0-.04.02-.07.03-.15.05-.22.17-.7.31-1.4.45-2.1.02-.09.04-.18.06-.27.03-.15.04-.3.07-.45.05-.26.1-.53.14-.79.05-.3.08-.6.12-.9.03-.23.07-.45.09-.68.1-.76.18-1.52.25-2.27l1.53-17.22s0,.02,0,.02c.05-.6.1-1.19.14-1.79.15-2.42.18-4.76.15-6.95-.02-2.06-.1-4.36-.3-6.77-.2-2.41-.54-4.95-1.08-7.49-.54-2.54-1.28-5.08-2.31-7.53-1.03-2.44-2.34-4.78-4.02-6.9-1.31-1.66-2.81-3.17-4.46-4.49-1.65-1.32-3.43-2.46-5.31-3.4-1.88-.93-3.85-1.66-5.85-2.15-2.01-.49-4.06-.75-6.09-.75s-4.18.26-6.2.75c-2.03.49-3.99,1.22-5.85,2.15-1.86.93-3.61,2.07-5.2,3.4-1.59,1.32-3.02,2.83-4.25,4.5-1.61,2.15-2.86,4.47-3.83,6.87-.97,2.4-1.67,4.89-2.15,7.38-.48,2.46-.77,4.93-.93,7.33,0-.03,0-.06,0-.1h0l-1.17,17.31c-.04.62-.08,1.24-.1,1.85s-.05,1.21-.06,1.81c-.01.6-.02,1.19-.02,1.77,0,.58,0,1.15,0,1.72.02,1.93.08,4.07.26,6.32l-13.46-50.85c.07-.06.15-.11.22-.17.05-.04.1-.09.14-.13.04-.03.07-.06.11-.09.06-.06.13-.11.2-.17.14-.14.28-.28.42-.42.04-.05.08-.1.12-.15.06-.07.11-.13.17-.2.08-.09.16-.18.24-.28.12-.15.22-.3.33-.45.04-.05.07-.1.11-.15.01-.02.03-.04.05-.06.15-.23.3-.46.44-.7.03-.05.05-.1.08-.15.02-.03.03-.05.05-.08.03-.05.05-.1.07-.15.06-.11.13-.23.18-.34.06-.11.1-.23.15-.34.08-.16.15-.33.22-.5.09-.2.17-.4.25-.61.06-.17.13-.33.19-.5.02-.06.05-.13.07-.19.05-.14.09-.29.14-.44.05-.17.11-.33.15-.5.06-.21.12-.43.18-.64.03-.11.07-.23.09-.35.01-.05.02-.09.03-.14.01-.04.02-.08.03-.12.01-.06.02-.12.04-.18.15-.65.28-1.28.39-1.88,0,0,0-.02,0-.03.04-.23.08-.45.11-.67.02-.09.03-.19.05-.28.05-.32.1-.63.15-.92l.16-1,1.12-17.59-9.72-.55-.25.66c-.04.1-.07.19-.1.29s-.06.2-.09.29c-.03.1-.06.2-.09.29s-.05.19-.08.29c-.1.36-.18.68-.28.95-.1.27-.22.49-.39.66-.17.17-.38.3-.68.39-.29.08-.67.13-1.15.13-.44,0-.87-.05-1.31-.14-.43-.09-.87-.22-1.3-.37-.43-.15-.87-.34-1.31-.53-.44-.2-.88-.41-1.33-.62-.52-.25-1.06-.51-1.62-.75-.56-.25-1.14-.48-1.75-.68s-1.23-.38-1.89-.5c-.66-.12-1.34-.19-2.06-.19-2.37,0-4.21.57-5.64,1.5-1.44.93-2.47,2.22-3.22,3.67-.75,1.44-1.23,3.04-1.55,4.58-.32,1.54-.49,3.03-.62,4.25l-.11,1.03-.89,17.51h6.9l-15.54,64.06-.83,17.06h17.79l2.77-12.54Zm6.66-35.23c.02.13.04.25.06.38s.04.25.06.37c.02.12.04.25.06.37s.04.25.06.37c.18,1.06.39,2.11.59,3.16h-1.5c.24-1.55.48-3.1.68-4.65Zm-7.14-26.69h14.82l14.68,55.52h-9.03l-3.11-12.6h-2.62l.59-9.71-.26-1.08-.26-1.08c-.42-1.74-.84-3.46-1.25-5.17-.41-1.71-.8-3.4-1.18-5.09-.38-1.69-.74-3.38-1.08-5.07-.34-1.7-.66-3.4-.96-5.12-.12-.76-.23-1.52-.35-2.3-.02-.15-.04-.3-.07-.45-.09-.59-.18-1.18-.26-1.77-.04-.25-.07-.5-.11-.75-.08-.54-.15-1.07-.22-1.61-.03-.24-.06-.47-.1-.71-.1-.75-.2-1.51-.28-2.25h0l-1.98.04c-.08,1.31-.18,2.62-.31,3.93s-.27,2.62-.44,3.93c-.33,2.62-.74,5.24-1.19,7.86-.45,2.62-.95,5.23-1.47,7.82-.52,2.6-1.06,5.18-1.6,7.74l-.23,1.12-.54,9.71h-1.37l-2.78,12.6h-10.48l13.45-55.52Zm88.96,29.77c.16,1.94.23,3.79.27,5.51-.03.13-.06.25-.1.38-.07.26-.14.52-.21.78-.03.11-.06.21-.09.32-.07.25-.15.49-.23.73-.1.33-.21.66-.32.99-.09.27-.2.54-.3.81-.12.32-.24.65-.37.96-.11.27-.23.54-.35.8,0,0,0,0,0,0-.14.31-.28.62-.43.93-.12.26-.26.51-.39.76-.11.22-.22.44-.34.66-.2.36-.41.7-.62,1.05-.08.12-.15.25-.22.38-.07.1-.13.21-.2.31-.31.47-.63.94-.97,1.4-.28.38-.58.75-.88,1.12-.02.02-.03.04-.05.06-.1.11-.2.22-.29.33-.18.2-.36.41-.54.6-.3.33-.62.64-.94.95-.06.06-.12.12-.18.18-.03.03-.06.05-.09.08-.35.33-.71.65-1.08.95-.13.11-.27.22-.41.32,0,0,0,0,0,0-.28.22-.56.44-.85.66-.1.07-.2.14-.3.21-.08.06-.16.11-.23.16-.27.19-.54.37-.81.54-.05.03-.11.07-.16.1-.13.08-.27.17-.4.25-.29.18-.59.35-.9.52-.17.09-.34.19-.51.28-.34.18-.69.35-1.04.51-.12.06-.24.12-.36.17-.07.03-.15.06-.22.1-.38.17-.77.33-1.16.48-.17.06-.34.12-.51.18-.3.11-.6.21-.9.3.02-.04.05-.08.07-.12.01-.02.02-.04.03-.06.01-.03.03-.06.05-.09.11-.21.2-.44.3-.66.09-.21.19-.42.28-.63.11-.26.2-.53.3-.79.08-.22.17-.43.24-.66,0-.02.02-.04.02-.06.09-.26.16-.52.24-.79.07-.23.14-.45.2-.68.08-.29.15-.59.22-.89.05-.21.11-.43.16-.64,0-.02,0-.03,0-.05,0-.01,0-.03.01-.04.06-.29.12-.59.18-.89.05-.23.1-.46.14-.69.06-.32.11-.65.16-.98.03-.22.07-.44.11-.66,0,0,0-.01,0-.02,0-.02,0-.03,0-.05.15-1.08.27-2.16.36-3.23h0s0,0,0,0l.12-1.43,1.31-15.81s0,0,0,0c.02-.22.03-.44.05-.67.02-.27.04-.54.06-.81,0-.13.02-.26.03-.38.02-.28.02-.55.03-.83.01-.25.02-.5.03-.74,0-.08,0-.16.01-.24.01-.35.01-.69.02-1.03,0-.2,0-.4.01-.59,0-.04,0-.08,0-.11h0c0-.56,0-1.11,0-1.64,0-.54-.02-1.11-.04-1.69,0-.18-.01-.36-.02-.54-.02-.42-.03-.84-.06-1.27-.01-.22-.02-.43-.04-.65-.03-.44-.06-.88-.1-1.32-.01-.15-.02-.29-.03-.44,0-.05-.01-.11-.02-.16,0-.08-.01-.16-.02-.24-.05-.56-.11-1.13-.18-1.71,0,0,0,0,0-.01,0-.03,0-.05-.01-.08-.08-.62-.16-1.24-.26-1.85-.03-.2-.07-.41-.1-.61-.08-.45-.16-.91-.25-1.35-.05-.23-.09-.45-.14-.67-.04-.16-.07-.33-.1-.5-.07-.29-.14-.57-.22-.85-.04-.14-.06-.29-.1-.43-.01-.05-.03-.1-.04-.15-.17-.62-.35-1.24-.56-1.83,0,0,0-.01,0-.02-.05-.15-.11-.29-.16-.43,1.53.81,2.98,1.75,4.34,2.84,1.52,1.22,2.9,2.61,4.11,4.15,1.58,2,2.81,4.22,3.78,6.54.97,2.33,1.67,4.76,2.18,7.19.51,2.43.82,4.86,1.01,7.19Zm2.29,5.69c-.02.08-.05.17-.07.25.03-.11.06-.23.09-.34,0,.03-.01.06-.02.09Zm-.63,2.29c-.03.11-.07.23-.11.34.05-.15.1-.3.14-.45-.01.04-.02.07-.03.11Zm-20.28,4s-.05.05-.07.07c-.03.03-.06.05-.08.07.05-.05.1-.09.15-.14,0,0,0,0,0,0Zm-1.04.9s-.03.03-.05.04c-.02.02-.05.03-.07.05.07-.05.14-.11.21-.17-.03.02-.06.05-.09.07Zm-.42.29c-.06.04-.11.08-.17.12-.01,0-.02.01-.03.02-.03.02-.07.03-.1.05.13-.08.27-.16.4-.25-.03.02-.06.04-.09.06Zm-1.13.62s-.01,0-.02,0c.01,0,.02-.01.03-.02,0,0,0,0-.01,0Zm-1.11.41c-.06.02-.13.04-.19.05-.03,0-.07.01-.1.02.1-.02.19-.05.29-.07,0,0,0,0,0,0Zm-1.25.27c-.06,0-.12.01-.17.02,0,0-.01,0-.02,0,.11-.01.22-.03.33-.05-.05,0-.09.02-.13.03Zm5.75-3.4c.05-.07.1-.14.16-.2-.03.03-.05.07-.07.1-.03.03-.06.07-.08.1Zm1.57-2.46s0,0,0,0c.03-.06.06-.12.09-.19-.01.03-.03.06-.04.09-.02.03-.04.06-.05.1Zm-18.97-17.01c.08-.28.16-.56.24-.83.07-.22.14-.43.21-.64.09-.27.18-.53.28-.79.08-.21.16-.41.24-.61.1-.25.21-.49.33-.74.11-.23.21-.46.33-.68.04-.08.08-.16.13-.24.19-.34.38-.67.59-.98.03-.05.06-.09.1-.13.19-.27.39-.53.6-.78.05-.06.1-.12.15-.17.24-.27.5-.53.77-.76.02-.02.04-.04.06-.05.13-.11.27-.22.4-.32.01,0,.02-.02.03-.03.15-.11.3-.21.45-.3.22-.14.45-.26.69-.37.06-.03.11-.05.17-.07.23-.1.46-.18.71-.26.02,0,.04-.01.06-.02.26-.07.53-.13.8-.17.07-.01.13-.02.2-.03.28-.03.57-.06.87-.06,2.3,0,4.09,1.03,5.5,2.69,1.4,1.66,2.41,3.94,3.14,6.45.73,2.51,1.17,5.23,1.43,7.78.15,1.41.24,2.76.29,3.99-.68,2.52-1.64,4.83-3.02,6.5-1.38,1.67-3.17,2.71-5.48,2.71s-4.13-1.04-5.54-2.71c-1.41-1.67-2.43-3.98-3.16-6.5-.73-2.53-1.17-5.28-1.44-7.84-.13-1.22-.21-2.39-.27-3.48.05-.19.1-.37.15-.55Zm20.16,14.16c.02-.06.04-.12.06-.18,0,.03-.02.05-.02.08-.01.04-.03.07-.04.11Zm.5-1.64c-.06.23-.14.46-.21.69-.01.04-.02.08-.03.11.12-.39.23-.79.34-1.2,0,0,0,0,0,.01-.03.13-.06.26-.1.38Zm16.22-8.15c-.04.59-.08,1.18-.13,1.78.06-.65.1-1.3.14-1.95,0,.06,0,.11,0,.17Zm-48.16-32.87c-.06.09-.12.18-.18.28.07-.11.14-.22.21-.33-.01.02-.02.04-.03.05Zm-1.09,1.82s.04-.08.06-.11c-.02.04-.04.08-.06.11Zm-.87,1.73c.03-.06.05-.12.08-.19-.03.06-.05.12-.08.19Zm-1.32,3.32s-.03.07-.04.1c.02-.07.04-.13.07-.2-.01.03-.02.06-.03.09Zm-.54,1.72s-.02.07-.03.1c.02-.05.03-.11.05-.16,0,.02,0,.04-.02.06Zm-.53,2.04c.11-.49.24-.98.37-1.47-.13.49-.26.98-.37,1.47Zm0,13.23c.19-.54.39-1.07.61-1.6.03-.07.05-.14.08-.21.24-.57.5-1.14.78-1.7.09-.19.19-.38.28-.57.08-.16.17-.32.25-.48.13-.23.26-.47.39-.7.09-.15.17-.3.26-.44.15-.25.31-.5.47-.75.08-.12.15-.24.23-.36.25-.37.5-.73.77-1.09.27-.37.55-.73.84-1.08.02-.03.05-.05.07-.08.26-.3.52-.6.79-.89.28-.29.56-.58.85-.86.08-.08.15-.15.23-.23.37-.35.76-.69,1.16-1.02.11-.09.22-.17.33-.26.29-.23.59-.47.9-.69.16-.11.32-.22.47-.33.27-.19.54-.37.82-.55.17-.11.34-.21.51-.31.3-.18.6-.35.9-.52.17-.1.35-.19.52-.28.32-.17.65-.33.98-.48.16-.07.31-.15.47-.22.48-.21.96-.41,1.44-.59.01,0,.03-.01.04-.02.21-.08.42-.14.63-.21-.05.11-.09.22-.14.33-.02.05-.04.09-.06.14-.03.07-.06.15-.08.22-.14.37-.28.75-.41,1.13-.01.04-.03.08-.04.12,0,.02,0,.03-.01.05,0,0,0,.02,0,.03,0,.01,0,.02-.01.04,0,0,0,0,0,0,0,.02-.01.04-.02.06-.08.25-.15.51-.22.76-.07.24-.15.47-.21.72-.03.1-.05.2-.07.3-.05.2-.09.4-.14.6,0,0,0,.02,0,.03-.05.23-.11.46-.16.69,0,.01,0,.02,0,.04,0,.01,0,.02,0,.03-.04.18-.07.36-.1.54-.04.22-.09.44-.13.66-.03.16-.06.31-.09.46-.05.31-.09.62-.14.93-.03.19-.06.38-.09.57,0,.07-.02.13-.03.2,0,0,0,.01,0,.02-.05.4-.1.81-.14,1.21-.02.17-.04.34-.06.51,0,0,0,.02,0,.03,0,0,0,0,0,0,0,.03,0,.06,0,.08-.05.53-.1,1.06-.14,1.59l-.13,1.71-1.15,15.6s0,0,0,0h0s0,0,0,0h0c-.04.56-.08,1.12-.1,1.67-.03.55-.05,1.09-.06,1.62-.01.53-.02,1.05-.03,1.56s0,1,0,1.48c.02,2.38.15,5.16.49,8,.34,2.84.9,5.73,1.79,8.33.21.61.44,1.2.68,1.77-.65-.33-1.29-.69-1.92-1.07-.12-.07-.24-.14-.36-.22-.62-.39-1.23-.8-1.81-1.24-.15-.11-.29-.22-.44-.34-.27-.21-.54-.42-.8-.65-.16-.14-.32-.27-.48-.41-.26-.23-.51-.46-.76-.69-.15-.14-.3-.28-.44-.43-.26-.26-.52-.53-.77-.8-.12-.13-.24-.26-.36-.39-.36-.41-.71-.82-1.05-1.25-.35-.45-.69-.92-1.01-1.39-.08-.12-.16-.24-.24-.37-.16-.24-.31-.49-.46-.74-.31-.5-.6-1.01-.87-1.53-.1-.19-.2-.37-.3-.56-.34-.69-.67-1.38-.96-2.09-.04-.1-.07-.19-.11-.29-.25-.63-.48-1.26-.7-1.9-.08-.22-.15-.45-.22-.67-.17-.53-.33-1.07-.47-1.61-.05-.2-.11-.4-.16-.6-.18-.72-.35-1.44-.5-2.17-.02-.11-.04-.22-.06-.32-.12-.63-.24-1.25-.34-1.87-.04-.23-.07-.45-.1-.68-.08-.53-.15-1.06-.21-1.58-.02-.2-.05-.41-.07-.61-.08-.7-.15-1.4-.2-2.09,0-.06,0-.13-.01-.19-.05-.63-.09-1.25-.12-1.87-.01-.21-.02-.42-.03-.63-.02-.44-.04-.88-.05-1.31.02-.1.04-.2.06-.29.18-.8.38-1.59.6-2.38.16-.57.34-1.14.53-1.71.04-.13.09-.26.14-.39Zm-.68-9.63c-.02.11-.04.21-.05.32.03-.23.06-.46.1-.69-.02.12-.03.24-.05.37Zm.11-.73s.02-.09.02-.14c0,.02,0,.04-.01.06,0,.02,0,.05-.01.07Zm-.34,2.46c0,.08-.02.17-.03.25.03-.29.07-.58.11-.87-.03.21-.05.41-.07.62Zm-.25,2.6c.03-.42.07-.85.11-1.27-.04.43-.07.85-.11,1.27Zm53.79,11.12c0-.22,0-.45.01-.67,0,.22,0,.44-.01.67Zm-50.83-24.77c-.06.16-.12.31-.19.47.04-.09.06-.18.1-.27.03-.07.06-.13.09-.2Zm-1.97,6.55s-.01.07-.02.11c-.07.34-.14.68-.2,1.01.02-.13.04-.25.07-.38.05-.25.11-.5.16-.74Zm-3.18,11.24s0-.04,0-.06c.01-.6.03-1.21.06-1.82.02-.5.05-1,.08-1.51-.07,1.15-.12,2.28-.14,3.39Zm-.02,3.44c0-.57,0-1.14,0-1.73,0-.52.01-1.06.02-1.6-.02,1.14-.03,2.25-.02,3.32Z" style="stroke-width: 0px;"/>
        <path d="m190.36,323.73c.13-.37.24-.74.35-1.12.06-.2.13-.39.19-.59.01-.05.02-.1.03-.15.01-.05.03-.1.05-.16.09-.38.16-.77.23-1.15.04-.19.09-.37.12-.57,0-.03,0-.05,0-.08.1-.66.19-1.34.24-2.04,0,0,0-.01,0-.02l1.2-16.6s0,.02,0,.03c.06-.76.08-1.55.07-2.35,0-.75-.05-1.58-.14-2.46s-.24-1.83-.46-2.8c-.22-.97-.52-1.97-.92-2.96-.4-.99-.89-1.98-1.5-2.94-.06-.09-.13-.18-.2-.28.03-.15.05-.3.08-.45.02-.11.05-.22.07-.33,0-.05,0-.1.02-.15.08-.51.14-1.03.18-1.56,0,0,0,0,0,0l1.19-16.78c-.01.17-.04.33-.06.49.07-.75.12-1.51.11-2.32-.02-1.67-.19-3.31-.52-4.91-.32-1.59-.8-3.13-1.4-4.59-.61-1.46-1.35-2.83-2.21-4.08-.86-1.25-1.84-2.39-2.93-3.38-1.53-1.4-3.18-2.44-4.84-3.23-1.67-.79-3.35-1.31-4.95-1.66-1.6-.35-3.12-.52-4.45-.61-1.33-.09-2.48-.09-3.33-.09h-17.94l-.37,94.01h17.77c.93,0,1.83-.04,2.72-.1.27-.02.53-.04.8-.07.35-.03.71-.05,1.05-.09.27-.03.54-.08.8-.12.16-.02.32-.03.48-.05.12-.02.22-.05.34-.07.67-.11,1.32-.24,1.95-.38.16-.04.33-.07.49-.1.04-.01.09-.02.13-.03.74-.19,1.45-.4,2.15-.64.05-.02.1-.03.15-.04.14-.05.27-.11.41-.17.36-.13.74-.26,1.09-.41.18-.07.34-.16.52-.24.23-.1.45-.21.67-.31.5-.24.99-.5,1.46-.77.13-.07.27-.13.39-.21.05-.03.1-.07.15-.1.07-.04.14-.08.21-.12.32-.2.63-.4.93-.61.22-.15.43-.31.64-.47.04-.03.09-.07.14-.1.04-.03.08-.06.12-.09.29-.23.58-.46.86-.7.28-.24.55-.49.82-.74.08-.08.17-.16.25-.24.08-.08.17-.16.25-.25.08-.08.16-.17.24-.25.08-.08.16-.17.24-.25.07-.07.13-.15.19-.22.11-.12.21-.24.31-.36.13-.15.26-.29.38-.44.14-.18.27-.36.4-.54.06-.08.13-.15.18-.23.03-.04.05-.08.08-.12.04-.06.09-.12.13-.18.25-.37.49-.74.72-1.12.01-.02.02-.04.03-.06.04-.07.08-.14.12-.21.17-.29.33-.59.48-.89.04-.08.07-.18.11-.26.05-.1.1-.19.15-.28.11-.24.19-.49.29-.73.07-.18.16-.35.23-.54.03-.07.04-.14.07-.21Zm1.19-16.57c-.02.07-.05.13-.08.2.12-.32.22-.64.32-.96-.08.26-.15.52-.24.77Zm-.74,1.77c-.04.09-.09.17-.13.26.14-.27.26-.55.38-.83-.08.19-.16.39-.25.57Zm-2.25.05c-.18.32-.37.63-.57.94-.12.19-.24.39-.37.57-.23.33-.48.65-.74.97-.1.12-.19.24-.28.36-.05.06-.1.12-.15.17-.38.43-.78.86-1.21,1.27-.53.5-1.08.97-1.66,1.41-.04.03-.09.07-.13.1-.52.39-1.07.75-1.63,1.09-.17.1-.35.2-.53.3-.43.25-.88.48-1.33.7-.21.1-.42.2-.63.29-.49.22-1,.42-1.51.6-.17.06-.33.13-.5.19-.63.21-1.28.39-1.94.56,0-.02.01-.04.02-.06.07-.2.14-.41.2-.62.03-.11.07-.21.1-.31,0-.03.01-.06.02-.09,0-.03.02-.07.03-.1.05-.2.08-.41.12-.62.02-.1.05-.2.07-.31,0-.02,0-.03,0-.05.06-.36.1-.73.13-1.11h0s0,0,0,0c.01-.17.02-.36.04-.53l.18-2.73c.29-4.39.62-9.39.89-13.35,0,0,0-.01,0-.02l1.64.57c.85.3,1.67.66,2.45,1.07.77.42,1.51.89,2.19,1.41.69.53,1.32,1.1,1.91,1.73.59.63,1.12,1.31,1.6,2.03.55.86.99,1.75,1.34,2.64.11.29.21.58.3.87,0,.02-.02.03-.02.05Zm-21.35-3.72c.47.11.95.25,1.43.42.25.09.48.21.71.32-.25.07-.49.16-.74.22-.52.12-1.06.2-1.6.25v-1.24c.06.01.13.02.2.04Zm22.91,5.01v-.05c.07-.11.14-.21.2-.32-.04.06-.07.13-.1.2-.03.06-.06.12-.09.17Zm.65-9.12h0s0,0,0,0Zm-1.82-25.57c-.06.1-.12.19-.18.29-.05.08-.11.16-.16.24h0c.13-.21.27-.41.39-.61-.01.02-.03.05-.04.08Zm.22-7.62s0-.04,0-.06c0,.02,0,.04,0,.06Zm-2.53,7.54s-.06.09-.09.13c-.23.31-.47.62-.73.93-.39.44-.8.84-1.23,1.23-.07.07-.15.13-.22.2-.4.35-.82.69-1.25.99-.06.05-.13.09-.19.13-.44.3-.89.58-1.36.83-.04.02-.08.04-.12.06-.51.27-1.03.51-1.57.71l-2.4.91-.81,12.32c-.12-.41-.25-.81-.41-1.19-.3-.73-.67-1.41-1.11-2.04-.22-.31-.45-.61-.7-.89-.25-.28-.52-.54-.8-.79.03-.05.07-.1.1-.16.03-.06.06-.11.09-.17.03-.06.06-.11.09-.17.03-.06.06-.11.09-.17.03-.07.06-.14.09-.21.05-.1.1-.2.15-.31.03-.08.06-.16.09-.24.02-.06.05-.11.07-.17.02-.06.04-.13.06-.19.07-.19.13-.39.18-.6.02-.08.05-.15.07-.23.01-.04.02-.09.03-.14.01-.06.03-.11.04-.17.04-.17.06-.35.09-.53.02-.09.04-.17.05-.26,0-.02,0-.05,0-.08.05-.35.09-.71.12-1.08,0,0,0,0,0-.01l.53-8.1c.02-.35.05-.71.07-1.06l.32-4.9c.06-.95.12-1.87.18-2.73,0-.1.01-.19.02-.29,0-.1,0-.2.01-.3,0-.1,0-.2,0-.3,0-.1,0-.2,0-.31,0-.3,0-.75-.06-1.29-.02-.19-.05-.41-.08-.63.41.16.82.33,1.23.53,1.49.71,2.97,1.65,4.34,2.9.99.9,1.88,1.93,2.67,3.08.78,1.14,1.45,2.4,2,3.73.13.32.24.66.35,1,0,0,0,.01-.01.02Zm-22.06-2.46c.05,0,.11,0,.16,0l.03,3.75-1.02,16.74.67-.03-.59,9.61h1c.05,0,.11,0,.16,0l.04,5.3-.69,11.06h-13.13l-.41-56.81h13.42l-.63,10.38h.99Zm28.13,28.82c-.05.5-.1,1-.17,1.48,0,.03-.01.06-.02.09.08-.51.14-1.04.19-1.57Zm-.36,2.43c-.07.34-.13.69-.21,1.02-.01.05-.03.1-.04.14.1-.38.18-.77.26-1.16Zm-1.45-34.01c-.01.06-.03.12-.04.18.03-.16.07-.32.09-.49-.02.1-.04.2-.05.3Zm-.35,1.55c-.02.07-.05.14-.07.22.04-.15.09-.3.13-.46-.02.08-.04.16-.06.24Zm-.46,1.42c-.04.1-.08.19-.12.28.07-.18.15-.36.21-.55-.03.09-.06.18-.09.26Zm-.47,1.08c-.03.06-.05.13-.08.19-.01.02-.02.05-.03.07,0,.02-.02.03-.03.05-.07.14-.15.28-.23.41.13-.24.25-.48.37-.72Z" style="stroke-width: 0px;"/>
        <path d="m288.93,300.96l-1.67,1.47c-.83.74-1.68,1.32-2.52,1.77-.84.46-1.66.79-2.43,1.02s-1.5.39-2.15.47-1.22.11-1.69.11c-1.07,0-2.04-.11-2.91-.3-.87-.19-1.64-.46-2.33-.78-.68-.32-1.28-.69-1.79-1.07s-.95-.78-1.31-1.16c-1.24-1.27-2.2-2.85-2.96-4.58-.76-1.72-1.3-3.58-1.7-5.41-.39-1.83-.63-3.63-.78-5.22-.03-.32-.05-.62-.07-.93.12-.35.23-.71.36-1.04.05-.12.09-.24.14-.36.22-.55.45-1.08.7-1.59,0-.02.02-.03.02-.05.24-.49.51-.95.78-1.39.06-.1.12-.2.18-.29.28-.43.57-.85.88-1.23.05-.07.11-.13.16-.19.32-.39.65-.76,1-1.09.26-.25.52-.48.79-.69.02-.02.05-.04.07-.06.26-.2.52-.39.79-.57.04-.02.07-.05.11-.07.08-.05.17-.09.25-.14.34-.2.68-.38,1.04-.55.11-.05.21-.1.32-.15.42-.18.85-.33,1.3-.46.05-.01.1-.02.15-.03.41-.11.83-.19,1.26-.25.13-.02.25-.03.38-.05.49-.05.98-.09,1.5-.09s1.11.03,1.73.12,1.3.23,2,.45,1.42.52,2.15.92c.73.4,1.47.9,2.2,1.53l1.7,1.44,1.8-16.81-.25-18.13-.59-.25c-.87-.38-1.74-.71-2.6-.99-.86-.28-1.73-.51-2.59-.7s-1.73-.32-2.6-.42c-.87-.09-1.75-.14-2.63-.14-1.92,0-3.78.17-5.57.49-1.79.33-3.52.82-5.17,1.48-1.66.66-3.24,1.47-4.76,2.45-1.51.98-2.96,2.12-4.32,3.42-1.94,1.87-3.63,3.96-5.08,6.26-1.45,2.31-2.65,4.83-3.61,7.57-.96,2.74-1.66,5.7-2.12,8.86-.23,1.56-.39,3.18-.5,4.84,0-.03,0-.07,0-.1.04-.58.08-1.15.13-1.72h0s0,0,0,0l-1.54,16.74c-.05.56-.1,1.13-.13,1.71-.04.58-.07,1.16-.09,1.74-.02.59-.04,1.18-.04,1.78,0,.6,0,1.21,0,1.82.02,1.29.07,2.53.15,3.76l-16.05-60.34h-18.16l-18.49,77.52-1.2,16.49h17.88l2.75-12.67h14.31l3.14,12.67h18.83l1.47-15.5c.58,1.17,1.22,2.29,1.91,3.36,1.41,2.17,3.04,4.13,4.9,5.86,1.33,1.24,2.69,2.3,4.12,3.19,1.43.9,2.93,1.62,4.53,2.2,1.6.57,3.3.99,5.14,1.27,1.83.28,3.8.41,5.93.41,1.19,0,2.28-.04,3.3-.14,1.02-.09,1.97-.24,2.88-.44.91-.2,1.77-.46,2.63-.77s1.69-.7,2.55-1.15l.52-.26,1.81-16.5-.26-18.42Zm-40.46-17.25c.07-.23.14-.47.21-.7.13-.39.26-.77.4-1.15.07-.2.14-.39.21-.59.19-.51.39-1.01.6-1.5.02-.06.05-.12.07-.18.24-.55.48-1.08.74-1.61.05-.11.11-.21.16-.31.26-.52.54-1.04.83-1.54.09-.16.19-.33.28-.49.33-.55.67-1.09,1.02-1.62.02-.03.04-.07.06-.1.38-.55.78-1.09,1.19-1.61.11-.14.22-.28.34-.42.34-.42.7-.84,1.06-1.24.12-.13.24-.27.36-.41.02-.02.03-.03.05-.05.35-.37.71-.74,1.08-1.1.59-.56,1.2-1.09,1.83-1.59.06-.05.12-.1.18-.14.6-.47,1.21-.9,1.83-1.31.09-.06.18-.12.27-.18.64-.41,1.28-.78,1.95-1.13.13-.07.27-.13.4-.19.54-.27,1.08-.52,1.64-.74.3-.12.59-.24.89-.36.12-.04.24-.09.36-.13.27-.1.55-.18.83-.26-.02.02-.03.05-.05.07-.1.13-.2.26-.29.4-.02.03-.04.06-.06.09-.12.18-.23.36-.34.54-.04.06-.07.12-.11.18,0,0,0-.01,0-.02-.03.04-.05.09-.07.13-.03.05-.06.09-.09.14-.02.03-.03.06-.05.09-.02.03-.04.06-.05.09-.09.16-.17.33-.25.49-.07.13-.15.26-.21.4-.01.03-.03.05-.04.08-.02.03-.03.07-.05.1-.09.18-.17.37-.25.55-.08.19-.17.37-.26.56,0,0,0,.01,0,.02-.01.03-.02.06-.04.1-.08.19-.15.39-.23.58-.07.18-.15.36-.21.54-.02.04-.03.09-.05.14-.02.04-.03.08-.05.13-.06.17-.11.34-.17.51-.08.24-.16.48-.24.73-.02.06-.04.11-.05.16,0,.03-.01.05-.02.08,0,.02-.01.04-.02.07-.04.12-.06.25-.1.38-.05.18-.1.35-.15.53-.02.07-.03.14-.05.21-.03.13-.06.25-.09.38-.04.16-.07.31-.11.47-.05.21-.1.42-.14.64-.04.18-.07.35-.11.53-.02.09-.04.17-.05.25-.01.07-.02.15-.04.23-.02.09-.04.18-.05.27-.02.09-.03.18-.04.27-.04.23-.07.47-.11.7-.02.16-.05.31-.07.47-.02.15-.04.29-.06.44-.01.1-.03.19-.04.29-.02.17-.03.34-.05.51-.02.18-.04.35-.06.54,0,0,0,0,0,0l-1.64,16.74s0,0,0,0h0c-.05.48-.09.97-.12,1.47-.03.5-.06,1-.08,1.51-.02.51-.03,1.03-.04,1.55,0,.52,0,1.05,0,1.59.01,1.07.07,2.53.23,4.21.16,1.68.42,3.57.85,5.5.43,1.93,1.02,3.9,1.85,5.74.4.9.87,1.77,1.39,2.58-.87-.39-1.7-.83-2.52-1.34-1.33-.83-2.6-1.81-3.83-2.96-.89-.83-1.72-1.71-2.5-2.64-.78-.93-1.5-1.92-2.18-2.96-1.34-2.08-2.47-4.38-3.38-6.89-.23-.63-.44-1.27-.64-1.92-.6-1.96-1.08-4.03-1.44-6.22-.12-.73-.22-1.47-.32-2.23-.2-1.68-.33-3.44-.4-5.25,0-.01,0-.02,0-.03.06-.25.13-.5.2-.75.1-.38.21-.74.32-1.11Zm.33-11.65c.04-.2.07-.4.11-.6-.03.14-.05.29-.08.44,0,.05-.02.11-.03.16Zm.43-2.12c.04-.16.07-.32.11-.48-.04.15-.07.31-.1.46,0,0,0,.01,0,.02Zm.61-2.41c.04-.14.08-.27.12-.4-.04.14-.09.27-.12.4Zm6.22-12.36c.09-.11.19-.23.28-.34-.05.07-.11.13-.16.2-.04.05-.08.09-.12.14Zm-1.21,1.62c.12-.17.25-.35.37-.52-.13.17-.25.34-.37.52Zm-2.06,3.36c.05-.1.1-.2.15-.3-.05.1-.1.2-.15.3Zm-.95,1.92c.09-.19.17-.39.26-.58-.09.19-.18.38-.26.58Zm-.76,1.79c.09-.22.17-.43.26-.64-.09.21-.18.43-.26.64Zm-2.91,12.64c.02-.24.05-.47.08-.7-.03.24-.05.47-.08.7Zm38.97,41.74c-.37.18-.74.35-1.1.51-.19.08-.39.15-.58.22l1.5-13.86.18,13.13Zm-.82-58.68c-.36-.23-.72-.44-1.08-.63-.12-.07-.25-.12-.37-.18l1.27-12.01.18,12.81Zm-28.91-5.97c-.06.07-.12.14-.18.21-.04.04-.07.08-.11.12.1-.11.19-.22.29-.33Zm-3.29,4.29c-.09.14-.18.28-.27.42.02-.03.04-.06.05-.09.07-.11.15-.22.22-.33Zm-3.49,7.18s0,0,0,.01c-.07.2-.15.41-.22.61.02-.07.04-.15.07-.22.05-.14.1-.27.15-.41Zm-2.1,8.51c-.02.15-.04.31-.07.46-.01.08-.02.15-.04.23.01-.09.02-.19.03-.28.02-.14.05-.27.07-.41Zm-2.64,7.19c0-.22,0-.44.02-.65.02-.46.04-.92.07-1.37-.04.67-.07,1.34-.09,2.02Zm-.03,2.97c0-.62,0-1.22,0-1.83,0-.18,0-.35.01-.53-.02.78-.02,1.56-.01,2.36Zm-28.01,6.25c.02.13.04.25.06.38.02.13.04.25.06.38.02.12.04.25.06.37.23,1.31.49,2.62.75,3.93h-1.76c.29-1.81.55-3.62.78-5.44.02.13.04.25.06.38Zm10.67,16.75h-2.9l.83-9.81-.54-2.19c-.37-1.51-.73-3-1.08-4.48-.11-.47-.22-.93-.33-1.39-.28-1.18-.55-2.35-.82-3.51-.1-.45-.21-.9-.31-1.36-.35-1.56-.69-3.13-1.01-4.7,0-.03-.01-.07-.02-.1-.34-1.69-.67-3.4-.97-5.12-.13-.8-.25-1.62-.38-2.45-.13-.82-.25-1.66-.37-2.49-.12-.83-.24-1.67-.35-2.51s-.22-1.67-.32-2.49h0l-2,.04-.38,4.68c-.01.12-.02.24-.03.36-.07.72-.15,1.45-.23,2.17-.07.56-.13,1.12-.21,1.68-.09.72-.19,1.45-.29,2.17-.08.55-.16,1.11-.24,1.66-.11.73-.23,1.46-.35,2.19-.09.55-.18,1.09-.27,1.64-.08.45-.16.9-.24,1.35-.38,2.11-.77,4.22-1.19,6.31-.49,2.48-1,4.95-1.5,7.4l-.24,1.13-.78,9.81h-1.1l-.49,2.27-2.27,10.46h-11.11l13.54-56.81h14.9l15.1,56.81h-8.86l-3.16-12.73Z" style="stroke-width: 0px;"/>
        <path d="m114.7,140.84l.2,35.99-.09,2.33-16.85-38.31h-16.6l.3,76.72-.5,17.06h17.72l.61-17.06-.1-20.56,16.54,37.63h16.44l.82-17.06-.49-76.72h-18Zm16.48,74.85h-13.2l-19.63-44.6-1.89.54-.59,17.31h0c.14.63.26,1.28.36,1.95.1.66.19,1.34.26,2.04.07.69.13,1.4.16,2.12.04.72.06,1.45.06,2.2l.3-8.63.34-.1.13,27.17h-13.84l-.22-55.52h12.62l19.47,44.34,1.89-.53.73-17.23c-.2-.93-.38-1.83-.53-2.71s-.28-1.72-.38-2.54c-.1-.82-.18-1.62-.23-2.4s-.08-1.54-.09-2.28l-.09-16.66h13.12l.8-17.47.46,72.99Z" style="stroke-width: 0px;"/>
      </g>
      <g>
        <path d="m716.42,182.16l14.87,33.52h-14.53l-17.05-38.66,1.33,38.66h-13.83l-2.46-72.99h16.09c1.4,0,2.84.03,4.3.11s2.93.23,4.39.47c1.45.24,2.89.57,4.27,1.04,1.38.46,2.71,1.06,3.94,1.81,1.42.86,2.71,1.91,3.86,3.13,1.15,1.22,2.15,2.6,2.98,4.1s1.49,3.12,1.96,4.82.75,3.48.81,5.3c.07,2.04-.08,3.94-.45,5.7s-.98,3.39-1.83,4.89-1.92,2.89-3.25,4.16c-1.32,1.28-2.89,2.44-4.71,3.52l-.7.4Zm-13.15-7.2c1.72,0,3.27-.27,4.62-.79s2.51-1.28,3.44-2.26,1.64-2.18,2.1-3.58.67-2.98.61-4.73-.36-3.39-.88-4.77-1.26-2.54-2.2-3.49-2.1-1.66-3.46-2.14c-1.36-.48-2.91-.73-4.65-.73h-3.99l.76,22.25.87.12c.23.03.46.05.69.07s.47.03.71.03.47.01.7.01.46,0,.68,0" style="fill: #fff; stroke-width: 0px;"/>
        <path d="m668.51,151.6c1.63,2.01,2.92,4.24,3.95,6.58s1.78,4.79,2.35,7.23.93,4.89,1.17,7.22.36,4.55.43,6.55c.07,2.12.1,4.39,0,6.73s-.31,4.74-.71,7.14-1.01,4.79-1.88,7.09-2.01,4.52-3.5,6.58c-1.14,1.57-2.46,3-3.93,4.25-1.47,1.25-3.08,2.33-4.78,3.21-1.71.88-3.51,1.57-5.36,2.03s-3.76.71-5.66.71-3.77-.24-5.63-.71c-1.87-.47-3.7-1.15-5.47-2.03-1.76-.88-3.45-1.96-5.01-3.21-1.56-1.25-3-2.67-4.27-4.25-1.63-2.02-2.92-4.26-3.94-6.6-1.02-2.34-1.77-4.78-2.33-7.22s-.92-4.88-1.15-7.2-.35-4.53-.41-6.52c-.07-2.14-.09-4.42.01-6.77s.32-4.76.73-7.17,1.02-4.8,1.9-7.1,2.02-4.52,3.51-6.57c1.08-1.52,2.38-2.9,3.83-4.13s3.06-2.28,4.77-3.15,3.52-1.55,5.39-2.01c1.86-.46,3.77-.71,5.67-.71s3.78.24,5.65.7c1.87.46,3.7,1.13,5.46,2s3.44,1.93,4.99,3.15,2.98,2.63,4.23,4.17Zm-18.32,52.9c2.67,0,4.74-1.01,6.34-2.67,1.6-1.66,2.72-3.97,3.5-6.58s1.22-5.52,1.44-8.37.23-5.65.15-8.05-.27-5.19-.68-8.03c-.41-2.85-1.03-5.75-1.98-8.35s-2.22-4.9-3.92-6.55-3.83-2.65-6.49-2.65-4.72,1-6.32,2.65-2.72,3.95-3.5,6.55-1.22,5.5-1.45,8.35-.24,5.64-.16,8.03.26,5.19.67,8.05,1.03,5.76,1.98,8.37,2.22,4.92,3.92,6.58c1.7,1.66,3.83,2.67,6.5,2.67" style="fill: #fff; stroke-width: 0px;"/>
        <path d="m543.57,142.7l20.66,72.99h-14.73l-3.33-12.6h-17.55l-2.55,12.6h-13.76l16.35-72.99h14.92Zm-13.22,50.68h13.6l-.55-2.13c-.45-1.75-.9-3.47-1.34-5.18s-.86-3.4-1.27-5.1-.8-3.38-1.18-5.08-.73-3.4-1.06-5.13c-.13-.75-.26-1.53-.4-2.33s-.27-1.62-.41-2.45-.27-1.68-.4-2.52-.25-1.69-.36-2.54l-1.99.04c-.11,2.62-.32,5.24-.6,7.86s-.64,5.25-1.04,7.86-.86,5.23-1.33,7.82-.97,5.18-1.46,7.74l-.21,1.12" style="fill: #fff; stroke-width: 0px;"/>
        <path d="m596.58,145.19c1.67.7,3.63,1.74,5.65,3.27s4.08,3.54,5.96,6.2c1.88,2.66,3.57,5.95,4.84,10.04,1.27,4.09,2.11,8.98,2.28,14.82.12,4.12-.09,8.44-.87,12.6s-2.16,8.17-4.35,11.66c-2.2,3.49-5.22,6.47-9.31,8.57-4.1,2.1-9.26,3.34-15.75,3.34h-14.47l-2.04-72.99h12.27c1.42,0,2.78.01,4.11.06,1.33.05,2.62.15,3.91.32,1.28.17,2.56.41,3.85.75s2.59.79,3.93,1.36Zm-1.4,55c1.57-1.49,2.75-3.33,3.64-5.3.89-1.97,1.5-4.06,1.9-6.08s.61-3.94.71-5.58.09-2.98.07-3.82c-.04-1.21-.14-2.86-.39-4.75s-.66-4.01-1.31-6.18-1.53-4.35-2.75-6.38c-1.21-2.03-2.75-3.88-4.71-5.37-.7-.55-1.37-.99-2.05-1.35-.68-.36-1.36-.63-2.06-.83s-1.42-.35-2.18-.44-1.55-.15-2.4-.18l-1.04-.03,1.43,49.94h1.63c.95,0,1.86-.08,2.73-.23s1.7-.38,2.5-.69,1.55-.68,2.26-1.14,1.39-.99,2.02-1.59" style="fill: #fff; stroke-width: 0px;"/>
        <polygon points="506.82 142.7 481.01 203.49 506.56 203.49 506.86 215.68 461.26 215.68 486.43 154.93 462.74 154.93 462.47 142.7 506.82 142.7" style="fill: #fff; stroke-width: 0px;"/>
        <path d="m604.95,245.73l20.99,73.72h-14.8l-3.39-12.73h-17.64l-2.53,12.73h-13.83l16.21-73.72h14.99Zm-13.14,51.18h13.67l-.57-2.19c-.46-1.76-.91-3.5-1.36-5.22s-.87-3.43-1.29-5.14-.82-3.41-1.2-5.12-.74-3.43-1.08-5.18c-.14-.81-.28-1.62-.42-2.45s-.28-1.66-.42-2.49-.27-1.67-.4-2.51-.25-1.67-.36-2.49l-2,.04c-.1,2.64-.3,5.29-.58,7.94s-.63,5.3-1.02,7.94c-.4,2.64-.84,5.28-1.31,7.9s-.96,5.23-1.45,7.82l-.21,1.13" style="fill: #fff; stroke-width: 0px;"/>
        <polygon points="551.28 245.73 552.93 307.14 569.56 307.14 569.9 319.46 539.37 319.46 537.43 245.73 551.28 245.73" style="fill: #fff; stroke-width: 0px;"/>
        <path d="m669.39,245.73l-16.79,42.11,1.01,31.61h-13.9l-.99-31.62-20.03-42.1h15.2l6.15,15.75c.28.73.6,1.58.94,2.49s.69,1.89,1.04,2.88.71,2,1.04,2.98.65,1.93.92,2.79l1.14,3.64.8-3.66c.26-1.17.49-2.19.72-3.1s.43-1.7.64-2.43.4-1.39.6-2.03.39-1.26.6-1.9c.05-.14.09-.29.14-.43s.09-.29.14-.44.09-.3.14-.45.1-.31.15-.47l4.81-15.62h15.56Z" style="fill: #fff; stroke-width: 0px;"/>
        <path d="m520.15,248.1c1.95,1.02,3.59,2.31,4.97,3.78s2.48,3.11,3.35,4.83,1.5,3.52,1.92,5.3.64,3.53.68,5.17-.05,3.28-.28,4.78-.6,2.91-1.1,4.23-1.14,2.54-1.91,3.66c-.77,1.13-1.68,2.15-2.72,3.09-1.02.91-2.14,1.71-3.38,2.39s-2.57,1.26-4.01,1.72-2.97.81-4.59,1.04-3.33.35-5.12.35c-.25,0-.5,0-.76,0s-.51-.01-.77-.02-.52-.02-.78-.03-.52-.03-.79-.05l-1.08-.09.77,31.2h-13.91l-1.76-73.72h18.22c1.29,0,2.49.01,3.62.06s2.21.14,3.26.3,2.06.38,3.07.71c1.01.32,2.03.75,3.07,1.3Zm-14.63,29.53c2.09,0,3.88-.2,5.39-.62s2.74-1.05,3.71-1.92c.96-.86,1.66-1.96,2.11-3.29s.64-2.91.59-4.74-.3-3.5-.76-4.9-1.12-2.55-1.99-3.47-1.96-1.61-3.25-2.07c-1.3-.46-2.8-.69-4.53-.69h-3.77l.53,21.69h1.97" style="fill: #fff; stroke-width: 0px;"/>
        <polygon points="452.42 142.7 454.04 215.68 440.21 215.68 438.64 142.7 452.42 142.7" style="fill: #fff; stroke-width: 0px;"/>
        <polygon points="415.97 142.7 417.21 203.49 433.75 203.49 434.01 215.68 403.62 215.68 402.19 142.7 415.97 142.7" style="fill: #fff; stroke-width: 0px;"/>
        <path d="m436.91,245.73l20.38,73.72h-14.79l-3.29-12.73h-17.64l-2.63,12.73h-13.83l16.82-73.72h14.99Zm-13.55,51.18h13.67l-.56-2.19c-.45-1.76-.89-3.5-1.31-5.22s-.85-3.43-1.25-5.14-.79-3.41-1.15-5.12-.71-3.43-1.03-5.18c-.13-.81-.27-1.62-.4-2.45s-.27-1.66-.4-2.49-.26-1.67-.38-2.51-.24-1.67-.34-2.49l-2,.04c-.12,2.64-.35,5.29-.64,7.94s-.67,5.3-1.09,7.94-.89,5.28-1.38,7.9-1,5.23-1.51,7.82l-.22,1.13" style="fill: #fff; stroke-width: 0px;"/>
        <polygon points="390.52 142.7 391.91 215.68 378.08 215.68 376.73 142.7 390.52 142.7" style="fill: #fff; stroke-width: 0px;"/>
        <polygon points="370.94 142.7 371.15 154.49 358.84 154.49 359.91 215.68 346.08 215.68 345.04 154.49 332.73 154.49 332.54 142.7 370.94 142.7" style="fill: #fff; stroke-width: 0px;"/>
        <path d="m397.32,245.73l1.43,73.72h-13.26l-20.32-45.05-1.9.54c.15.64.28,1.3.4,1.97s.21,1.36.3,2.07.15,1.42.19,2.15.08,1.47.09,2.23l.64,36.08h-13.91l-1.26-73.72h13.34l20.28,45.04,1.9-.54c-.22-.94-.41-1.85-.57-2.73s-.3-1.74-.42-2.57-.2-1.64-.27-2.42-.1-1.55-.12-2.3l-.64-34.47h14.09Z" style="fill: #fff; stroke-width: 0px;"/>
        <path d="m326.67,142.7l.88,54.8c.02.99.02,1.95-.02,2.87s-.12,1.83-.27,2.73-.38,1.78-.71,2.68-.76,1.79-1.33,2.72c-1.12,1.83-2.6,3.28-4.27,4.41s-3.53,1.96-5.42,2.56-3.83.96-5.64,1.18-3.5.29-4.91.29c-3.52,0-6.7-.43-9.48-1.25s-5.17-2.04-7.13-3.61c-1.95-1.57-3.47-3.5-4.51-5.76s-1.6-4.83-1.64-7.69l-.77-55.92h13.79l.7,48.73v.46c.02,1.02.03,2.06.09,3.11s.16,2.08.35,3.08.47,1.95.89,2.82.96,1.66,1.69,2.34c.37.34.77.64,1.21.89s.91.47,1.42.64,1.05.3,1.63.39,1.19.13,1.83.13,1.28-.04,1.86-.13,1.13-.21,1.64-.38.98-.38,1.41-.63.82-.55,1.18-.89c.66-.63,1.15-1.38,1.52-2.2s.6-1.72.75-2.66.22-1.92.25-2.9.01-1.97,0-2.93l-.77-49.87h13.79Z" style="fill: #fff; stroke-width: 0px;"/>
        <path d="m324.65,245.73l19.97,73.72h-14.8l-3.21-12.73h-17.64l-2.7,12.73h-13.83l17.23-73.72h14.99Zm-13.84,51.18h13.67l-.53-2.15c-.44-1.76-.87-3.5-1.29-5.23s-.83-3.44-1.22-5.15-.77-3.42-1.13-5.13-.69-3.44-1.01-5.18c-.12-.76-.25-1.54-.38-2.35s-.26-1.64-.38-2.48-.25-1.69-.37-2.55-.23-1.71-.34-2.56l-2,.04c-.14,2.64-.38,5.29-.69,7.94s-.7,5.3-1.13,7.94-.92,5.28-1.42,7.9-1.03,5.23-1.55,7.82l-.24,1.13" style="fill: #fff; stroke-width: 0px;"/>
        <path d="m156.7,131c-.3,0-.66.03-1.04.11s-.77.22-1.16.44-.76.53-1.09.95-.61.95-.82,1.63h-5.86c.18-1.47.41-2.91.76-4.25s.82-2.57,1.47-3.61,1.49-1.91,2.59-2.51c1.1-.6,2.45-.94,4.12-.94.6,0,1.17.06,1.73.17s1.1.26,1.63.44,1.05.39,1.55.62,1.01.46,1.51.7c.48.23.97.46,1.46.68s.99.42,1.5.6,1.03.32,1.56.43,1.07.16,1.63.16c.87,0,1.55-.12,2.1-.33s.95-.5,1.26-.84.52-.73.68-1.13.27-.82.38-1.21c0-.03.02-.06.03-.09s.02-.06.03-.09.02-.06.02-.09.01-.06.02-.09l6,.34c-.25,1.42-.54,2.84-.94,4.17s-.92,2.58-1.6,3.64-1.53,1.96-2.61,2.58-2.39.98-3.98.98c-.58,0-1.16-.06-1.73-.16s-1.14-.24-1.71-.41-1.13-.37-1.69-.58-1.11-.43-1.66-.66c-.53-.21-1.06-.42-1.58-.62s-1.03-.38-1.54-.53-1.01-.28-1.52-.37-1-.14-1.51-.14Z" style="fill: #fff; stroke-width: 0px;"/>
        <path d="m170.1,142.7l19.31,72.99h-14.72l-3.11-12.6h-17.55l-2.78,12.6h-13.76l17.69-72.99h14.92Zm-14.15,50.68h13.6l-.52-2.17c-.42-1.74-.84-3.46-1.25-5.17s-.8-3.4-1.18-5.09-.74-3.38-1.08-5.07-.66-3.4-.96-5.12c-.12-.8-.25-1.61-.37-2.42s-.25-1.64-.36-2.47-.23-1.66-.34-2.48-.21-1.65-.31-2.46l-1.98.04c-.16,2.62-.42,5.24-.75,7.86s-.74,5.24-1.19,7.86-.95,5.23-1.47,7.82-1.06,5.18-1.6,7.74l-.23,1.12" style="fill: #fff; stroke-width: 0px;"/>
        <path d="m237.69,151.6c1.59,2.01,2.83,4.24,3.81,6.58s1.68,4.79,2.19,7.23.82,4.89,1.02,7.22.26,4.55.29,6.55c.03,2.12,0,4.39-.14,6.73s-.41,4.74-.87,7.14-1.11,4.79-2.03,7.09-2.11,4.52-3.64,6.58c-1.17,1.57-2.52,3-4.02,4.25-1.49,1.25-3.12,2.33-4.85,3.21s-3.54,1.57-5.4,2.03-3.77.71-5.67.71-3.77-.24-5.62-.71c-1.86-.47-3.68-1.15-5.42-2.03-1.74-.88-3.41-1.96-4.94-3.21s-2.94-2.67-4.17-4.25c-1.59-2.02-2.83-4.26-3.8-6.6s-1.67-4.78-2.18-7.22-.82-4.88-1-7.2-.25-4.53-.27-6.52c-.02-2.14,0-4.42.16-6.77s.42-4.76.89-7.17,1.12-4.8,2.05-7.1,2.12-4.52,3.65-6.57c1.12-1.52,2.44-2.9,3.92-4.13s3.11-2.28,4.84-3.15,3.56-1.55,5.43-2.01c1.87-.46,3.79-.71,5.69-.71s3.77.24,5.63.7c1.86.46,3.68,1.13,5.41,2s3.39,1.93,4.92,3.15,2.92,2.63,4.14,4.17Zm-19.44,52.9c2.67,0,4.76-1.01,6.39-2.67,1.63-1.66,2.81-3.97,3.64-6.58s1.34-5.52,1.62-8.37.35-5.65.32-8.05-.16-5.19-.5-8.03-.91-5.75-1.8-8.35-2.11-4.9-3.78-6.55-3.77-2.65-6.43-2.65-4.75,1-6.38,2.65-2.8,3.95-3.64,6.55-1.34,5.5-1.63,8.35-.36,5.64-.34,8.03.15,5.19.5,8.05.91,5.76,1.8,8.37,2.12,4.92,3.78,6.58c1.67,1.66,3.78,2.67,6.45,2.67" style="fill: #fff; stroke-width: 0px;"/>
        <path d="m188.12,288.74c.55.86.99,1.76,1.35,2.66s.63,1.81.83,2.7.33,1.75.42,2.57.12,1.58.13,2.27c.01,1.52-.09,2.95-.31,4.28s-.56,2.59-1.02,3.77-1.05,2.29-1.76,3.33-1.55,2.02-2.52,2.94c-1.08,1.03-2.28,1.93-3.58,2.71s-2.71,1.42-4.23,1.94c-1.52.52-3.14.91-4.87,1.17s-3.56.39-5.49.39h-15.88l-.53-73.72h15.94c.86,0,1.96,0,3.21.08,1.25.08,2.64.24,4.1.55s2.98.79,4.49,1.5c1.5.71,2.99,1.65,4.37,2.92,1,.9,1.9,1.94,2.68,3.1s1.46,2.41,2.02,3.75.98,2.76,1.28,4.23.46,2.99.47,4.53c0,1.05-.05,2.04-.18,2.98s-.34,1.82-.62,2.66-.63,1.63-1.07,2.38-.94,1.46-1.53,2.14c-.42.48-.87.92-1.33,1.33s-.94.79-1.44,1.14-1.01.66-1.54.94-1.08.53-1.64.74l-2.4.91,2.44.85c.86.3,1.68.66,2.46,1.08s1.52.89,2.21,1.42,1.33,1.11,1.92,1.74,1.13,1.31,1.61,2.04Zm-14.2,17.01c.52-.46.98-.99,1.39-1.58s.75-1.24,1.03-1.93.5-1.43.64-2.2.21-1.56.21-2.37c0-.9-.09-1.77-.25-2.6s-.39-1.61-.69-2.34-.67-1.41-1.11-2.04-.94-1.18-1.51-1.68c-.48-.4-1.04-.76-1.64-1.08s-1.25-.6-1.93-.82-1.38-.4-2.09-.52c-.71-.12-1.42-.18-2.12-.18h-1l.17,21.99h1c.76,0,1.52-.06,2.26-.18s1.46-.3,2.14-.53,1.33-.51,1.92-.83,1.12-.69,1.58-1.1m-9.31-49.58l.16,20.6,1.06-.04c.72-.03,1.45-.13,2.16-.28s1.42-.36,2.09-.61,1.3-.55,1.86-.89,1.07-.71,1.49-1.1c.47-.44.87-.93,1.22-1.48s.64-1.14.87-1.78.4-1.33.51-2.07.16-1.53.16-2.36c0-.3,0-.75-.06-1.29s-.14-1.19-.32-1.89-.45-1.43-.86-2.16-.94-1.45-1.65-2.11c-.45-.42-.95-.79-1.5-1.11s-1.14-.58-1.79-.79-1.33-.37-2.07-.48-1.52-.16-2.35-.16h-1" style="fill: #fff; stroke-width: 0px;"/>
        <path d="m226.88,245.73l19.62,73.72h-14.79l-3.16-12.73h-17.64l-2.76,12.73h-13.83l17.58-73.72h14.99Zm-14.09,51.18h13.68l-.54-2.19c-.43-1.76-.85-3.5-1.26-5.22s-.81-3.43-1.2-5.14-.75-3.41-1.1-5.12-.68-3.43-.98-5.18c-.13-.81-.25-1.62-.38-2.45s-.25-1.66-.37-2.49-.24-1.67-.35-2.51-.22-1.67-.32-2.49l-2,.04c-.15,2.64-.4,5.29-.73,7.94s-.72,5.3-1.17,7.94-.94,5.28-1.46,7.9-1.05,5.23-1.59,7.82l-.24,1.13" style="fill: #fff; stroke-width: 0px;"/>
        <path d="m277.18,244.94c.76,0,1.51.04,2.26.11s1.5.19,2.24.34,1.49.34,2.24.57,1.49.49,2.25.79l.18,12.81c-.72-.46-1.44-.83-2.14-1.13s-1.4-.52-2.07-.69-1.31-.28-1.91-.35-1.17-.1-1.68-.1c-.93,0-1.82.08-2.68.23s-1.68.38-2.47.69c-.79.31-1.54.69-2.26,1.15s-1.39.99-2.03,1.6c-1.1,1.05-2.07,2.33-2.91,3.82-.84,1.49-1.54,3.19-2.1,5.08s-.98,3.97-1.25,6.21-.39,4.65-.36,7.2c.01,1.08.07,2.55.23,4.23s.42,3.59.85,5.53,1.03,3.93,1.86,5.77,1.89,3.55,3.24,4.94c.43.45.94.93,1.55,1.38s1.31.9,2.12,1.28,1.72.71,2.74.94c1.02.23,2.16.37,3.42.37.46,0,1.01-.02,1.63-.09s1.31-.19,2.05-.37,1.52-.44,2.33-.79,1.64-.79,2.46-1.34l.18,13.13c-.74.36-1.46.67-2.21.93s-1.49.46-2.29.62-1.63.28-2.53.35c-.9.07-1.86.11-2.92.11-2,0-3.84-.12-5.56-.38-1.72-.26-3.31-.64-4.8-1.18-1.5-.53-2.89-1.21-4.23-2.04s-2.6-1.81-3.83-2.96c-1.77-1.65-3.33-3.52-4.67-5.6s-2.47-4.38-3.38-6.89-1.6-5.22-2.08-8.14-.73-6.04-.77-9.36.16-6.7.59-9.74,1.11-5.88,2.02-8.51,2.05-5.05,3.43-7.26c1.38-2.21,2.99-4.2,4.83-5.97,1.27-1.21,2.61-2.27,4.02-3.18s2.88-1.67,4.42-2.28,3.14-1.07,4.81-1.37c1.66-.31,3.39-.46,5.17-.46Z" style="fill: #fff; stroke-width: 0px;"/>
        <path d="m130.72,142.7l.46,72.99h-13.2l-19.63-44.6-1.89.54c.14.64.26,1.29.36,1.96s.19,1.35.27,2.05.13,1.41.16,2.13.06,1.46.06,2.21l.17,35.71h-13.84l-.29-72.99h13.27l19.59,44.58,1.9-.53c-.2-.93-.38-1.83-.53-2.71s-.28-1.72-.38-2.54-.18-1.62-.23-2.4-.08-1.54-.09-2.28l-.19-34.13h14.02Z" style="fill: #fff; stroke-width: 0px;"/>
      </g>
    </g>
  </g>
</svg>