<?xml version="1.0" encoding="UTF-8"?>
<svg id="Layer_2" data-name="Layer 2" xmlns="http://www.w3.org/2000/svg" viewBox="0 0 813.66 534.78">
  <g id="Butoes">
    <g>
      <path d="m813.59,0H19.48L0,472.48l21.2,62.3h792.46l-.87-62.3.8-472.48ZM23.27,3.65l20.16,72.38h766.07l-.74,392.62H4.19L23.27,3.65Z" style="stroke-width: 0px;"/>
      <polygon points="809.64 3.65 808.76 468.65 4.19 468.65 23.27 3.65 809.64 3.65" style="fill: #e45525; stroke: #000; stroke-miterlimit: 10; stroke-width: 4px;"/>
      <path d="m250.81,173.75l-1.37,43.81,4,17.06h17.73l1.83-60.87h9.74l-1.3,43.81,3.8,17.06h17.72l.15-74.45-1.63-19.33h-61.96l-.49,15.52,4.06,17.4h7.72Zm4.1-1.85h2.47l-2.67-11.73h12.32l-1.69,55.52h-13.83l1.31-41.94h2.52l-.42-1.85Zm34.51-11.73h9.52l-1.6,55.52h-13.84l1.24-41.94h.5l-.44-2.02.86-29.03,3.76,17.47Zm-47.96-17.47l2.72,11.79h-3.1l.37-11.79Z" style="stroke-width: 0px;"/>
      <path d="m187.09,204.8l4.39,17.13c.57,2.21,1.5,4.18,2.79,5.9,1.29,1.72,2.92,3.18,4.87,4.37,1.95,1.19,4.23,2.1,6.8,2.72,2.57.62,5.44.94,8.59.94.33,0,.68,0,1.05-.01.1,0,.21,0,.31,0,.3,0,.6-.02.91-.04.09,0,.18,0,.27-.01.36-.02.72-.04,1.1-.08.02,0,.05,0,.07,0,.51-.04,1.02-.09,1.56-.16.08-.01.17-.03.25-.04.15-.02.31-.04.46-.07.51-.07,1.02-.16,1.54-.25.11-.02.22-.03.33-.05.05,0,.1-.03.15-.04.65-.13,1.3-.28,1.96-.45.12-.03.24-.07.36-.1.35-.1.7-.19,1.06-.3.2-.06.39-.14.59-.21.11-.04.21-.06.32-.1.14-.05.28-.11.42-.16.13-.05.26-.1.39-.15.44-.17.88-.35,1.31-.55.02,0,.04-.02.06-.03.45-.21.89-.43,1.32-.67.12-.07.24-.14.36-.2.15-.08.3-.16.44-.25.2-.12.39-.25.58-.38.07-.04.14-.08.2-.13.03-.02.05-.04.08-.06.04-.03.09-.05.13-.08.33-.22.64-.46.96-.71.04-.03.08-.07.12-.1.09-.07.17-.14.26-.22.18-.15.37-.3.55-.46.13-.12.25-.24.37-.36.1-.09.2-.19.3-.29.07-.07.14-.13.2-.19.18-.18.35-.37.52-.56.1-.11.2-.23.29-.35.03-.04.06-.07.09-.11.04-.04.07-.08.11-.13.16-.2.32-.41.47-.62.15-.21.3-.43.45-.65.08-.12.16-.24.23-.36.08-.12.15-.24.22-.36.07-.12.14-.24.21-.36s.13-.24.2-.35c0-.01.01-.03.02-.04.06-.11.1-.22.16-.32.18-.36.36-.72.51-1.07.02-.04.04-.07.05-.11.06-.13.09-.26.14-.4.08-.21.18-.43.25-.64.03-.08.04-.16.07-.23.06-.18.11-.37.17-.55.08-.28.16-.55.22-.83.02-.08.05-.17.07-.25.02-.1.04-.21.06-.32.03-.12.06-.25.08-.37.03-.15.05-.3.07-.46.03-.19.06-.37.09-.56.04-.29.07-.58.1-.87.01-.12.03-.23.04-.35,0-.06,0-.12.01-.18,0-.06.01-.11.02-.17,0-.09,0-.19.01-.29.06-.79.1-1.59.12-2.43l-.25-54.5-2.02-19.33h-17.76l-1.68,51.26-.02.47c-.03.87-.05,1.76-.11,2.65-.06.89-.15,1.76-.31,2.6-.16.83-.38,1.62-.7,2.32s-.73,1.32-1.28,1.81c-.27.25-.57.47-.9.65-.33.19-.69.34-1.09.46-.39.12-.82.21-1.28.27s-.95.09-1.48.09-.99-.03-1.43-.09c-.44-.06-.86-.15-1.24-.28-.38-.12-.73-.28-1.05-.47-.06-.04-.11-.09-.17-.13l1.29-42.28-2.21-19.33h-17.76l-1.99,57.78c-.08,2.3.16,4.43.68,6.39-.02-.07-.04-.13-.06-.2Zm2.8,5.93s-.04-.07-.07-.1c.36.49.74.95,1.15,1.4-.38-.42-.75-.85-1.08-1.3Zm14.94-11.9c-.01-.06-.03-.13-.04-.19.01.06.02.13.04.19Zm-.25-1.43c0,.08.02.15.03.22,0-.05-.02-.09-.02-.14,0-.03,0-.06,0-.09Zm-15.9,5.08c.01.09.02.18.04.27-.02-.09-.02-.18-.04-.27Zm.86,7.74c-.25-.37-.49-.74-.72-1.12.22.39.46.76.72,1.12Zm32.25-67.52l4.16,17.47h9.07l-1.2,37.33c-.03.78-.06,1.53-.11,2.27-.01.14-.02.29-.03.43-.01.17-.03.33-.05.5-.03.27-.06.54-.09.81-.02.17-.05.35-.08.52-.04.26-.09.51-.14.77-.04.18-.07.35-.11.53-.06.26-.13.51-.2.76-.05.17-.1.34-.15.51-.09.27-.19.54-.29.8-.06.16-.11.31-.18.47-.14.32-.29.65-.46.97-.05.1-.09.21-.15.31-.24.44-.5.89-.8,1.34-.29.44-.61.86-.93,1.26-.03.03-.06.07-.09.1-.12.15-.26.28-.39.42-.17.19-.34.38-.52.56-.09.09-.18.17-.27.26-.29.28-.59.54-.91.8-.05.04-.1.09-.16.13-.36.28-.73.55-1.11.8-.1.06-.2.13-.29.19-.31.2-.62.39-.94.57-.1.06-.2.11-.3.17-.33.18-.67.35-1.02.51,0-.01,0-.03,0-.04.01-.11.02-.23.04-.34.04-.34.07-.67.1-1.01,0-.06.01-.11.02-.17,0-.1,0-.19.02-.29,0-.12.02-.24.03-.36,0-.12,0-.24.01-.36.03-.64.06-1.28.07-1.91l-4.18-17.2,1.63-49.87Zm-17.26,54.23c-.04-.4-.06-.8-.08-1.21.01.41.04.81.08,1.21Zm-.09-1.77c0-.15-.01-.29-.01-.44,0-.15,0-.3.01-.45,0,.3,0,.59,0,.88Zm-14.08-52.46l4.36,17.47h8.83l-1.05,31.26-.02.46c-.02.55-.04,1.12-.05,1.69,0,.07,0,.14,0,.21h0c0,.11,0,.22,0,.32,0,.29-.01.59,0,.88,0,.12.01.24.01.37,0,.12,0,.23,0,.35,0,.1.02.2.02.29.02.39.05.78.08,1.17.01.14.01.29.03.43.01.11.03.21.05.32,0,.05,0,.11.02.16,0,.04.02.08.02.12.06.41.14.82.23,1.21h0s0,0,0,0l4.29,17.16s0,0,0,0h0c.02.08.05.15.07.22h-.03s-.04,0-.06,0c-.5-.04-1-.09-1.49-.15-.27-.03-.53-.07-.79-.11-.47-.07-.93-.15-1.39-.24-.25-.05-.5-.1-.74-.15-.48-.11-.95-.23-1.41-.36-.19-.05-.38-.1-.56-.15-.63-.19-1.24-.4-1.83-.64-.09-.04-.18-.08-.27-.12-.13-.05-.24-.11-.37-.17-.35-.16-.71-.31-1.05-.48-.18-.09-.36-.19-.53-.29-.35-.19-.7-.39-1.03-.6-.18-.12-.36-.24-.54-.36-.31-.22-.62-.44-.91-.68-.16-.12-.32-.25-.47-.38-.32-.28-.63-.57-.92-.87-.05-.05-.11-.1-.16-.15-.07-.07-.14-.15-.21-.22-.35-.38-.68-.77-.99-1.19-.08-.1-.14-.22-.22-.33-.09-.13-.18-.28-.27-.41l-2.59-10.14,1.92-55.92Zm-1.86,58.27c-.01-.16-.02-.32-.03-.49,0,.16.02.32.03.49Zm.01,7.56c-.19-.36-.36-.72-.52-1.09.16.37.34.74.52,1.09Zm-.78-1.72c-.15-.4-.29-.8-.42-1.22.13.41.26.82.42,1.22Z" style="stroke-width: 0px;"/>
      <path d="m232.06,243.84h-18.16l-17.19,61.04c-.01-.05-.03-.11-.04-.16-.11-.43-.26-.97-.38-1.43l-.26-.98s-.01-.05-.02-.07c-.05-.19-.11-.42-.17-.64l-.13-.51c-.01-.06-.03-.11-.04-.17l-.4-1.52c-.02-.06-.03-.12-.05-.19l-.23-.86c-.03-.1-.05-.19-.07-.28-.13-.5-.31-1.17-.44-1.67-.01-.05-.03-.1-.04-.16l-.48-1.82c.21-.23.41-.46.6-.7.07-.09.14-.19.21-.28.07-.08.13-.17.19-.26.06-.08.13-.16.19-.25.19-.27.37-.54.54-.81,0,0,.01-.02.02-.03,0,0,0-.01.01-.02.01-.02.03-.05.04-.07.15-.24.29-.48.42-.72.04-.07.06-.14.09-.2.25-.49.49-.99.69-1.51.02-.04.04-.08.05-.12,0,0,0-.02,0-.02,0-.01,0-.02.01-.03.21-.56.39-1.13.54-1.72.02-.06.04-.12.06-.18.03-.11.04-.23.07-.35.06-.24.12-.47.17-.71.04-.23.07-.47.1-.7.02-.12.05-.22.07-.34,0-.07,0-.15.02-.23.08-.65.14-1.32.17-2.01.02-.61.02-1.23,0-1.83-.02-.61-.07-1.21-.13-1.81-.07-.6-.15-1.19-.26-1.77-.11-.58-.23-1.16-.38-1.72l-4.37-16.83c.15.57.28,1.15.38,1.73.02.11.03.21.05.32-.26-1.52-.64-2.99-1.16-4.38-.54-1.46-1.23-2.83-2.03-4.08-.81-1.25-1.74-2.39-2.79-3.38-1.47-1.4-3.07-2.44-4.7-3.23-1.63-.79-3.29-1.31-4.88-1.66-1.58-.35-3.09-.52-4.42-.61-1.33-.09-2.47-.09-3.32-.09h-17.94l-2.79,77.52,4.66,16.49h17.77c.93,0,1.83-.04,2.72-.1.27-.02.54-.04.8-.07.35-.03.71-.05,1.05-.09.28-.03.54-.08.81-.12.16-.02.32-.03.48-.05.12-.02.22-.05.34-.07.67-.11,1.33-.24,1.97-.39.16-.04.33-.07.49-.1.04-.01.09-.02.13-.03.74-.19,1.47-.4,2.17-.64.05-.02.1-.03.15-.04.14-.05.27-.11.42-.17.37-.13.75-.26,1.11-.41.18-.07.35-.16.53-.24.23-.1.46-.21.69-.31.51-.24,1.01-.5,1.49-.77.13-.07.27-.13.4-.21.05-.03.1-.07.15-.1.07-.04.15-.08.22-.12.32-.2.64-.4.96-.61.22-.15.44-.31.66-.47.05-.03.09-.07.14-.1.04-.03.08-.06.12-.09.3-.23.6-.46.89-.7.29-.24.57-.49.85-.74.09-.08.18-.16.27-.25.09-.08.17-.17.26-.25.09-.08.17-.17.25-.25.08-.08.17-.17.25-.26.12-.12.23-.25.34-.38.1-.11.2-.22.3-.33.09-.11.2-.21.29-.32.14-.16.26-.33.39-.49l2.46,9.25h17.88l3.29-12.67h13.73l3.18,12.67h18.83l-17.19-77.09-4.12-16.92Zm14.79,75.61h-14.22l-1.48-5.91h.8l-.43-2.18c-.35-1.75-.7-3.48-1.04-5.19-.34-1.71-.66-3.41-.97-5.11-.31-1.7-.6-3.39-.88-5.09-.27-1.7-.53-3.42-.75-5.15-.09-.8-.18-1.61-.27-2.43-.09-.82-.18-1.65-.26-2.48-.09-.83-.17-1.66-.24-2.49-.08-.83-.15-1.66-.21-2.48l-4.18-16.81-1.99.04c-.27,2.64-.63,5.29-1.07,7.94-.22,1.32-.46,2.65-.71,3.97-.25,1.32-.52,2.65-.8,3.97-.28,1.32-.57,2.64-.87,3.96-.3,1.32-.61,2.63-.93,3.94-.63,2.62-1.28,5.23-1.92,7.82l-.28,1.13,2.5,9.81h-4.82l-3.31,12.73h-4.83l15.97-56.81h14.55l12.66,56.81Zm-21.81-26.1c.11.56.22,1.12.33,1.67h-.64c.11-.56.2-1.12.31-1.67Zm-36.57,17c-.33.46-.7.9-1.08,1.33-.09.1-.18.2-.27.3-.4.43-.81.86-1.26,1.27-.55.5-1.12.97-1.72,1.41-.05.03-.09.07-.14.1-.37.27-.77.51-1.17.76.05-.4.09-.81.1-1.23.01-.35.01-.7,0-1.05-.01-.34-.04-.68-.07-1.01s-.08-.66-.14-.98c-.06-.32-.13-.63-.21-.94-.26-.96-.54-2-.82-3.06l-1-3.73c-.31-1.16-.63-2.33-.94-3.49l-1.71-6.37c-.03-.1-.07-.19-.1-.28-.07-.22-.12-.45-.2-.66-.03-.08-.07-.15-.1-.23-.02-.06-.04-.12-.06-.18,0-.02-.02-.04-.03-.06.04-.02.07-.03.1-.05.1-.04.19-.09.28-.13.2-.1.39-.2.58-.3.05-.03.12-.06.17-.09.03-.02.05-.04.08-.05.04-.02.09-.05.13-.07.12-.07.24-.15.36-.23.07-.05.14-.1.21-.14.02-.01.04-.03.06-.04.02-.02.05-.03.07-.05.11-.08.22-.16.32-.25.1-.08.2-.17.3-.26.03-.03.07-.06.1-.09.03-.03.06-.06.1-.09.03-.03.06-.06.1-.09.03-.03.06-.06.09-.1.08-.08.16-.17.23-.26.03-.03.06-.07.09-.1.02-.02.04-.04.06-.07.12-.15.24-.3.36-.46.03-.05.07-.1.1-.15,0,0,.01-.01.02-.02l2.44,9.14,2.39.85c.84.3,1.64.66,2.4,1.07s1.47.89,2.13,1.41c.3.24.59.5.88.76-.04.22-.06.45-.11.67-.02.11-.05.22-.07.33-.13.6-.28,1.18-.45,1.75,0,.01,0,.02-.01.03-.18.56-.38,1.1-.6,1.62-.04.1-.08.19-.12.29-.22.51-.47,1-.74,1.48-.06.11-.12.21-.19.32-.26.44-.54.88-.84,1.3-.04.05-.07.11-.11.16Zm-16.26-37.33h1c.14,0,.28.01.42.01v.04c-.09.07-.19.14-.3.2-.39.24-.83.45-1.29.65-.46.19-.96.36-1.46.5-.5.14-1.02.25-1.54.32l.42-11.95,2.75,10.23Zm21.88,24.56c0-.14-.01-.3-.02-.44,0,.1.01.21.02.3,0,.05,0,.09,0,.14Zm-.12-2.05c0,.09.03.18.03.26,0,.1,0,.19.02.29-.01-.18-.03-.36-.05-.55Zm-2.84-35.85s0,0,0,0c0,0,0,0,0,0Zm.27,10.33c-.04.16-.07.32-.11.47-.14.54-.3,1.07-.49,1.57-.02.05-.04.1-.06.14-.18.45-.38.89-.61,1.32-.14.27-.29.54-.45.8-.02.03-.03.06-.05.09-.21.33-.43.65-.66.97-.06.08-.11.15-.17.22-.24.31-.5.62-.77.93-.41.44-.84.85-1.28,1.23-.07.07-.15.13-.23.19-.42.35-.85.69-1.3.99-.06.04-.13.08-.2.13-.45.3-.92.58-1.4.83-.04.02-.08.04-.13.06-.13.06-.26.11-.39.17-.05-.25-.09-.5-.16-.76l-.86-3.23c-.03-.13-.07-.26-.1-.39l-.12-.45s-.02-.08-.03-.11c-.09-.34-.2-.77-.31-1.16l-.12-.47s0-.03-.01-.05c-.06-.22-.14-.51-.2-.75l-.19-.73c-.05-.18-.1-.37-.14-.54l-.67-2.53s-.02-.06-.02-.09l-.89-3.36s0,0,0,0l-.49-1.85c-.05-.19-.1-.39-.15-.58l-.08-.3c1.04.09,2.16.24,3.32.49,1.44.31,2.93.78,4.4,1.49,1.47.71,2.9,1.65,4.22,2.9.39.37.76.77,1.12,1.19-.06.4-.13.79-.22,1.17Zm-20.23,33.08h1c.14,0,.27.01.41.02l.45,1.65c-.19.13-.39.26-.61.38-.42.23-.88.44-1.36.62-.48.18-.99.33-1.52.45-.52.12-1.06.2-1.61.25l.47-13.49,2.76,10.13Zm22.7-38.35c0-.14,0-.28-.02-.42,0,.07.01.14.02.21,0,.07,0,.14,0,.2Zm-.13-2.02s0,.05,0,.07c0-.03,0-.06,0-.09,0,0,0,.01,0,.02Zm-3.18-4.88c-.05-.13-.09-.26-.14-.38.02.06.05.11.07.16.03.07.04.15.07.22Zm-.87-2.08c-.04-.09-.09-.17-.14-.26.04.09.09.17.14.26Zm-.95-1.71c-.05-.09-.1-.17-.16-.26.02.03.04.05.05.08.04.06.07.12.1.18Zm-1.19-1.69c-.08-.1-.16-.19-.24-.29.08.1.16.19.24.29Zm-33.33-6.63l4.61,16.91h8.64l-.5,14.13,2.66,9.8c-.66-.11-1.33-.17-1.98-.17h-1.01l-.77,21.99,3.02,11.01c-.48.02-.95.05-1.44.05h-15.87l2.64-73.72Z" style="stroke-width: 0px;"/>
      <path d="m344.81,234.62l-1.61-13.99-1.38-19.01h-13.4v-41.45l-1.47-19.33h-17.76l-2.18,76.72,3.64,17.06h34.17Zm-33.69-91.92l3.6,17.47h9.7l-1.2,43.32,2.51,12.19h-16.69l2.07-72.99Z" style="stroke-width: 0px;"/>
      <path d="m364.71,234.62l-.08-74.45-1.25-19.33h-17.76l-2.04,76.72,3.41,17.06h17.72Zm-17.15-91.92l3.37,17.47h9.96l-1.43,55.52h-13.84l1.93-72.99Z" style="stroke-width: 0px;"/>
      <path d="m329.82,243.84h-18.16l-20.66,74.62-.91-17.5-1.73,1.47c-.86.74-1.74,1.32-2.59,1.77-.86.46-1.69.79-2.48,1.02-.79.24-1.52.39-2.17.47s-1.23.11-1.69.11c-1.07,0-2.03-.11-2.89-.3-.86-.19-1.62-.46-2.29-.78-.67-.32-1.25-.69-1.75-1.07-.5-.38-.91-.78-1.26-1.16-.33-.36-.64-.75-.93-1.16,0-.5,0-.97.02-1.36.02-.76.06-1.5.11-2.23.01-.2.03-.4.05-.6.05-.59.1-1.16.16-1.73.02-.15.03-.3.05-.44.08-.68.18-1.35.29-2.01.03-.16.05-.31.08-.46.09-.52.19-1.03.3-1.53.04-.17.07-.34.11-.5.14-.61.29-1.22.45-1.8.02-.06.04-.11.05-.17.15-.53.32-1.03.49-1.53.05-.15.11-.31.16-.46.17-.45.34-.89.52-1.32.04-.09.07-.18.11-.26.22-.5.45-.97.69-1.43.09-.18.19-.34.28-.51.1-.17.19-.34.29-.5.11-.18.22-.34.33-.51.1-.16.2-.32.31-.47.11-.16.23-.32.35-.47.11-.14.22-.29.33-.43.12-.15.25-.29.37-.43.11-.13.23-.26.35-.39.22-.23.45-.46.68-.68.27-.25.54-.48.82-.69.02-.02.05-.04.07-.06.27-.2.54-.39.82-.57.04-.02.08-.05.11-.07.09-.05.17-.1.26-.15.34-.2.7-.38,1.06-.55.11-.05.22-.1.33-.14.43-.18.87-.33,1.32-.45.05-.01.1-.02.16-.03.41-.11.84-.18,1.27-.25.13-.02.25-.03.38-.05.49-.05.99-.09,1.5-.09s1.1.03,1.73.12,1.29.23,1.98.45c.69.22,1.4.52,2.11.92.71.4,1.43.9,2.13,1.53l1.63,1.44s-1.87-16.98-1.5-16.83h0l-1.72-18.11-.58-.25c-.85-.38-1.71-.71-2.56-.99-.85-.28-1.7-.51-2.56-.7s-1.72-.32-2.58-.42c-.87-.09-1.74-.14-2.62-.14-1.92,0-3.79.17-5.59.49-1.81.33-3.55.82-5.24,1.48-1.68.66-3.31,1.47-4.86,2.45s-3.05,2.12-4.48,3.42c-2.02,1.87-3.8,3.96-5.35,6.26-1.55,2.31-2.86,4.83-3.93,7.57-1.07,2.74-1.91,5.7-2.5,8.86-.59,3.16-.95,6.54-1.06,10.12-.11,3.45.02,6.7.4,9.74.25,2.07.62,4.03,1.1,5.91-.04-.14-.08-.28-.11-.42l4.02,16.62c.4,1.64.87,3.2,1.44,4.68.56,1.49,1.21,2.9,1.93,4.23s1.54,2.6,2.43,3.78c.89,1.18,1.87,2.29,2.93,3.31,1.27,1.24,2.59,2.3,3.99,3.19,1.39.9,2.86,1.62,4.44,2.2,1.58.57,3.26.99,5.08,1.27,1.82.28,3.78.41,5.91.41,1.19,0,2.28-.04,3.3-.14,1.02-.09,1.98-.24,2.9-.44s1.79-.46,2.66-.77c.87-.32,1.72-.7,2.6-1.15l.53-.26.64,1.97h17.88l3.23-12.67h14.26l2.71,12.67h18.83l-3.4-16.49-17.66-77.52Zm14.81,75.61h-14.41l-1.26-5.91h.39l-.44-2.14c-.36-1.75-.71-3.48-1.06-5.2-.34-1.72-.68-3.42-1-5.12-.32-1.7-.62-3.4-.9-5.1-.28-1.71-.54-3.42-.78-5.16-.09-.75-.18-1.53-.27-2.34-.09-.8-.19-1.63-.28-2.46-.09-.84-.18-1.68-.26-2.53-.08-.85-.16-1.7-.23-2.55l-3.56-16.81-2,.04c-.25,2.64-.6,5.29-1.03,7.94-.43,2.65-.93,5.3-1.47,7.94-.55,2.64-1.14,5.28-1.76,7.9-.62,2.62-1.25,5.23-1.89,7.82l-.28,1.13,2.14,9.81h-4.41l-3.25,12.73h-5.53l15.7-56.81h14.9l12.94,56.81Zm-22.6-24.43c.23-1.16.43-2.32.63-3.49.24,1.17.47,2.33.71,3.49h-1.34Zm-71.91-2.36c.02.17.03.34.05.51,0-.03,0-.06-.01-.09-.02-.14-.03-.28-.04-.42Zm3.67,11.71c-.03-1.29-.03-2.61.01-3.96.03-1,.09-1.99.16-2.96.02-.3.05-.59.07-.88.06-.69.13-1.37.21-2.04.04-.31.07-.61.11-.91.1-.73.21-1.44.33-2.14.03-.2.06-.4.1-.6.16-.89.34-1.75.54-2.6.05-.21.11-.42.16-.63.16-.64.33-1.28.51-1.9.08-.27.16-.54.24-.8.18-.58.38-1.16.58-1.72.08-.23.16-.46.25-.69.29-.77.6-1.52.93-2.26.03-.07.07-.14.1-.21.3-.66.62-1.31.96-1.94.13-.24.26-.47.39-.71.23-.41.46-.81.7-1.2.15-.24.3-.48.45-.72.25-.39.51-.77.77-1.14.15-.22.31-.44.47-.66.3-.4.6-.79.92-1.18.14-.17.27-.35.41-.51.46-.54.93-1.08,1.42-1.59.44-.46.9-.91,1.37-1.35.46-.42.93-.79,1.4-1.18-.16.37-.31.75-.45,1.14-.03.09-.08.18-.11.27-.02.06-.04.14-.07.2-.04.11-.08.21-.12.32-.16.48-.32.97-.46,1.47,0,.03-.02.07-.03.11-.16.55-.3,1.11-.44,1.68-.01.04-.02.09-.03.13-.02.08-.04.16-.06.24-.02.1-.04.22-.06.32-.12.53-.22,1.08-.32,1.63-.03.15-.06.29-.08.44-.01.06-.02.12-.03.18-.1.63-.19,1.28-.27,1.94,0,.05-.01.09-.02.14-.01.12-.02.24-.04.36-.04.35-.08.69-.11,1.04-.02.24-.04.49-.06.74-.02.21-.03.43-.05.64-.05.77-.1,1.54-.12,2.33,0,.29-.02.61-.02.95,0,.03,0,.05,0,.08,0,.08,0,.18,0,.27,0,.25,0,.5,0,.77,0,.06,0,.11,0,.17,0,.09,0,.2,0,.29,0,.26.01.52.02.8,0,.09,0,.17,0,.26,0,.08.01.18.01.26,0,.13,0,.25.01.38,0,.15.02.31.03.47,0,.12.01.24.02.36,0,.07.01.14.02.2.02.31.05.63.08.95.02.18.03.36.05.54.04.42.09.84.15,1.27.01.08.02.16.03.25,0,0,0,.02,0,.03.07.49.14.98.23,1.48,0,.03.01.06.02.09.03.15.06.31.09.46.07.37.15.75.23,1.12.01.07.03.13.04.2l3.92,16.64h0s0,0,0,0c0,0,0,0,0,0h0c.19.82.42,1.63.68,2.42.26.8.56,1.57.91,2.32.34.75.73,1.47,1.17,2.15.37.57.78,1.1,1.22,1.61-.45-.05-.9-.1-1.34-.17-1.71-.26-3.28-.64-4.75-1.18-1.47-.53-2.84-1.21-4.14-2.04-.97-.62-1.91-1.33-2.81-2.13-.3-.27-.6-.54-.89-.83-.47-.45-.91-.93-1.35-1.41-.14-.16-.27-.32-.41-.48-.29-.34-.57-.68-.84-1.03-.15-.2-.3-.4-.44-.6-.24-.34-.48-.68-.72-1.03-.14-.21-.28-.43-.42-.64-.23-.37-.45-.74-.66-1.12-.12-.21-.24-.42-.36-.64-.13-.24-.24-.48-.36-.72-.03-.54-.05-1.09-.07-1.65Zm15.74-.82c-.24-.27-.47-.55-.69-.84.22.29.45.56.69.83h0Zm-1.23-1.6v-.02c.09.14.19.29.28.42-.09-.13-.19-.27-.28-.4Zm-14.35,8.25c-.14-.22-.29-.44-.43-.66.14.22.28.44.43.66h0Zm-3-12.5c-.05-.22-.1-.43-.14-.65.05.22.09.43.14.65Zm-.42-2.12c-.03-.15-.06-.29-.08-.44.02.15.05.29.08.44Zm-.57-4.47c-.02-.24-.04-.49-.05-.74.02.25.03.49.05.74Zm-.14-2.15c-.01-.26-.02-.52-.03-.78,0,.26.02.52.03.78Zm-.07-3c0,.24,0,.47,0,.71,0-.24,0-.47,0-.71Zm.16,15.63c-.08-.26-.16-.53-.24-.8.08.27.15.54.24.8Zm.54,1.57c.07.19.13.38.2.56-.01-.03-.03-.06-.04-.09-.06-.15-.1-.32-.16-.47Zm2.01,4.53c.12.22.24.43.37.65-.09-.15-.18-.3-.27-.45-.04-.07-.07-.14-.1-.2Zm-.96-1.93c.06.14.14.28.2.42-.07-.14-.14-.27-.2-.42Z" style="stroke-width: 0px;"/>
      <path d="m383.71,174.19l-20.06,43.37,3.28,17.06h50.27l-1.66-13.99-.93-19.01h-13.33l20.44-43.3-2.92-17.48h-49.34l-.41,15.96,3.24,17.39h11.43Zm3.3,29.3l2.23,12.19h-11.41l20.02-43.35-2.15-12.17h11.79l-20.48,43.32Zm-15.61-60.79l2.26,12.24h-2.57l.31-12.24Z" style="stroke-width: 0px;"/>
      <path d="m454.1,140.84h-18.07l-20.88,76.72,2.96,17.06h17.79l3.14-12.54h14.25l2.71,12.54h18.75l-2.6-17.06-18.05-76.72Zm14.15,74.85h-13.33l-2.73-12.6h-.21l-1.54-9.71-.45-2.13c-.21-.99-.42-1.96-.62-2.94-.12-.59-.25-1.18-.37-1.77-.06-.3-.12-.6-.18-.9-.04-.2-.08-.41-.12-.61-.14-.7-.28-1.4-.42-2.1-.08-.7-.16-1.4-.23-2.1-.09-.84-.17-1.69-.25-2.52l-2.76-17.37-1.98.04c-.12,1.31-.26,2.61-.42,3.92,0,0,0,0,0,0,0,0,0,0,0,0-.16,1.31-.35,2.62-.55,3.93-.2,1.3-.42,2.6-.66,3.9,0,.03,0,.05-.01.08-.24,1.3-.48,2.59-.75,3.89-.26,1.31-.54,2.61-.82,3.91,0,0,0,0,0,0-.29,1.3-.58,2.61-.88,3.9-.6,2.6-1.22,5.18-1.83,7.74l-.27,1.12h0l1.59,9.71h-3.78l-3.16,12.6h-6.18l15.08-55.52h14.82l13.04,55.52Zm-20.89-24.42c.01.08.03.16.04.23h-1.49c.28-1.48.54-2.95.78-4.43l.67,4.2Zm-.27-4.09c-.02-.09-.04-.18-.06-.27.32,1.53.64,3.05.96,4.56-.3-1.42-.6-2.85-.9-4.29Zm-.89-4.37c-.05-.23-.09-.47-.13-.7.22,1.12.45,2.24.67,3.35-.18-.88-.36-1.76-.54-2.65Zm-.55-2.9s0,0,0-.01c.03.14.05.27.08.41-.03-.13-.05-.27-.08-.4Z" style="stroke-width: 0px;"/>
      <path d="m402.47,262.64h1.44l-1.28-7.07.28-11.73h-18.1l-.89,36.36c0,.23,0,.46-.01.69,0,.23,0,.47,0,.7,0,.24,0,.47.01.71s.01.48.02.73l-15.96-39.19h-16.68l-2.03,77.52,3.39,16.49h17.81l-1.04-37.77c.02-.75.02-1.49,0-2.22-.02-.73-.05-1.44-.1-2.14-.05-.7-.39-3.38-.51-4.02l.91-.26s1.7,8.31,1.7,8.15c0-.16,16.18,38.26,16.18,38.26h16.53l-3.06-16.49,1.39-58.72Zm-37.23,56.81h-13.91l1.92-73.72,3.35,16.91h13.26l18.23,44.79,1.92-.54c-.17-.93-.33-1.84-.45-2.71-.13-.88-.23-1.73-.31-2.55-.08-.83-.13-1.63-.16-2.41-.03-.78-.04-1.54-.02-2.28l-3.15-16.72.84-34.47,3.14,16.91h10.55l-1.35,56.81h-13.26l-18.38-45.05h0l-1.92.54c.12.64.22,1.3.31,1.97s.15,1.36.2,2.07.08,1.42.1,2.15c.02.73.01,1.47,0,2.23h0s-.92,36.08-.92,36.08Z" style="stroke-width: 0px;"/>
      <path d="m442.07,243.84h-18.16l-21.03,77.52,3.05,16.49h17.88l3.16-12.67h14.31l2.73,12.67h18.83l-2.69-16.49-18.08-77.52Zm-1.47,65.13l-.48-2.25h-.09l-1.66-9.81-.46-2.19s0-.02,0-.02c-.32-1.51-.63-3-.94-4.48-.1-.48-.2-.95-.29-1.43-.03-.16-.06-.31-.09-.47-.1-.8-.19-1.61-.28-2.42-.09-.83-.18-1.66-.27-2.49-.08-.83-.16-1.66-.24-2.48l-2.85-16.81-1.99.04c-.24,2.64-.58,5.29-.99,7.94-.41,2.65-.9,5.3-1.43,7.94-.27,1.32-.55,2.64-.83,3.96-.29,1.32-.58,2.63-.88,3.94-.6,2.62-1.23,5.23-1.85,7.82l-.27,1.13,1.72,9.81h-3.93l-3.18,12.73h-6.33l15.39-56.81h14.91l13.25,56.81h-13.66l-2.25-10.48Zm-5.49-17.79c-.04-.18-.07-.36-.11-.55.3,1.47.61,2.94.92,4.39-.27-1.27-.54-2.55-.8-3.84Zm-.69-3.36l-.04-.21c.11.54.22,1.09.33,1.63-.1-.47-.19-.95-.29-1.42Zm1.08,7.21h-1.74c.32-1.67.61-3.34.88-5.02.29,1.67.57,3.34.86,5.02Z" style="stroke-width: 0px;"/>
      <path d="m495.31,234.55c.23-.01.45-.03.68-.04.61-.04,1.21-.09,1.81-.15.13-.01.27-.02.4-.03.06,0,.12-.02.18-.03.75-.09,1.5-.2,2.22-.33.14-.02.27-.06.41-.08.6-.11,1.19-.24,1.76-.38.1-.03.21-.04.32-.07.1-.03.2-.06.3-.09.58-.15,1.15-.32,1.71-.49.12-.04.24-.07.35-.11.57-.19,1.14-.39,1.69-.61.08-.03.16-.07.24-.1.05-.02.11-.04.17-.06.11-.05.21-.1.32-.15.48-.21.96-.42,1.42-.65.17-.08.34-.17.51-.26.59-.31,1.18-.63,1.74-.97,0,0,0,0,.01,0,.05-.03.1-.07.16-.1.43-.26.85-.54,1.25-.82.03-.02.06-.04.08-.05.13-.09.26-.2.39-.29.3-.22.6-.44.89-.67.05-.04.1-.07.15-.11.13-.1.25-.22.37-.32.26-.22.52-.44.78-.67.07-.06.13-.11.2-.17.11-.1.21-.21.32-.31.24-.23.48-.46.71-.7.08-.08.17-.16.24-.24.08-.08.15-.17.22-.25.12-.12.24-.24.35-.37.17-.19.33-.39.49-.58.09-.1.18-.2.27-.3.04-.05.08-.11.12-.16.35-.43.69-.88,1.02-1.33.03-.04.07-.09.1-.13,0,0,0-.01.01-.02.36-.51.71-1.04,1.04-1.58.03-.04.06-.08.09-.13.07-.12.14-.25.21-.37.23-.39.46-.79.68-1.2.05-.09.11-.18.16-.28.05-.09.09-.19.14-.28.29-.57.58-1.16.85-1.77.04-.09.08-.18.12-.27.3-.69.58-1.4.84-2.12.03-.07.06-.14.09-.22.04-.11.07-.24.11-.35.09-.26.19-.52.27-.78.11-.35.22-.71.32-1.07.05-.16.1-.33.15-.49.22-.77.42-1.56.6-2.36.01-.06.03-.11.04-.17.03-.12.05-.26.07-.38.14-.67.27-1.35.39-2.04.04-.21.08-.43.11-.65.14-.85.26-1.72.36-2.61,0-.03,0-.06.01-.1.01-.11.02-.22.03-.33.08-.77.15-1.56.21-2.36.02-.25.03-.5.05-.75.05-.94.1-1.9.11-2.87.02-.85.02-1.68,0-2.5-.01-.81-.04-1.61-.08-2.39s-.1-1.53-.16-2.27c-.07-.74-.15-1.46-.24-2.17l-2.27-17.32c.02.14.03.28.05.42-.29-2.37-.71-4.55-1.24-6.55-1.14-4.28-2.78-7.74-4.65-10.53-1.87-2.79-3.97-4.91-6.04-6.53-2.07-1.61-4.11-2.71-5.85-3.46-1.4-.61-2.77-1.09-4.13-1.45-1.36-.36-2.71-.62-4.07-.8-1.36-.18-2.72-.28-4.1-.34-1.38-.06-2.78-.07-4.21-.07h-14.26l-1.55,76.72,2.59,17.06h16.37c.82,0,1.63-.03,2.42-.07Zm-2.56-61.32h2.66c.62.04,1.2.11,1.75.21.55.1,1.07.23,1.58.4.51.17,1,.4,1.49.67.49.28.98.61,1.48,1.02,1.12.88,2.07,1.92,2.87,3.05.77,1.08,1.41,2.26,1.94,3.48-.03.31-.05.62-.09.95-.16,1.54-.44,3.36-.9,5.25-.46,1.89-1.11,3.85-2.01,5.69-.91,1.83-2.07,3.53-3.57,4.9-.54.5-1.11.93-1.71,1.31s-1.23.7-1.89.95c-.66.26-1.35.46-2.06.6-.72.14-1.46.22-2.23.24l.69-28.71Zm29.71,6.4c-.02.93-.06,1.86-.11,2.81-.02.31-.05.63-.07.94-.05.67-.1,1.35-.18,2.03-.04.38-.09.75-.14,1.13-.08.62-.16,1.24-.26,1.86-.06.4-.13.79-.21,1.19-.11.61-.23,1.21-.37,1.81-.11.51-.23,1.03-.36,1.54-.03.13-.07.27-.1.4-.21.78-.44,1.55-.69,2.31-.05.14-.1.29-.15.43-.26.77-.55,1.53-.86,2.28-.04.09-.08.18-.12.28-.32.74-.66,1.47-1.03,2.18-.03.06-.06.12-.09.18-.27.52-.56,1.03-.87,1.53-.08.13-.17.26-.25.39-.23.37-.47.74-.72,1.1-.12.17-.24.34-.37.51-.23.31-.46.62-.7.93-.14.17-.27.34-.41.51-.26.31-.52.6-.79.9-.14.15-.28.31-.42.46-.19.19-.38.38-.57.56-.19.19-.38.38-.58.56-.2.18-.41.36-.61.53-.21.18-.41.36-.63.53-.21.17-.44.33-.66.5-.22.17-.44.33-.67.49-.23.16-.47.31-.71.46-.23.15-.46.3-.7.44-.05.03-.11.06-.16.09.1-.21.19-.43.29-.65.06-.14.12-.28.18-.42.17-.4.32-.81.47-1.22.02-.05.04-.1.06-.15.14-.4.27-.8.4-1.2.01-.04.02-.08.03-.12.17-.57.33-1.13.47-1.69.03-.11.05-.22.08-.33.04-.16.07-.31.11-.46.13-.59.25-1.18.35-1.74.01-.06.03-.13.04-.19,0-.04.01-.07.02-.11.02-.11.03-.21.05-.31.05-.32.1-.64.14-.95.02-.13.04-.26.05-.38.04-.3.07-.58.11-.86,0-.07.02-.14.03-.21,0-.03,0-.06,0-.09.04-.35.07-.68.1-1,0-.01,0-.03,0-.04,0-.06,0-.11.01-.17.02-.27.04-.53.05-.78,0-.1.01-.19.02-.28.01-.2.02-.4.03-.58,0-.07,0-.15,0-.22,0-.23.01-.45.02-.64,0-.41.01-.87,0-1.38,0-.51-.02-1.05-.05-1.64-.03-.58-.07-1.2-.13-1.85-.06-.65-.13-1.32-.23-2.01l-1.66-12.13c-.1-.74-.2-1.47-.3-2.19l-.28-2.02c-.04-.32-.09-.66-.13-.97-.01-.1-.03-.2-.05-.29-.07-.46-.14-.92-.23-1.39-.02-.13-.04-.25-.06-.38,0-.05-.02-.09-.03-.14-.12-.6-.25-1.21-.4-1.83,0-.03-.02-.06-.02-.09,0-.02,0-.05-.02-.07-.02-.09-.05-.18-.08-.26-.14-.53-.3-1.06-.47-1.59-.03-.09-.05-.19-.08-.28-.04-.11-.09-.21-.12-.32-.16-.47-.34-.94-.53-1.4-.05-.13-.09-.26-.15-.39-.04-.09-.08-.18-.12-.27-.05-.11-.1-.22-.15-.33-.2-.43-.41-.85-.63-1.27-.02-.03-.03-.07-.05-.11,0,0-.01-.02-.02-.03-.1-.18-.21-.36-.31-.53,1,.3,2.01.65,3.03,1.11,1.4.6,2.99,1.44,4.63,2.63,1.64,1.18,3.33,2.71,4.91,4.67,1.58,1.96,3.05,4.35,4.27,7.28.32.77.62,1.57.9,2.42Zm-.9-11.94c.04.2.07.4.11.61-.04-.2-.07-.41-.11-.61Zm.27,1.62c.03.21.06.43.09.65-.03-.22-.06-.43-.09-.65Zm2.63,7.82c0-.26-.02-.51-.02-.76,0,.21.02.42.02.64,0,.04,0,.09,0,.13Zm-.08-2.28c-.01-.29-.04-.58-.05-.87.01.21.03.41.04.62,0,.08,0,.16,0,.24Zm-.17-2.53c.01.11.02.23.02.34-.03-.29-.05-.58-.08-.87.02.18.04.35.06.53Zm-3.28-7.47c-.01-.05-.03-.11-.04-.17,0,0,0,.01,0,.02.01.05.02.1.04.15Zm.42,1.81c-.04-.17-.07-.34-.11-.51.04.17.07.34.11.51Zm-.86-3.38c-.04-.14-.09-.28-.13-.42.04.14.09.28.13.42Zm-.43-1.34c-.06-.16-.11-.32-.17-.49.06.16.12.32.17.49Zm-.47-1.29c-.06-.16-.13-.32-.19-.48.06.16.13.32.19.48Zm-1.37-3.08c-.29-.57-.59-1.12-.89-1.64.31.52.61,1.07.89,1.64Zm.95,2.06c-.27-.64-.55-1.26-.84-1.84.29.59.57,1.21.84,1.84Zm-1.95-3.88c-.32-.54-.65-1.04-.99-1.53.1.14.19.27.29.42.24.36.47.73.7,1.11Zm-2.19-3.16c.34.43.68.88,1.01,1.35-.33-.47-.67-.92-1.01-1.35Zm-.18-.22c-.36-.44-.72-.86-1.09-1.26.37.4.73.82,1.09,1.26Zm-1.1-1.27c-.37-.4-.74-.77-1.12-1.12.37.36.75.73,1.12,1.12Zm-1.3-1.29c-.36-.34-.72-.65-1.08-.95.36.3.72.62,1.08.95Zm-1.3-1.12c-.21-.17-.43-.33-.64-.49.12.09.23.16.35.25.1.08.19.16.29.24Zm-3.34-2.28c.16.09.33.19.49.29-.16-.1-.33-.2-.49-.29Zm1.32.81c.18.12.35.23.53.36-.18-.12-.35-.24-.53-.36Zm-2.19-1.28c-.13-.07-.26-.14-.39-.21.13.06.26.14.39.21Zm-29.52-3.25l2.56,17.47h10.88l-.85,43.66,1.71,11.82c-.44.01-.86.04-1.3.04h-14.47l1.47-72.99Z" style="stroke-width: 0px;"/>
      <path d="m528.13,191.02c-.02-.11-.04-.22-.05-.33l2.24,17.21c.19,1.47.45,2.96.78,4.45.33,1.48.74,2.96,1.24,4.41.5,1.45,1.1,2.87,1.81,4.25.71,1.37,1.53,2.69,2.48,3.94,1.27,1.68,2.74,3.2,4.35,4.54,1.61,1.34,3.36,2.49,5.21,3.44,1.85.94,3.79,1.68,5.77,2.17,1.98.5,4.01.76,6.03.76.57,0,1.14-.02,1.7-.06.18-.01.37-.03.55-.05.39-.04.77-.08,1.16-.13.08-.01.17-.02.25-.03.13-.02.25-.05.38-.07.36-.06.73-.13,1.09-.2.21-.04.42-.09.63-.14.12-.03.25-.05.37-.08.25-.06.5-.14.75-.21.13-.04.27-.06.41-.1.05-.02.1-.03.15-.05.47-.14.95-.3,1.41-.47.08-.03.15-.05.23-.08.54-.2,1.08-.42,1.61-.65.03-.01.07-.03.1-.04.12-.06.24-.12.37-.18.28-.13.56-.25.84-.39.09-.05.18-.1.27-.15.19-.1.38-.2.56-.3.33-.18.66-.37.98-.56.1-.06.21-.11.31-.17.09-.05.17-.12.26-.17.32-.2.62-.4.93-.61.12-.08.24-.16.36-.24.05-.04.11-.08.16-.12.34-.25.68-.5,1.01-.77.1-.08.21-.15.31-.24.02-.02.04-.03.06-.05.02-.02.05-.04.07-.06.42-.35.84-.71,1.24-1.08.01-.01.03-.02.04-.03.08-.07.15-.15.23-.23.33-.31.66-.63.97-.96.04-.04.08-.08.13-.12.16-.17.32-.34.47-.51.1-.11.19-.21.28-.32.03-.03.06-.06.08-.1.03-.04.06-.07.1-.11.15-.18.3-.36.45-.54.15-.18.29-.36.43-.55.28-.36.54-.73.8-1.09.09-.12.16-.25.25-.37.08-.12.17-.25.25-.37.08-.12.17-.25.25-.37.23-.37.45-.73.67-1.11,0,0,.01-.02.02-.03,0,0,0,0,0,0,.22-.38.43-.77.64-1.16.06-.11.11-.22.16-.33.1-.2.2-.4.3-.6.17-.35.34-.71.49-1.07.05-.11.11-.23.16-.34.04-.09.07-.18.11-.27.16-.38.31-.76.46-1.15.07-.18.14-.36.21-.54.2-.54.38-1.08.55-1.63,0-.02.01-.04.02-.06,0,0,0,0,0,0,.18-.57.34-1.14.49-1.71.05-.18.09-.37.14-.55.1-.39.2-.79.29-1.18.02-.08.04-.17.06-.25.03-.13.05-.26.08-.38.08-.37.15-.74.22-1.12.04-.21.08-.42.12-.63.02-.12.04-.23.06-.35.02-.11.03-.22.05-.33.15-.92.28-1.83.39-2.74,0,0,0-.01,0-.02.07-.6.13-1.2.18-1.8.02-.19.02-.37.04-.56.02-.21.04-.43.06-.64.04-.55.06-1.09.09-1.64.02-.33.04-.67.06-1,.04-1.05.07-2.09.09-3.09.01-.75.02-1.53.01-2.33,0-.8-.02-1.64-.05-2.49s-.07-1.72-.13-2.6-.14-1.78-.23-2.69l-1.88-17.33c.01.11.02.23.03.34-.15-1.46-.35-2.94-.62-4.43-.47-2.54-1.15-5.08-2.11-7.53-.96-2.44-2.21-4.78-3.83-6.9-1.27-1.66-2.73-3.17-4.34-4.49-1.61-1.32-3.37-2.46-5.22-3.4-1.85-.93-3.8-1.66-5.8-2.15-2-.49-4.04-.75-6.08-.75s-4.18.26-6.22.75c-2.04.49-4.03,1.22-5.91,2.15-1.88.93-3.66,2.07-5.29,3.4-1.63,1.32-3.1,2.83-4.36,4.5-1.67,2.15-2.99,4.47-4.02,6.87-1.04,2.4-1.8,4.89-2.35,7.38-.56,2.49-.91,4.99-1.13,7.42-.22,2.43-.32,4.79-.36,6.99-.04,2.05-.03,4.33.1,6.74.09,1.65.25,3.37.48,5.1Zm.21,1.35c.04.25.08.5.12.74-.04-.25-.08-.5-.12-.74Zm.45,2.39c.03.15.06.3.09.45,0-.02,0-.04-.01-.06-.03-.13-.05-.26-.08-.39Zm3.08-1.32c.01-.32.04-.65.06-.97.04-.73.09-1.47.15-2.21.06-.77.13-1.54.22-2.32,0-.02,0-.03,0-.05.1-.87.23-1.75.38-2.63.03-.21.06-.41.1-.62.04-.21.08-.41.11-.62.07-.36.14-.71.21-1.07.04-.21.09-.42.14-.63.08-.37.17-.73.27-1.1.05-.19.09-.38.15-.57.12-.47.26-.93.4-1.4.03-.08.05-.17.07-.25.17-.55.35-1.09.55-1.63.06-.16.12-.32.18-.47.14-.38.29-.76.45-1.14.08-.19.17-.39.25-.58.15-.34.31-.68.47-1.02.1-.2.19-.39.29-.59.22-.44.45-.88.7-1.31.02-.04.04-.08.06-.11.28-.48.57-.95.88-1.42.07-.11.15-.23.23-.34.32-.47.65-.94,1-1.39.28-.37.57-.72.87-1.07.02-.03.05-.06.07-.08.26-.3.53-.59.81-.88.28-.29.57-.57.86-.84.09-.08.17-.17.25-.24.38-.35.78-.69,1.19-1.02.11-.09.22-.16.33-.25.31-.24.61-.47.93-.7.16-.11.32-.22.48-.33.28-.19.55-.37.84-.55.17-.11.35-.21.52-.31.11-.07.23-.13.34-.19,0,0,0,.02,0,.03-.16.45-.3.91-.44,1.37-.02.08-.04.17-.06.25-.18.64-.35,1.29-.5,1.96-.03.12-.06.23-.09.35-.17.79-.32,1.58-.45,2.38,0,.05-.02.09-.03.14-.03.19-.05.38-.08.57-.06.41-.13.82-.18,1.23-.02.16-.03.31-.05.47-.03.29-.06.58-.1.86-.03.26-.06.53-.09.78-.02.26-.04.5-.06.75-.01.15-.03.31-.04.45-.01.13-.01.25-.02.39-.04.53-.07,1.04-.09,1.55-.01.23-.03.46-.04.69-.03.72-.05,1.42-.06,2.08-.01.66-.01,1.35,0,2.06,0,.06,0,.12,0,.18h0c0,.16.01.34.01.5,0,.51.02,1.01.04,1.54,0,.12,0,.24,0,.36,0,.16.02.32.03.48.02.49.05.99.09,1.49.01.18.02.35.03.53,0,.12.03.24.04.37.02.18.02.36.04.54.03.34.08.69.12,1.03.02.21.04.41.06.61h0s0,0,0,0c.4,3.25.81,6.51,1.21,9.76l.93,7.46s0,0,0,0c0,0,0,0,0,0,.25,2,.61,3.99,1.14,5.85.45,1.61,1.03,3.11,1.75,4.45-.28-.08-.56-.15-.83-.24-1.37-.43-2.7-.98-3.99-1.64-1.72-.88-3.35-1.96-4.85-3.21-1.5-1.25-2.87-2.67-4.06-4.25-.42-.55-.81-1.13-1.18-1.71-.12-.19-.23-.39-.34-.58-.24-.4-.47-.81-.69-1.22-.12-.23-.24-.47-.35-.7-.19-.39-.38-.78-.55-1.18-.11-.25-.21-.49-.31-.74-.16-.4-.32-.81-.47-1.22-.09-.24-.18-.48-.26-.72-.05-.16-.1-.31-.15-.47,0-.58,0-1.17.01-1.72.02-.97.05-1.98.09-3.01Zm-.11,10.04s-.03-.06-.05-.1c.01.03.03.06.04.09h0Zm16.71-8.63c0-.1,0-.21.01-.32.02-.46.04-.93.07-1.44,0-.05,0-.11.01-.16.02-.38.05-.77.08-1.17.04-.55.09-1.12.15-1.69.02-.17.03-.33.05-.51.08-.74.17-1.49.29-2.26.03-.19.06-.38.09-.56.09-.58.19-1.17.31-1.75.05-.25.1-.5.16-.75.12-.55.25-1.1.39-1.64.07-.26.13-.52.21-.78.07-.23.14-.47.21-.7.03-.1.06-.2.09-.29.12-.36.24-.71.37-1.06.02-.06.05-.12.07-.18.11-.28.22-.56.34-.84.05-.11.09-.21.14-.32.11-.23.22-.46.33-.68.05-.11.11-.22.16-.32.07-.13.14-.25.21-.37.07-.13.15-.26.23-.38.07-.12.15-.23.22-.35.08-.12.16-.24.24-.36.08-.11.16-.22.24-.32.09-.11.17-.22.26-.33.08-.1.17-.2.26-.3.1-.12.21-.23.32-.34.04-.04.08-.08.13-.13.17-.16.34-.32.52-.47.01-.01.03-.02.04-.03.17-.14.34-.26.52-.38.05-.03.1-.06.15-.1.1-.07.21-.12.31-.18.16-.09.31-.17.47-.25.1-.05.2-.09.3-.13.16-.07.33-.13.51-.18.1-.03.21-.07.31-.09.19-.05.38-.09.58-.12.09-.02.19-.04.28-.05.3-.04.6-.06.91-.06,1.56,0,2.88.48,3.99,1.3,1.11.83,2.01,2,2.75,3.4.4.76.75,1.6,1.05,2.47-.04,1.66-.15,3.69-.38,5.88-.28,2.56-.74,5.31-1.48,7.84-.74,2.53-1.77,4.83-3.2,6.5-1.42,1.67-3.24,2.71-5.56,2.71s-4.1-1.04-5.47-2.71c-.94-1.14-1.68-2.59-2.26-4.19,0-.28.01-.56.02-.87Zm3.03,8.36s-.1-.05-.15-.08c-.04-.02-.07-.05-.1-.08.08.05.17.11.25.16Zm3.44,1.2c-.11-.01-.22-.03-.32-.05.11.02.21.03.32.05Zm-1.22-.24c-.08-.02-.16-.04-.24-.06.08.02.16.04.24.06Zm-1.25-.44c-.08-.03-.15-.07-.22-.11.07.04.15.08.22.11Zm-5.66-6.7s.02.06.03.09c-.01-.03-.02-.06-.03-.09Zm1.26,2.56s-.03-.04-.05-.07c-.03-.06-.06-.12-.09-.18.05.08.09.16.14.24Zm-.59-1.07c-.05-.1-.1-.19-.15-.29.05.1.1.2.15.29Zm1.21,2.02c.05.06.09.12.14.18-.05-.06-.09-.12-.14-.18Zm1.7,1.87s-.02-.02-.03-.03c.01.01.02.02.03.03Zm-.78-.76c-.07-.08-.14-.15-.21-.23.07.08.14.15.21.23Zm33.96-22.95c0,.16,0,.33,0,.48-.01.97-.04,1.98-.09,3.01-.01.32-.04.64-.05.97-.04.73-.09,1.47-.15,2.22-.04.44-.08.88-.12,1.32-.06.55-.12,1.11-.19,1.67-.06.47-.13.94-.2,1.41-.11.72-.22,1.44-.36,2.16-.05.25-.09.49-.15.74-.05.23-.1.47-.15.7-.08.34-.16.68-.25,1.02-.06.23-.11.46-.17.68-.1.36-.2.71-.3,1.07-.06.21-.12.42-.19.63-.13.41-.27.82-.41,1.23-.04.11-.07.22-.11.32-.05.15-.11.29-.17.44,0,0,0,.02-.01.03-.2.53-.41,1.05-.64,1.57-.02.04-.03.08-.05.12-.09.2-.18.39-.27.59-.2.44-.42.87-.64,1.3-.12.23-.24.45-.36.68-.24.44-.5.86-.76,1.29-.12.2-.24.39-.36.58-.4.61-.81,1.21-1.26,1.79-.4.53-.84,1.03-1.28,1.52-.11.12-.22.24-.33.36-.45.48-.9.94-1.38,1.38-.05.05-.11.09-.17.14-.44.4-.9.78-1.37,1.15-.02.02-.04.03-.07.05-.15.12-.31.23-.46.35-.38.28-.77.56-1.16.82-.19.12-.37.25-.56.37-.44.28-.88.54-1.33.79-.04.02-.07.04-.11.06.05-.12.1-.24.15-.36.03-.07.05-.13.07-.2.09-.24.18-.48.27-.72.01-.03.02-.07.03-.1.15-.45.3-.91.44-1.37.02-.08.04-.17.06-.25.18-.64.35-1.3.5-1.97.03-.11.06-.22.08-.33.17-.78.32-1.58.44-2.38,0-.05.02-.1.03-.14.03-.19.05-.38.08-.57.06-.41.13-.81.18-1.21.02-.16.03-.31.05-.47.03-.29.06-.58.09-.86.05-.51.1-1.02.14-1.53.01-.15.03-.31.04-.45,0-.13.01-.25.02-.38.04-.53.07-1.04.09-1.55.01-.23.02-.45.03-.67.03-.71.05-1.41.06-2.07.01-.67.01-1.37,0-2.09,0-.72-.02-1.47-.05-2.24-.03-.76-.07-1.55-.13-2.34-.06-.79-.13-1.59-.22-2.39h0s0,0,0,0l-1.99-17.32c-.03-.24-.06-.49-.09-.73-.02-.17-.04-.34-.07-.52-.04-.3-.09-.6-.14-.9-.05-.33-.1-.66-.16-.99-.02-.09-.04-.17-.05-.26-.1-.54-.22-1.08-.34-1.61-.04-.18-.08-.35-.13-.53-.04-.17-.08-.34-.12-.51,0,0,0,0,0,0h0c-.03-.12-.07-.23-.1-.34-.06-.22-.12-.43-.19-.64-.03-.08-.05-.18-.07-.26-.01-.04-.02-.07-.04-.11,0-.02-.01-.05-.02-.08-.02-.06-.04-.11-.06-.17-.11-.34-.23-.67-.36-1-.02-.06-.04-.13-.07-.19-.02-.04-.04-.08-.05-.12-.09-.24-.19-.47-.29-.69,1.4.43,2.76.97,4.07,1.64,1.7.86,3.32,1.91,4.8,3.14,1.48,1.22,2.83,2.61,4,4.15.96,1.26,1.78,2.6,2.49,4.01.7,1.4,1.29,2.87,1.78,4.36.14.44.26.88.38,1.32Zm-53.94,7c-.02-.31-.03-.62-.04-.93.03.83.08,1.67.15,2.53-.04-.54-.08-1.08-.11-1.61Zm-.07,12.14c-.05-.18-.11-.37-.17-.55.05.18.11.37.17.55Zm-.04-15.92c0,.78.02,1.58.05,2.39-.03-.82-.05-1.62-.05-2.39Zm.51,17.42c.08.25.18.49.26.73-.06-.16-.13-.32-.19-.49-.03-.08-.05-.17-.08-.25Zm-.28-11.93c.07.87.16,1.75.27,2.64-.11-.89-.2-1.77-.27-2.64Zm1.05,13.96c.11.26.22.51.33.77-.11-.26-.22-.51-.33-.77Zm54.78-24.25c0-.19,0-.38,0-.57,0,.09,0,.19,0,.28,0,.1,0,.19,0,.29Zm-.04-2.56c0-.1,0-.19,0-.28,0,.02,0,.04,0,.05,0,.08,0,.15,0,.23Zm-.13-2.85c0,.09,0,.18.01.27-.01-.2-.03-.4-.04-.6,0,.11.02.22.03.33Zm-2.6-5.25c-.08-.51-.17-1.03-.27-1.54.03.16.07.32.1.48.06.36.12.71.17,1.07Zm.36,2.66c-.08-.69-.17-1.39-.27-2.09.1.7.19,1.39.27,2.09Zm-1.83-8.94c.2.62.38,1.25.55,1.87-.17-.63-.35-1.25-.55-1.87Zm.71,2.56c.12.49.23.97.33,1.46-.1-.49-.21-.97-.33-1.46Zm-.78-2.76c-.22-.68-.47-1.36-.74-2.03.03.07.06.14.09.22.23.6.45,1.2.65,1.81Zm-.99-2.61c-.2-.48-.41-.95-.64-1.41.23.46.44.93.64,1.41Zm-.97-2.07c-.23-.45-.48-.89-.74-1.33.26.44.51.88.74,1.33Zm-1.09-1.91c-.39-.61-.79-1.21-1.23-1.79.44.58.85,1.18,1.23,1.79Zm-48.71,27.2c0,.15,0,.3,0,.46,0-.15,0-.31,0-.46Z" style="stroke-width: 0px;"/>
      <path d="m537.7,286.73c.01-.13.02-.26.04-.4.07-.78.13-1.56.14-2.37,0-.34,0-.68,0-1.01s-.02-.67-.04-1c-.02-.33-.04-.66-.07-.99s-.07-.65-.11-.98c-.73-5.6-1.47-11.21-2.2-16.81.02.17.04.33.06.5-.12-1.03-.29-2.05-.52-3.03-.49-2.07-1.22-4.03-2.18-5.82-.96-1.79-2.14-3.42-3.52-4.83-1.38-1.41-2.95-2.61-4.7-3.55-1.13-.61-2.22-1.07-3.3-1.43-1.09-.36-2.17-.61-3.28-.78-1.11-.17-2.26-.27-3.47-.33-1.21-.06-2.48-.07-3.84-.07h-20.22l-1.5,77.52,2.51,16.49h17.81l.57-30.9c.18,0,.36.02.54.02s.36.01.54.02c.18,0,.36,0,.54.01s.36,0,.53,0c.87,0,1.73-.03,2.57-.09.27-.02.52-.04.79-.07.37-.03.75-.05,1.12-.1.2-.02.39-.06.58-.09.14-.02.28-.02.41-.04.15-.02.29-.06.44-.08.54-.09,1.07-.19,1.59-.3.26-.05.52-.1.77-.17.11-.03.23-.05.35-.07.51-.13.99-.28,1.48-.43.11-.03.22-.06.33-.09.02,0,.04-.01.05-.02.65-.21,1.29-.44,1.91-.7.06-.02.11-.05.16-.08.19-.08.37-.17.56-.26.48-.22.95-.44,1.41-.68.09-.05.2-.09.29-.14.13-.07.24-.15.37-.23.2-.11.41-.22.6-.34.25-.15.49-.31.73-.47.07-.05.13-.09.2-.14.04-.03.08-.06.13-.09.13-.09.26-.18.38-.27.23-.17.46-.34.69-.52.22-.18.45-.36.66-.55.13-.11.25-.22.38-.34s.25-.23.37-.34.24-.23.36-.35.24-.24.35-.36c.04-.04.08-.09.12-.13.07-.07.13-.15.2-.23.2-.22.4-.44.59-.67.21-.26.41-.53.61-.79.04-.05.08-.09.11-.14.01-.02.02-.04.04-.06.02-.03.05-.07.08-.1.27-.37.52-.76.76-1.15.09-.14.16-.29.25-.44.07-.12.14-.24.21-.36.08-.14.16-.27.23-.41.24-.45.46-.92.66-1.4.01-.03.03-.06.04-.09.03-.06.04-.13.07-.19.12-.28.23-.55.34-.83.13-.35.25-.71.36-1.07.02-.06.04-.12.06-.18.15-.48.28-.97.4-1.46.05-.21.09-.42.13-.63.02-.08.04-.15.06-.22.01-.06.02-.12.03-.18.12-.61.22-1.23.3-1.86.01-.1.02-.2.03-.3Zm-5.04-12.63s-.03.09-.05.14c-.19.6-.4,1.19-.63,1.76-.04.09-.07.18-.11.27-.25.57-.52,1.12-.81,1.65-.06.11-.12.22-.18.32-.31.53-.64,1.05-.99,1.54-.04.06-.09.11-.13.17-.35.47-.72.92-1.12,1.36-.06.06-.11.13-.17.19-.46.49-.95.97-1.47,1.41-.51.44-1.05.85-1.6,1.23-.04.02-.07.05-.11.08-.45.31-.93.59-1.42.87-.2.11-.4.23-.61.34-.39.2-.79.39-1.19.57.01-.08.02-.16.03-.23.01-.1.03-.19.05-.29,0-.05,0-.1,0-.15.05-.48.08-.98.09-1.5,0-.27,0-.54,0-.8s-.01-.52-.03-.77c-.01-.25-.03-.5-.05-.74s-.05-.48-.08-.71l-2.3-16.81c-.02-.17-.06-.32-.08-.48-.02-.13-.04-.26-.07-.38-.01-.07-.03-.13-.04-.2.08.01.17.02.26.03,1.03.16,2.03.38,3.02.71s1.98.74,2.99,1.29c1.55.83,2.9,1.85,4.05,2.99,1.15,1.15,2.12,2.42,2.91,3.77.1.18.19.35.29.53-.13.62-.27,1.23-.45,1.82Zm-22.21.56h1.76c.57,0,1.11.03,1.62.09-.45.2-.93.37-1.46.51-1.28.33-2.82.48-4.62.48l.14-.89,2.57-.19Zm25.23-7.49c0-.51,0-1.01-.02-1.52,0,.17.02.33.02.5,0,.34,0,.68,0,1.02Zm-.11-3.02c.03.33.06.66.07.99,0,.08,0,.15,0,.23-.02-.48-.06-.96-.11-1.43,0,.07.02.14.02.21Zm-2.32-1.97c-.03-.15-.06-.29-.09-.44.02.09.04.17.06.26.01.06.02.12.03.19Zm.2,1.23c-.02-.12-.04-.24-.06-.36.02.12.04.24.06.36Zm-.58-2.93c.04.15.07.3.11.44-.04-.15-.07-.3-.11-.44Zm-.25-.87c-.04-.12-.07-.24-.11-.36.04.12.07.24.11.36Zm-1.04-2.78c-.06-.13-.13-.26-.19-.39.04.09.09.18.14.27.02.04.03.08.05.13Zm.51,1.2c-.02-.06-.05-.11-.07-.17.02.06.05.11.07.17Zm-2.02-3.96c.08.13.16.26.25.39-.08-.13-.16-.26-.25-.39Zm.7,1.15c.08.14.16.28.23.42-.08-.14-.15-.28-.23-.42Zm-1.3-2.01c-.06-.08-.11-.16-.17-.24.06.08.11.16.17.24Zm-1.03-1.28c-.08-.09-.16-.17-.24-.26.06.07.14.13.2.2.02.02.03.04.05.06Zm-.95-.99c-.12-.11-.24-.22-.36-.33.12.11.24.22.36.33Zm-1.46-1.26c.14.11.27.21.4.32-.13-.11-.26-.22-.4-.32Zm-.8-.58c-.13-.09-.25-.18-.38-.26.13.08.25.17.38.26Zm-20.3,70.35h-13.91l1.42-73.72,2.47,16.91h11.07l-.28,14.99,1.54,10.75c-.22-.01-.43-.03-.65-.04l-1.08-.08-.58,31.2Z" style="stroke-width: 0px;"/>
      <path d="m610.17,234.62l-1.74-17.06.32-19.32,1.83,6.17,11.87,30.21h18.69l-1.54-17.06-8.03-20.3c.06-.05.11-.1.17-.15.09-.08.19-.15.28-.23.07-.07.13-.13.2-.2.09-.08.19-.16.27-.25.15-.14.28-.29.42-.44.1-.1.2-.19.3-.29.05-.05.09-.11.14-.16.16-.17.31-.35.47-.53.11-.13.23-.25.33-.38.05-.06.09-.12.13-.17.15-.18.28-.36.42-.55.1-.13.2-.26.3-.39.04-.06.08-.12.12-.18.13-.19.26-.38.38-.57.09-.13.18-.26.26-.4.04-.06.07-.13.11-.19.04-.06.08-.12.12-.19.08-.13.14-.27.22-.41.08-.14.16-.27.23-.41.04-.07.07-.15.11-.22.09-.17.17-.34.25-.52.11-.23.21-.46.31-.7.08-.18.15-.36.22-.54.05-.12.1-.23.14-.36.04-.12.08-.24.12-.36.06-.19.13-.37.19-.56.08-.25.15-.5.22-.75.03-.12.07-.23.1-.35.02-.07.03-.15.05-.22.02-.08.05-.16.06-.25.04-.18.07-.36.11-.54.04-.19.08-.38.12-.58.05-.28.09-.57.13-.86.03-.19.06-.37.08-.56,0-.04.01-.09.02-.13.03-.28.05-.56.07-.85.01-.16.03-.32.04-.49.03-.5.05-1,.06-1.52,0-.21,0-.42,0-.62s0-.41-.02-.62c0-.21-.02-.41-.03-.62-.01-.21-.03-.41-.05-.61l-1.55-17.37c.02.2.03.41.05.62,0,.11.01.22.02.33-.07-1.44-.27-2.85-.58-4.22-.43-1.85-1.07-3.61-1.9-5.25-.83-1.64-1.86-3.14-3.06-4.47-1.2-1.33-2.56-2.49-4.07-3.44-1.31-.82-2.71-1.47-4.17-1.97-1.46-.5-2.97-.87-4.51-1.13-1.53-.26-3.09-.42-4.63-.51-1.54-.09-3.06-.12-4.53-.12h-18.09l-1.11,76.72,1.85,17.06h17.72Zm.85-62.88h1.98c.94,0,1.81.08,2.6.25-.33.17-.66.33-1.02.46-1.14.42-2.45.63-3.91.63-.13,0-.26,0-.4,0-.13,0-.27,0-.41,0-.14,0-.28,0-.41,0-.14,0-.28,0-.41-.01l.04-1.37,1.94.05Zm11.17,43.94l-9.22-23.46c.34-.01.68-.04,1.01-.07.06,0,.13,0,.2-.01.07,0,.14-.03.21-.04.45-.06.89-.14,1.31-.25.05-.01.1-.02.15-.03.01,0,.03,0,.04-.01.39-.1.76-.22,1.12-.35.08-.03.15-.07.23-.1.04-.02.1-.03.14-.05.07-.03.12-.07.19-.1.35-.16.7-.33,1.02-.52.06-.03.12-.05.17-.09.04-.02.07-.05.11-.07.05-.03.09-.06.14-.09.09-.06.19-.12.28-.18.16-.11.31-.23.46-.34.01,0,.02-.02.03-.02,0,0,0,0,.01,0,.16-.13.32-.27.47-.41.07-.06.13-.13.2-.2.02-.02.05-.05.08-.07.02-.02.03-.04.05-.06.04-.04.08-.07.11-.11.15-.16.3-.33.44-.5.02-.02.03-.04.05-.06.03-.04.07-.09.1-.13.09-.11.18-.23.26-.34.07-.1.14-.21.21-.31.03-.05.07-.11.1-.16.02-.03.04-.06.06-.1.12-.2.23-.4.34-.6.01-.02.02-.05.03-.08.18-.35.35-.72.49-1.1,0-.02.01-.05.02-.07,0-.02.02-.03.02-.05.02-.07.04-.14.06-.21.11-.33.22-.67.3-1.02.02-.06.04-.12.05-.18.02-.08.03-.17.04-.25.07-.32.13-.66.17-1,0-.07.03-.13.03-.2l1.59,16.74,6.43,16.27h-9.34Zm11.91-45.01c-.09.24-.18.48-.27.72-.06.15-.12.31-.19.46-.11.26-.23.51-.35.76-.06.13-.12.25-.18.38-.12.23-.25.45-.37.67-.09.15-.17.31-.26.46-.15.24-.31.47-.46.7-.09.13-.17.26-.25.38-.21.3-.44.59-.68.88-.04.05-.08.11-.13.17-.28.34-.58.67-.89,1-.33.35-.69.7-1.05,1.03-.11.1-.23.19-.34.29-.27.23-.54.47-.82.7-.15.12-.32.24-.47.36-.26.2-.52.39-.79.58-.18.13-.37.25-.55.37-.27.18-.54.36-.81.53-.35.22-.69.43-1.06.64l-.61.34c.03-.38.05-.76.06-1.15,0-.17,0-.33,0-.49,0-.16,0-.32-.01-.48,0-.16-.01-.32-.02-.47-.01-.16-.02-.31-.04-.46l-1.65-17.37c-.01-.12-.03-.22-.04-.34,0-.08-.01-.16-.02-.24.84.19,1.67.41,2.47.68,1.35.46,2.64,1.05,3.83,1.8,1.22.76,2.33,1.68,3.33,2.73.99,1.05,1.87,2.23,2.61,3.51.07.12.12.26.19.38-.05.16-.1.31-.15.47Zm3.16-8.43c0,.21.01.42.02.62,0,.21,0,.42,0,.63,0-.48,0-.95-.03-1.42,0,.06,0,.11,0,.17Zm-2.48-3.78c-.04-.17-.07-.34-.11-.5.02.08.04.15.06.23.02.09.03.18.05.27Zm.39,2.5c-.02-.17-.04-.34-.06-.51.02.17.04.34.06.51Zm-.16-1.26c-.03-.17-.06-.34-.09-.51.03.17.06.34.09.51Zm-1.51-5.25c.27.62.51,1.27.72,1.92-.21-.66-.45-1.3-.72-1.92Zm.84,2.31c.05.16.09.32.14.48-.04-.16-.09-.32-.14-.48Zm-.9-2.43c-.27-.62-.58-1.22-.9-1.79.16.27.31.55.45.83.16.31.31.64.45.96Zm-1-1.97c-.33-.57-.69-1.12-1.08-1.65.38.53.75,1.07,1.08,1.65Zm-1.27-1.91c-.38-.51-.79-.99-1.22-1.45.08.09.17.18.26.27.34.38.66.78.96,1.19Zm-1.6-1.85c-.11-.11-.22-.23-.34-.34.11.11.23.22.34.34Zm-1.2-1.11c.12.1.23.2.34.3-.11-.1-.22-.2-.34-.3Zm-.61-.48c-.1-.08-.2-.16-.3-.23.1.07.2.15.3.23Zm-34.09-4.31l1.83,17.47h11.72l-.2,14.55.32,3.21-.36-.9h0s-.53,38.66-.53,38.66h-13.84l1.05-72.99Z" style="stroke-width: 0px;"/>
      <path d="m657.77,304.89l19.47-44.12-1.32-16.92h-19.99l-5.94,16.93c-.06.16-.11.31-.16.46-.05.15-.11.3-.16.45-.05.15-.1.29-.16.44-.05.14-.1.29-.15.43-.17.47-.34.93-.5,1.39-.17.46-.33.93-.5,1.42-.17.49-.34,1-.51,1.55-.18.55-.36,1.14-.55,1.79-.21-.7-.42-1.41-.64-2.11-.22-.7-.44-1.4-.65-2.07-.22-.67-.43-1.33-.63-1.94-.2-.61-.4-1.19-.58-1.7l-5.91-17.03h-19.64l1.67,16.92,17.36,40.17-.25,20.42,1.56,16.49h17.81l.37-32.97Zm-3.8,14.57h-13.91l.23-18.87,1.7,3.92-1.54-16.68h0l-10.9-25.19h9.44l5.44,15.66c.25.73.53,1.57.83,2.48s.61,1.88.92,2.86c.31.99.62,1.99.9,2.96s.56,1.92.79,2.78l.98,3.62.95-3.64c.3-1.17.58-2.18.84-3.08.26-.9.5-1.69.74-2.42s.46-1.38.68-2.02.45-1.25.68-1.88c.05-.14.1-.28.15-.43.05-.14.1-.29.16-.44s.11-.3.16-.45c.05-.15.11-.31.16-.47l5.44-15.53h6.66l-11.13,25.2-.36,31.61h0Z" style="stroke-width: 0px;"/>
      <path d="m610.08,243.84h-18.15l-19.64,74.67.2-13.26h-15.6v-42.61l-.04-18.8h-17.85l-1.32,77.52,2.2,16.49h51.52l3.06-12.67h14.31l2.82,12.67h18.84l-1.62-16.49-18.73-77.52Zm-8.12,46.12c.02.13.03.25.05.38.02.13.03.25.05.38.02.12.03.25.05.37.2,1.31.42,2.62.65,3.93h-1.76c.33-1.81.64-3.62.91-5.44.02.13.03.25.05.38Zm6.68,16.75h-.79l-1.04-9.81-.48-2.19c-.38-1.73-.75-3.43-1.11-5.12-.1-.48-.2-.96-.3-1.44-.26-1.21-.51-2.42-.75-3.62-.13-.63-.24-1.25-.36-1.88-.21-1.05-.41-2.11-.6-3.17-.12-.69-.23-1.39-.35-2.09-.19-1.11-.38-2.22-.55-3.34-.1-.73-.19-1.47-.29-2.22-.03-.23-.06-.46-.09-.69-.07-.54-.14-1.08-.2-1.62-.03-.28-.07-.57-.1-.85-.05-.42-.1-.84-.15-1.27l-.35-3.3-2,.04c-.22,2.64-.53,5.29-.92,7.94-.39,2.65-.85,5.3-1.37,7.94-.51,2.64-1.07,5.28-1.65,7.9-.58,2.62-1.18,5.23-1.78,7.82l-.27,1.13,1.09,9.81h-3.22l-3.08,12.73h-7.53l14.93-56.81h14.9l13.72,56.81h-12.44l-2.85-12.73Zm-67.68-60.99l2.17,16.91h11.41l-.72,44.5,1.56,12.32h-15.65l1.24-73.72Z" style="stroke-width: 0px;"/>
      <polygon points="299.44 142.7 297.34 215.68 283.5 215.68 285.66 142.7 299.44 142.7" style="fill: #fff; stroke-width: 0px;"/>
      <polygon points="279.87 142.7 279.52 154.49 267.19 154.49 265.33 215.68 251.5 215.68 253.41 154.49 241.08 154.49 241.46 142.7 279.87 142.7" style="fill: #fff; stroke-width: 0px;"/>
      <path d="m235.6,142.7l-1.76,54.8c-.03.99-.07,1.95-.16,2.87s-.21,1.83-.4,2.73c-.2.9-.46,1.78-.84,2.68s-.85,1.79-1.46,2.72c-1.21,1.83-2.76,3.28-4.48,4.41-1.72,1.14-3.62,1.96-5.55,2.56s-3.88.96-5.69,1.18-3.51.29-4.91.29c-3.52,0-6.68-.43-9.42-1.25s-5.07-2.04-6.95-3.61c-1.88-1.57-3.3-3.5-4.24-5.76-.93-2.25-1.37-4.83-1.27-7.69l1.92-55.92h13.78l-1.64,48.73-.02.46c-.03,1.02-.07,2.06-.06,3.11s.06,2.08.21,3.08.38,1.95.75,2.82c.37.87.88,1.66,1.58,2.34.35.34.74.64,1.16.89s.89.47,1.39.64,1.04.3,1.61.39,1.18.13,1.82.13,1.28-.04,1.87-.13,1.14-.21,1.66-.38,1-.38,1.44-.63.85-.55,1.22-.89c.69-.63,1.22-1.38,1.63-2.2s.69-1.72.88-2.66.31-1.92.39-2.9.1-1.97.13-2.93l1.63-49.87h13.79Z" style="fill: #fff; stroke-width: 0px;"/>
      <path d="m189.8,288.74c.51.86.92,1.76,1.23,2.66s.55,1.81.71,2.7.26,1.75.31,2.57.05,1.58.03,2.27c-.05,1.52-.21,2.95-.49,4.28s-.67,2.59-1.18,3.77-1.14,2.29-1.9,3.33-1.64,2.02-2.64,2.94c-1.13,1.03-2.36,1.93-3.7,2.71-1.34.77-2.78,1.42-4.31,1.94-1.54.52-3.18.91-4.92,1.17s-3.57.39-5.5.39h-15.87l2.64-73.72h15.94c.86,0,1.96,0,3.2.08,1.24.08,2.63.24,4.07.55s2.95.79,4.42,1.5c1.47.71,2.92,1.65,4.25,2.92.96.9,1.81,1.94,2.54,3.1s1.36,2.41,1.85,3.75.86,2.76,1.1,4.23c.23,1.47.33,2.99.28,4.53-.04,1.05-.14,2.04-.31,2.98s-.42,1.82-.73,2.66-.7,1.63-1.17,2.38-1,1.46-1.62,2.14c-.44.48-.9.92-1.38,1.33s-.97.79-1.48,1.14-1.04.66-1.58.94-1.1.53-1.68.74l-2.44.91,2.41.85c.85.3,1.65.66,2.42,1.08s1.48.89,2.15,1.42,1.29,1.11,1.85,1.74,1.07,1.31,1.52,2.04Zm-14.94,17.01c.54-.46,1.03-.99,1.46-1.58s.8-1.24,1.12-1.93.56-1.43.73-2.2.28-1.56.31-2.37c.03-.9-.02-1.77-.14-2.6s-.32-1.61-.59-2.34-.61-1.41-1.02-2.04-.89-1.18-1.43-1.68c-.47-.4-1.01-.76-1.59-1.08s-1.23-.6-1.9-.82-1.36-.4-2.07-.52c-.7-.12-1.41-.18-2.11-.18h-1.01l-.77,21.99h1.01c.76,0,1.52-.06,2.26-.18s1.47-.3,2.16-.53,1.35-.51,1.95-.83,1.15-.69,1.63-1.1m-7.17-49.58l-.72,20.6,1.06-.04c.72-.03,1.46-.13,2.18-.28s1.44-.36,2.11-.61,1.32-.55,1.9-.89,1.1-.71,1.54-1.1c.48-.44.91-.93,1.28-1.48s.69-1.14.94-1.78.46-1.33.6-2.07.23-1.53.26-2.36c.01-.3.03-.75,0-1.29s-.09-1.19-.24-1.89-.39-1.43-.76-2.16c-.37-.73-.88-1.45-1.56-2.11-.43-.42-.92-.79-1.45-1.11s-1.12-.58-1.75-.79-1.32-.37-2.05-.48-1.51-.16-2.33-.16h-1.01" style="fill: #fff; stroke-width: 0px;"/>
      <path d="m230.42,245.73l16.43,73.72h-14.79l-2.61-12.73h-17.64l-3.31,12.73h-13.83l20.76-73.72h15Zm-16.29,51.18h13.67l-.44-2.19c-.35-1.76-.7-3.5-1.04-5.22s-.67-3.43-.98-5.14-.61-3.41-.88-5.12c-.27-1.71-.53-3.43-.76-5.18-.09-.81-.18-1.62-.27-2.45-.09-.83-.18-1.66-.27-2.49s-.17-1.67-.24-2.51-.15-1.67-.21-2.49l-1.99.04c-.27,2.64-.63,5.29-1.07,7.94-.44,2.65-.95,5.3-1.52,7.94-.56,2.64-1.17,5.28-1.8,7.9s-1.28,5.23-1.93,7.82l-.28,1.13" style="fill: #fff; stroke-width: 0px;"/>
      <path d="m280.74,244.94c.76,0,1.51.04,2.26.11s1.49.19,2.23.34,1.48.34,2.22.57,1.47.49,2.21.79l-.37,12.81c-.7-.46-1.41-.83-2.1-1.13s-1.38-.52-2.04-.69-1.3-.28-1.9-.35-1.16-.1-1.68-.1c-.93,0-1.82.08-2.69.23s-1.7.38-2.5.69-1.57.69-2.3,1.15-1.43.99-2.1,1.6c-1.14,1.05-2.17,2.33-3.07,3.82s-1.68,3.19-2.32,5.08-1.15,3.97-1.52,6.21c-.37,2.24-.59,4.65-.67,7.2-.03,1.08-.04,2.55.04,4.23.09,1.69.27,3.59.61,5.53s.86,3.93,1.61,5.77,1.73,3.55,3.03,4.94c.41.45.9.93,1.49,1.38s1.28.9,2.07,1.28,1.69.71,2.7.94,2.14.37,3.4.37c.46,0,1.02-.02,1.64-.09s1.32-.19,2.07-.37,1.54-.44,2.36-.79,1.67-.79,2.53-1.34l-.38,13.13c-.76.36-1.5.67-2.25.93s-1.52.46-2.32.62-1.64.28-2.54.35c-.9.07-1.87.11-2.92.11-2,0-3.83-.12-5.54-.38-1.71-.26-3.28-.64-4.75-1.18-1.47-.53-2.84-1.21-4.14-2.04s-2.52-1.81-3.7-2.96c-1.7-1.65-3.17-3.52-4.43-5.6s-2.28-4.38-3.08-6.89-1.38-5.22-1.73-8.14c-.35-2.92-.48-6.04-.37-9.36s.45-6.7,1.01-9.74c.57-3.04,1.36-5.88,2.38-8.51s2.27-5.05,3.74-7.26,3.17-4.2,5.08-5.97c1.33-1.21,2.71-2.27,4.16-3.18s2.96-1.67,4.52-2.28,3.19-1.07,4.86-1.37c1.68-.31,3.41-.46,5.19-.46Z" style="fill: #fff; stroke-width: 0px;"/>
      <polygon points="324.9 142.7 323.22 203.49 339.76 203.49 339.44 215.68 309.05 215.68 311.11 142.7 324.9 142.7" style="fill: #fff; stroke-width: 0px;"/>
      <polygon points="361.35 142.7 359.46 215.68 345.63 215.68 347.56 142.7 361.35 142.7" style="fill: #fff; stroke-width: 0px;"/>
      <path d="m328.18,245.73l16.79,73.72h-14.79l-2.67-12.73h-17.64l-3.25,12.73h-13.83l20.41-73.72h14.99Zm-16.04,51.18h13.67l-.45-2.15c-.36-1.76-.72-3.5-1.06-5.23s-.68-3.44-1-5.15c-.32-1.71-.62-3.42-.91-5.13-.28-1.72-.55-3.44-.78-5.18-.09-.76-.18-1.54-.28-2.35s-.19-1.64-.28-2.48-.18-1.69-.26-2.55-.16-1.71-.23-2.56l-2,.04c-.25,2.64-.6,5.29-1.03,7.94-.43,2.65-.93,5.3-1.47,7.94-.55,2.64-1.14,5.28-1.76,7.9s-1.25,5.23-1.89,7.82l-.28,1.13" style="fill: #fff; stroke-width: 0px;"/>
      <path d="m452.5,142.7l17.15,72.99h-14.73l-2.73-12.6h-17.55l-3.16,12.6h-13.76l19.85-72.99h14.92Zm-15.66,50.68h13.6l-.45-2.13c-.37-1.75-.74-3.47-1.09-5.18s-.7-3.4-1.03-5.1-.64-3.38-.93-5.08-.56-3.4-.81-5.13c-.09-.75-.19-1.53-.29-2.33s-.2-1.62-.29-2.45-.19-1.68-.28-2.52-.17-1.69-.25-2.54l-1.98.04c-.24,2.62-.57,5.24-.98,7.86-.41,2.62-.89,5.25-1.42,7.86-.53,2.62-1.11,5.23-1.7,7.82-.6,2.6-1.22,5.18-1.83,7.74l-.27,1.12" style="fill: #fff; stroke-width: 0px;"/>
      <polygon points="415.75 142.7 387.01 203.49 412.57 203.49 412.28 215.68 366.68 215.68 394.77 154.93 371.08 154.93 371.39 142.7 415.75 142.7" style="fill: #fff; stroke-width: 0px;"/>
      <path d="m400.86,245.73l-1.75,73.72h-13.26l-18.38-45.05-1.92.54c.12.64.22,1.3.31,1.97s.15,1.36.2,2.07.08,1.42.1,2.15.01,1.47,0,2.23l-.92,36.08h-13.91l1.92-73.72h13.34l18.34,45.04,1.93-.54c-.18-.94-.33-1.85-.45-2.73s-.23-1.74-.31-2.57-.13-1.64-.16-2.42-.04-1.55-.02-2.3l.84-34.47h14.09Z" style="fill: #fff; stroke-width: 0px;"/>
      <path d="m440.45,245.73l17.2,73.72h-14.8l-2.73-12.73h-17.65l-3.18,12.73h-13.83l20-73.72h15Zm-15.77,51.18h13.67l-.46-2.19c-.37-1.76-.74-3.5-1.09-5.22s-.7-3.43-1.03-5.14-.64-3.41-.94-5.12c-.29-1.71-.57-3.43-.81-5.18-.1-.81-.2-1.62-.3-2.45-.1-.83-.2-1.66-.29-2.49-.09-.83-.19-1.67-.27-2.51s-.16-1.67-.24-2.49l-1.99.04c-.24,2.64-.58,5.29-.99,7.94-.41,2.65-.9,5.3-1.43,7.94-.53,2.64-1.11,5.28-1.72,7.9-.6,2.62-1.23,5.23-1.85,7.82l-.27,1.13" style="fill: #fff; stroke-width: 0px;"/>
      <path d="m505.38,145.19c1.64.7,3.56,1.74,5.5,3.27s3.91,3.54,5.66,6.2,3.29,5.95,4.36,10.04,1.68,8.98,1.57,14.82c-.07,4.12-.49,8.44-1.48,12.6s-2.55,8.17-4.91,11.66c-2.36,3.49-5.53,6.47-9.73,8.57-4.2,2.1-9.43,3.34-15.91,3.34h-14.47l1.47-72.99h12.26c1.42,0,2.78.01,4.11.06s2.62.15,3.89.32,2.54.41,3.81.75,2.55.79,3.86,1.36Zm-4.03,55c1.64-1.49,2.91-3.33,3.9-5.3s1.69-4.06,2.19-6.08c.5-2.01.8-3.94.98-5.58s.23-2.98.25-3.82c.02-1.21,0-2.86-.16-4.75s-.47-4.01-1.01-6.18c-.54-2.16-1.32-4.35-2.44-6.38-1.12-2.03-2.57-3.88-4.45-5.37-.67-.55-1.33-.99-1.99-1.35s-1.33-.63-2.02-.83-1.4-.35-2.16-.44-1.55-.15-2.4-.18l-1.03-.03-.97,49.94h1.63c.94,0,1.86-.08,2.73-.23s1.72-.38,2.53-.69,1.58-.68,2.32-1.14,1.44-.99,2.1-1.59" style="fill: #fff; stroke-width: 0px;"/>
      <path d="m577,151.6c1.53,2.01,2.72,4.24,3.63,6.58.91,2.34,1.56,4.79,2,7.23s.7,4.89.83,7.22c.13,2.33.14,4.55.11,6.55-.03,2.12-.12,4.39-.32,6.73-.21,2.34-.54,4.74-1.06,7.14s-1.24,4.79-2.22,7.09c-.98,2.31-2.23,4.52-3.82,6.58-1.21,1.57-2.6,3-4.12,4.25s-3.18,2.33-4.93,3.21c-1.75.88-3.58,1.57-5.46,2.03-1.87.46-3.79.71-5.7.71s-3.76-.24-5.6-.71-3.65-1.15-5.37-2.03-3.35-1.96-4.85-3.21c-1.5-1.25-2.87-2.67-4.06-4.25-1.53-2.02-2.72-4.26-3.63-6.6s-1.55-4.78-1.99-7.22c-.44-2.44-.68-4.88-.81-7.2s-.13-4.53-.1-6.52c.04-2.14.13-4.42.34-6.77.21-2.35.55-4.76,1.08-7.17.53-2.4,1.25-4.8,2.24-7.1.99-2.3,2.24-4.52,3.82-6.57,1.16-1.52,2.52-2.9,4.03-4.13,1.51-1.22,3.17-2.28,4.93-3.15,1.75-.87,3.6-1.55,5.48-2.01,1.88-.46,3.8-.71,5.71-.71s3.77.24,5.61.7c1.84.46,3.65,1.13,5.36,2,1.71.87,3.34,1.93,4.83,3.15s2.85,2.63,4.03,4.17Zm-20.85,52.9c2.67,0,4.79-1.01,6.46-2.67s2.91-3.97,3.82-6.58c.91-2.61,1.49-5.52,1.85-8.37s.5-5.65.54-8.05c.04-2.39-.02-5.19-.29-8.03-.27-2.85-.76-5.75-1.58-8.35-.82-2.6-1.99-4.9-3.61-6.55s-3.7-2.65-6.36-2.65-4.77,1-6.45,2.65-2.91,3.95-3.82,6.55-1.49,5.5-1.85,8.35c-.36,2.85-.51,5.64-.55,8.03s.01,5.19.28,8.05c.27,2.85.75,5.76,1.57,8.37.82,2.61,1.98,4.92,3.61,6.58,1.62,1.66,3.71,2.67,6.37,2.67" style="fill: #fff; stroke-width: 0px;"/>
      <path d="m523.58,248.1c1.9,1.02,3.49,2.31,4.81,3.78s2.35,3.11,3.14,4.83,1.35,3.52,1.69,5.3c.35,1.78.49,3.53.46,5.17s-.19,3.28-.49,4.78-.72,2.91-1.28,4.23-1.25,2.54-2.07,3.66c-.82,1.13-1.77,2.15-2.85,3.09-1.05.91-2.22,1.71-3.48,2.39s-2.63,1.26-4.08,1.72-3,.81-4.63,1.04-3.34.35-5.13.35c-.25,0-.5,0-.76,0s-.51-.01-.77-.02-.51-.02-.77-.03-.52-.03-.78-.05l-1.08-.09-.58,31.2h-13.91l1.42-73.72h18.23c1.29,0,2.48.01,3.62.06s2.2.14,3.24.3,2.04.38,3.04.71,1.99.75,3.01,1.3Zm-15.91,29.53c2.09,0,3.89-.2,5.42-.62s2.79-1.05,3.79-1.92c1-.86,1.75-1.96,2.25-3.29s.76-2.91.8-4.74-.15-3.5-.54-4.9-1.01-2.55-1.85-3.47c-.83-.92-1.89-1.61-3.17-2.07-1.28-.46-2.78-.69-4.5-.69h-3.77l-.4,21.69h1.97" style="fill: #fff; stroke-width: 0px;"/>
      <path d="m623.45,182.16l13.26,33.52h-14.53l-15.2-38.66-.53,38.66h-13.84l1.05-72.99h16.1c1.4,0,2.84.03,4.3.11s2.92.23,4.37.47c1.44.24,2.86.57,4.22,1.04,1.36.46,2.66,1.06,3.86,1.81,1.38.86,2.62,1.91,3.71,3.13s2.02,2.6,2.78,4.1,1.34,3.12,1.73,4.82c.39,1.7.58,3.48.56,5.3-.03,2.04-.26,3.94-.73,5.7-.46,1.76-1.15,3.39-2.06,4.89-.92,1.5-2.06,2.89-3.45,4.16s-3.01,2.44-4.88,3.52l-.71.4Zm-12.81-7.2c1.72,0,3.29-.27,4.67-.79s2.57-1.28,3.55-2.26,1.75-2.18,2.27-3.58c.53-1.39.82-2.98.84-4.73s-.2-3.39-.65-4.77c-.45-1.38-1.13-2.54-2.04-3.49s-2.03-1.66-3.36-2.14c-1.33-.48-2.88-.73-4.62-.73h-3.98l-.3,22.25.86.12c.23.03.46.05.69.07s.47.03.7.03.47.01.7.01.45,0,.67,0" style="fill: #fff; stroke-width: 0px;"/>
      <path d="m608.48,245.73l17.81,73.72h-14.79l-2.85-12.73h-17.64l-3.08,12.73h-13.83l19.39-73.72h14.99Zm-15.34,51.18h13.68l-.48-2.19c-.38-1.76-.76-3.5-1.13-5.22-.37-1.72-.73-3.43-1.07-5.14s-.67-3.41-.98-5.12-.59-3.43-.85-5.18c-.11-.81-.21-1.62-.32-2.45s-.21-1.66-.31-2.49-.2-1.67-.29-2.51-.18-1.67-.26-2.49l-2,.04c-.22,2.64-.53,5.29-.92,7.94-.39,2.65-.85,5.3-1.37,7.94-.51,2.64-1.07,5.28-1.65,7.9-.58,2.62-1.18,5.23-1.78,7.82l-.27,1.13" style="fill: #fff; stroke-width: 0px;"/>
      <polygon points="554.81 245.73 553.82 307.14 570.45 307.14 570.26 319.46 539.72 319.46 540.97 245.73 554.81 245.73" style="fill: #fff; stroke-width: 0px;"/>
      <path d="m672.92,245.73l-18.6,42.11-.36,31.61h-13.91l.38-31.62-18.21-42.1h15.19l5.47,15.75c.25.73.53,1.58.83,2.49s.61,1.89.92,2.88.62,2,.91,2.98c.29.98.56,1.93.8,2.79l.99,3.64.95-3.66c.31-1.17.59-2.19.85-3.1s.51-1.7.74-2.43.46-1.39.69-2.03.45-1.26.68-1.9c.05-.14.1-.29.16-.43s.11-.29.16-.44.11-.3.16-.45.11-.31.17-.47l5.48-15.62h15.56Z" style="fill: #fff; stroke-width: 0px;"/>
    </g>
  </g>
</svg>