<?xml version="1.0" encoding="UTF-8"?>
<svg id="Layer_2" data-name="Layer 2" xmlns="http://www.w3.org/2000/svg" viewBox="0 0 964.43 534.79">
  <g id="Butoes">
    <g>
      <path d="m953.35,0H11.08L0,472.49l12.06,62.3h940.31l12.06-62.3L953.35,0Z" style="stroke-width: 0px;"/>
      <polygon points="949.48 3.67 960.3 468.66 4.13 468.66 14.94 3.67 949.48 3.67" style="fill: #e45525; stroke: #000; stroke-miterlimit: 10; stroke-width: 4px;"/>
      <g>
        <g>
          <path d="m200.13,235.19l2.77.11c.36.01.72.03,1.07.04.35.01.71.02,1.06.03s.7.01,1.04.02.69,0,1.03,0c.83,0,1.65-.01,2.46-.03.25,0,.5-.02.75-.03.56-.02,1.11-.04,1.65-.07.28-.01.56-.03.83-.05.52-.03,1.04-.07,1.55-.12.26-.02.52-.04.77-.07.12-.01.24-.02.35-.03.48-.05.95-.11,1.42-.16.12-.01.25-.03.37-.04.02,0,.04,0,.07,0,.72-.09,1.43-.2,2.13-.31.19-.03.38-.07.57-.1.51-.09,1.01-.18,1.5-.28.24-.05.47-.1.71-.15.22-.05.45-.09.67-.14.22-.05.43-.11.65-.16.23-.06.46-.11.68-.17.47-.12.93-.25,1.38-.38.13-.04.27-.07.4-.11.04-.01.07-.02.11-.04.62-.19,1.22-.38,1.81-.59.11-.04.22-.08.33-.12.39-.14.78-.28,1.16-.43.05-.02.1-.05.16-.07.88-.35,1.72-.73,2.55-1.13.17-.08.34-.17.51-.26.26-.13.53-.26.78-.39.56-.3,1.11-.62,1.65-.95,0,0,0,0,0,0,.4-.25.79-.5,1.18-.76.08-.05.15-.11.22-.16.14-.09.27-.19.4-.29.17-.12.34-.23.5-.36.16-.12.32-.25.48-.37.13-.1.26-.2.39-.3.07-.06.15-.11.22-.17.35-.29.7-.58,1.04-.89.16-.14.32-.29.48-.44.16-.15.31-.29.47-.44.14-.13.27-.27.4-.4,0,0,.02-.02.02-.02.01-.01.02-.02.03-.03.15-.15.3-.31.45-.46.12-.12.22-.25.33-.38.27-.29.53-.59.78-.89.09-.11.19-.2.27-.31.09-.11.17-.23.26-.34.25-.31.49-.62.72-.94.1-.14.21-.26.3-.4.06-.09.12-.19.18-.28.07-.11.16-.21.23-.32.15-.23.3-.47.45-.71.1-.16.21-.31.31-.48.04-.07.07-.14.11-.2.23-.38.45-.78.66-1.18.09-.17.19-.33.28-.5.02-.03.03-.07.05-.11.34-.66.66-1.34.97-2.04.07-.16.13-.33.2-.5.17-.4.34-.81.5-1.22.06-.15.1-.3.16-.45.04-.1.08-.2.12-.3.05-.15.09-.3.14-.45.18-.52.34-1.05.5-1.6.07-.25.15-.51.22-.76.18-.66.34-1.34.5-2.03.02-.11.06-.22.08-.33,0-.02,0-.04.01-.07.16-.74.3-1.5.43-2.28.01-.08.02-.17.04-.26.04-.24.07-.49.11-.74.09-.64.18-1.28.25-1.94.02-.15.04-.28.06-.43.02-.16.02-.34.04-.5.06-.65.11-1.3.15-1.97.02-.29.04-.58.06-.88.05-.96.08-1.93.1-2.92,0-.55,0-1.09,0-1.63,0-.54-.02-1.07-.04-1.6-.02-.53-.04-1.05-.07-1.57-.03-.51-.07-1.02-.11-1.52,0,0,0,0,0,0,0,0,0-.01,0-.02,0,0,0,0,0,0-.99-11.56-1.98-23.12-2.97-34.68,0,0,0,0,0,0h0c0-.08-.02-.15-.02-.22-.03-.28-.06-.56-.09-.84-.03-.3-.06-.6-.09-.9-.01-.11-.03-.21-.04-.32-.04-.29-.08-.57-.12-.85-.04-.24-.06-.49-.1-.74-.02-.14-.05-.27-.07-.41-.05-.28-.1-.56-.15-.84-.04-.2-.07-.4-.11-.6-.03-.17-.07-.33-.11-.49-.06-.27-.12-.55-.18-.82-.04-.16-.07-.32-.1-.48-.05-.2-.1-.38-.15-.58-.07-.26-.13-.53-.21-.79-.03-.12-.06-.25-.1-.37-.06-.22-.14-.44-.2-.66-.05-.17-.1-.35-.15-.52-.02-.08-.05-.15-.08-.23-.03-.09-.05-.18-.08-.27-.08-.26-.18-.5-.27-.75-.08-.23-.16-.46-.24-.69-.02-.06-.04-.12-.06-.18-.1-.26-.21-.51-.31-.77-.02-.04-.03-.08-.05-.12-.08-.19-.15-.39-.24-.58-.01-.03-.02-.06-.03-.09,0,0,0,0,0,0,0,0,0,0,0,0-.11-.26-.24-.51-.36-.77-.08-.18-.16-.36-.25-.53-.03-.06-.05-.12-.08-.18,0,0,0,0,0-.01-.12-.24-.25-.47-.37-.71-.13-.24-.25-.49-.38-.73-.01-.02-.02-.04-.03-.06-.09-.16-.18-.31-.27-.46-.03-.05-.06-.1-.09-.16-.14-.23-.27-.47-.42-.7-.03-.04-.05-.08-.08-.12-.12-.19-.24-.36-.36-.55-.14-.22-.28-.44-.43-.65-.04-.06-.09-.12-.13-.18-.13-.19-.27-.37-.41-.56-.13-.17-.25-.35-.39-.52-.06-.08-.13-.15-.19-.23-.15-.18-.3-.36-.45-.54-.12-.14-.23-.28-.35-.42-.09-.1-.18-.19-.26-.28-.07-.08-.14-.17-.22-.25-.09-.09-.18-.18-.26-.27-.1-.11-.2-.22-.31-.33-.11-.11-.23-.22-.34-.33-.17-.17-.34-.33-.51-.49-.09-.08-.17-.17-.26-.25,0,0,0,0,0,0h0c-.14-.13-.28-.25-.43-.37-.17-.15-.35-.31-.53-.45-.07-.06-.14-.12-.21-.18-.17-.14-.36-.27-.53-.41-.18-.14-.35-.28-.53-.41-.05-.04-.11-.08-.16-.12-.19-.14-.4-.27-.6-.41l-.07-.05c-.17-.12-.34-.24-.51-.35-.03-.02-.07-.05-.1-.07-.21-.14-.43-.27-.65-.4-.09-.05-.18-.11-.27-.16-.13-.08-.25-.16-.38-.23-.01,0-.03-.02-.04-.02-.21-.12-.43-.23-.65-.35-.25-.14-.49-.27-.75-.4,0,0-.02,0-.03-.01-.12-.06-.24-.11-.36-.17-.11-.05-.22-.1-.33-.16-.25-.12-.49-.24-.74-.35-.03-.02-.07-.03-.11-.04-.2-.09-.4-.17-.6-.25-.06-.02-.12-.05-.18-.07-.21-.09-.42-.18-.63-.26-.06-.02-.13-.05-.19-.07-.06-.02-.11-.05-.17-.07-.17-.06-.34-.12-.51-.18-.07-.02-.13-.05-.2-.07-.16-.06-.32-.12-.49-.18,0,0,0,0,0,0,0,0,0,0,0,0-.09-.03-.19-.06-.28-.09-.24-.08-.49-.15-.74-.23,0,0-.01,0-.02,0-.2-.06-.39-.12-.58-.18-.12-.04-.25-.06-.38-.1-.25-.07-.51-.13-.77-.2-.18-.04-.35-.09-.53-.14-.16-.04-.32-.07-.49-.1-.26-.06-.53-.12-.8-.17-.06-.01-.12-.03-.18-.04-.09-.02-.17-.04-.26-.06-.2-.04-.4-.07-.6-.1-.27-.05-.54-.1-.82-.14-.12-.02-.24-.04-.36-.06-.24-.04-.49-.06-.74-.09-.27-.04-.55-.07-.83-.11-.39-.04-.78-.08-1.18-.12-.27-.02-.53-.05-.8-.07-.44-.03-.88-.05-1.33-.08-.24-.01-.47-.03-.71-.04-.66-.02-1.34-.04-2.02-.04-.03,0-.05,0-.08,0h-14.06s-1.13,79.63-1.13,79.63l3.62,34.17Zm6.78-73.39h8.14c4.57,0,8.62.57,12.16,1.71,3.54,1.14,6.55,2.85,9.05,5.12,1.63,1.49,3.02,3.24,4.21,5.21-.26.94-.53,1.86-.85,2.73-.81,2.23-1.81,4.25-3.01,6.07-1.2,1.82-2.6,3.44-4.2,4.86-1.55,1.38-3.3,2.58-5.25,3.61-1.96,1.03-4.12,1.88-6.5,2.57-2.38.68-4.97,1.19-7.79,1.53s-5.85.51-9.12.51c-.11,0-.22,0-.33,0-.11,0-.22,0-.33,0-.11,0-.22,0-.33,0-.11,0-.22,0-.33,0l.55-33.93h3.93Z" style="stroke-width: 0px;"/>
          <path d="m309.42,201.11c.01-.26.02-.52.04-.78.07-1.44.12-2.9.13-4.37,0-.8,0-1.59,0-2.38,0-.79-.02-1.57-.04-2.35-.02-.78-.05-1.55-.08-2.32-.03-.77-.08-1.53-.13-2.29l-2.23-34.7c.05.76.09,1.54.13,2.31.03.61.05,1.23.07,1.85-.15-4.94-.58-9.68-1.29-14.19-.96-6.09-2.42-11.79-4.39-17.08-1.97-5.29-4.44-10.17-7.4-14.64-2.97-4.47-6.43-8.53-10.39-12.16-5.53-5.07-11.67-9.01-18.03-12.06-6.36-3.05-12.95-5.22-19.37-6.75-6.42-1.53-12.67-2.43-18.35-2.95-5.69-.52-10.81-.65-14.98-.65-.68,0-1.33,0-1.96,0-.63,0-1.22.01-1.79.02-.57,0-1.11.02-1.62.03s-.99.02-1.44.03c-.28,0-.54.01-.79.02-.25,0-.49,0-.72.01s-.44,0-.64,0c-.2,0-.38,0-.55,0h-64.44l-4.96,288.56,4.44,32.38h65.06l1.6-116.28,10.15.57c1.64,0,3.26-.03,4.86-.09.49-.02.98-.04,1.47-.06,1.13-.05,2.25-.11,3.36-.18.53-.04,1.06-.07,1.59-.11,1.15-.09,2.29-.2,3.41-.32.41-.04.83-.08,1.24-.13.14-.02.27-.03.41-.04,1.38-.16,2.73-.35,4.08-.55.29-.04.56-.1.85-.14,1.2-.19,2.38-.4,3.55-.62.48-.09.95-.19,1.42-.28,1-.2,1.99-.42,2.97-.65.46-.11.92-.21,1.38-.33.26-.06.52-.12.78-.18.87-.22,1.72-.46,2.58-.7.26-.07.52-.14.78-.21,1.35-.39,2.67-.81,3.98-1.25.09-.03.18-.05.27-.08.26-.09.52-.19.78-.28.96-.33,1.92-.68,2.86-1.04.43-.16.85-.33,1.28-.5.36-.15.74-.28,1.1-.43.52-.22,1.03-.45,1.54-.67.38-.16.76-.33,1.13-.5,1.21-.55,2.41-1.11,3.58-1.71,0,0,0,0,0,0,1.17-.6,2.31-1.22,3.44-1.86.35-.2.69-.41,1.04-.61.47-.27.94-.54,1.4-.82.39-.24.77-.49,1.16-.74.2-.13.39-.25.59-.38.86-.56,1.71-1.13,2.54-1.71.16-.11.31-.23.47-.34.2-.14.39-.29.59-.43.99-.73,1.97-1.47,2.91-2.23.02-.02.04-.03.06-.05,0,0,.01,0,.02-.01.95-.77,1.88-1.57,2.79-2.39.11-.09.22-.18.32-.28.08-.07.15-.14.22-.21.15-.14.31-.28.47-.42.72-.67,1.42-1.35,2.11-2.04.15-.15.3-.31.45-.47.33-.34.66-.67.98-1.01.44-.47.88-.95,1.31-1.44.1-.11.2-.21.29-.32.61-.69,1.2-1.38,1.78-2.09.18-.21.34-.44.52-.65.17-.21.33-.42.5-.63.72-.92,1.42-1.85,2.09-2.8.02-.03.04-.06.06-.09.06-.08.11-.17.17-.25.65-.93,1.28-1.88,1.89-2.85.13-.21.27-.42.4-.64.1-.16.2-.31.3-.48.52-.86,1.03-1.74,1.52-2.63.11-.2.22-.41.33-.61.23-.43.47-.86.7-1.3.3-.59.6-1.19.89-1.79.05-.1.1-.2.15-.3.53-1.11,1.04-2.25,1.52-3.39.05-.12.11-.24.16-.37.04-.1.08-.21.12-.31.41-1,.81-2.01,1.19-3.04.05-.14.09-.27.14-.41.07-.2.14-.4.21-.6.41-1.16.79-2.33,1.15-3.53.03-.08.05-.17.08-.25.37-1.23.7-2.49,1.02-3.76.06-.25.12-.49.18-.74.05-.23.11-.45.17-.68.24-1.02.45-2.06.66-3.1.05-.23.09-.46.13-.69.24-1.29.47-2.6.66-3.93,0-.05.02-.1.02-.16.13-.92.25-1.85.36-2.79.05-.44.09-.88.13-1.33.03-.26.05-.52.08-.78.13-1.35.23-2.71.3-4.09Zm-2.1-44.53c.02.79.03,1.58.04,2.38s0,1.6,0,2.41c.01-1.69,0-3.35-.05-4.99,0,.07,0,.14,0,.21Zm-6.96-13.03c-.08-.53-.17-1.06-.26-1.59.06.35.13.69.18,1.04.03.18.05.37.07.55Zm.91,8.42c-.02-.24-.04-.48-.06-.72.02.24.04.47.06.72Zm-.37-4.27c-.05-.49-.12-.96-.18-1.45.06.48.12.96.18,1.45Zm-1.22-8.18c-.1-.54-.21-1.07-.33-1.6.11.53.22,1.06.33,1.6Zm-3.13-11.65c-.13-.37-.25-.75-.39-1.11.02.06.05.12.07.18.11.3.21.62.31.93Zm2.28,7.72c-.12-.51-.25-1.03-.38-1.54.13.51.26,1.02.38,1.54Zm-1.03-3.85c-.14-.47-.27-.94-.42-1.41.15.46.28.94.42,1.41Zm-3-8.43c-.05-.12-.11-.23-.16-.34.05.12.11.23.16.34Zm-5.08-9.54c-.26-.4-.53-.8-.79-1.2.15.22.31.43.46.65.12.18.22.37.34.55Zm3.55,6.24c-.18-.37-.38-.72-.57-1.08.19.36.38.72.57,1.08Zm-1.69-3.18c-.23-.4-.47-.8-.71-1.2.24.4.48.79.71,1.2Zm-3.87-6c-.28-.38-.56-.77-.85-1.14.29.38.57.76.85,1.14Zm-2.21-2.84c-.29-.35-.57-.7-.86-1.04.29.34.58.69.86,1.04Zm-2.45-2.8c-.26-.28-.51-.56-.78-.84.27.27.52.56.78.84Zm-133.92,11.44h57.92c.18,0,.37,0,.58,0,.21,0,.43,0,.66-.01s.49-.01.75-.02c.26,0,.54-.01.83-.02.43-.01.89-.02,1.37-.03s1-.02,1.55-.03c.54,0,1.12-.02,1.71-.02.6,0,1.22,0,1.87,0,3.93,0,8.75.12,14.08.6,5.33.48,11.18,1.31,17.18,2.72,5.99,1.41,12.13,3.41,18.04,6.22,5.91,2.81,11.59,6.44,16.67,11.11,3.18,2.93,6.01,6.16,8.49,9.7,2.48,3.54,4.61,7.38,6.39,11.52,1.59,3.7,2.88,7.65,3.9,11.83-.02.23-.05.46-.07.69-.13,1.32-.28,2.63-.47,3.93,0,.04-.01.08-.02.12-.18,1.27-.4,2.52-.63,3.76-.04.22-.08.44-.12.66-.24,1.22-.5,2.42-.79,3.61-.06.23-.11.47-.17.7-.3,1.22-.62,2.42-.97,3.6-.02.07-.05.14-.07.22-.34,1.15-.71,2.27-1.1,3.39-.07.19-.13.39-.2.58-.4,1.12-.83,2.22-1.27,3.31-.09.22-.18.43-.27.65-.46,1.1-.95,2.19-1.46,3.26-.04.09-.09.18-.14.28-.49,1.02-1.01,2.02-1.55,3-.1.18-.19.35-.29.53-.56,1.01-1.15,2-1.75,2.98-.12.2-.25.4-.38.6-.63.99-1.28,1.97-1.96,2.93-.03.04-.06.09-.1.13-.66.93-1.35,1.83-2.06,2.73-.14.17-.27.34-.41.51-.72.89-1.46,1.76-2.22,2.61-.15.17-.3.33-.45.5-.76.84-1.54,1.66-2.35,2.46-.07.07-.15.14-.22.22-.9.89-1.83,1.76-2.79,2.61-.89.78-1.81,1.54-2.74,2.28-.2.16-.41.32-.62.48-.14.11-.29.22-.43.33-.61.47-1.23.94-1.87,1.39-.17.12-.35.24-.52.37-.27.19-.54.38-.82.56-.61.42-1.24.83-1.87,1.24-.05.03-.09.06-.14.09-.4.26-.81.51-1.22.76-.65.4-1.32.79-1.99,1.17-.44.25-.88.5-1.33.75-.7.38-1.41.75-2.12,1.11-.33.17-.67.34-1.01.51-.21.1-.42.2-.63.31-.69.33-1.39.65-2.1.97-.15.07-.29.13-.44.2-.35.15-.7.31-1.05.46-.83.35-1.68.69-2.53,1.02-.36.14-.71.28-1.07.42-1.14.43-2.29.83-3.46,1.22-.43.14-.86.27-1.29.4-.86.27-1.73.54-2.61.79-.51.14-1.03.28-1.54.42-.82.22-1.65.43-2.49.63-.54.13-1.09.26-1.64.38-.83.19-1.67.36-2.52.53-.56.11-1.11.22-1.68.32-.88.16-1.77.31-2.66.45-.54.09-1.07.17-1.62.25-1,.14-2.02.27-3.04.39-.3.04-.6.08-.91.11-.38.04-.77.08-1.15.12-.99.1-2,.19-3,.27-.51.04-1.03.08-1.55.11-1.02.07-2.06.12-3.09.16-.47.02-.93.04-1.4.06-1.49.05-2.99.08-4.51.08,0,0-.01,0-.02,0l-15.43-.88-.79-.04h0s-1.68,117.85-1.68,117.85h0s-54.1,0-54.1,0l4.69-277.57,4.24,35.46Z" style="stroke-width: 0px;"/>
          <path d="m447.85,305.62h-62.65l1.13-229.85h-64.96l-2.35,288.56,2.1,32.38h127.09l-.48-32.38.11-58.71Zm-120.71-224.43l1.97,35.46h51.2l-1.02,194.51,1.34,32.97h61.24l-.03,14.64h-116.9l2.18-277.57Z" style="stroke-width: 0px;"/>
          <path d="m568.39,160.36l-2.04-12.53h-5.85l-6.6,44.9-13.14,78.74-.56,33.4h48.45s0,0,0,0l1.18-33.4-16.18-78.77-5.27-32.34Zm-5.66,41.22l4.26,26.23,7.81,38.13h-22.25l6.35-38.16,3.84-26.2Z" style="stroke-width: 0px;"/>
          <path d="m842.61,75.76h-72.82l-26.42,70.89-4.25,13.57-2.08-6.34-32.68-78.12h-71.65l-1.7,35.52,77.04,154.66,1.16,98.39-2.69,32.38h65.07l3.52-32.38-1.54-113.08,64.74-139.97,4.31-35.52Zm-108.96,129.93h5.07l7.02-22.53,24.75-66.52h46.82l-49.97,107.79.02,1.76-3.17,31.63,3.49-7.55,1.45,108.48h-54.1l-1.44-134.33-54.01-107.79h38.28" style="stroke-width: 0px;"/>
          <path d="m531.9,75.76l-71.33,288.56.45,32.38h64.87l10.64-47.71h55.21l11.36,47.71h69.24l2.25-32.38-75.77-288.56h-66.94Zm77.27,283l-11.51-48.22h-65.39l-6.11,27.31-4.68,20.91h-45.14l59.67-242.11h57.03l63.38,242.11h-47.26Z" style="stroke-width: 0px;"/>
        </g>
        <path d="m279.73,101.91c3.67,3.37,6.88,7.15,9.63,11.32s5.04,8.75,6.86,13.71c1.82,4.97,3.18,10.32,4.07,16.06.89,5.74,1.3,11.86,1.24,18.36-.06,6.19-.63,12.11-1.71,17.74-1.08,5.63-2.67,10.96-4.74,15.95s-4.65,9.66-7.7,13.95-6.58,8.22-10.56,11.73c-3.91,3.44-8.24,6.48-12.95,9.1-4.71,2.62-9.81,4.83-15.25,6.6-5.44,1.77-11.22,3.12-17.31,4.02-6.09.9-12.49,1.36-19.15,1.37l-16.22-.92-1.68,117.85h-54.1l4.69-277.57h58.65c.18,0,.37,0,.58,0s.43,0,.67-.01.49-.01.76-.02.55-.01.84-.02c.43-.01.9-.02,1.39-.03s1.02-.02,1.57-.03,1.13-.02,1.73-.02,1.24,0,1.89,0c3.98,0,8.86.13,14.26.61,5.4.48,11.32,1.32,17.39,2.75,6.07,1.43,12.28,3.45,18.26,6.29,5.98,2.84,11.73,6.51,16.88,11.23Zm-43.33,89.55c1.91-1.7,3.57-3.6,5-5.72s2.62-4.45,3.58-7.01c.96-2.56,1.69-5.34,2.18-8.36s.76-6.26.8-9.75c.07-6.34-.68-11.96-2.21-16.82-1.54-4.86-3.86-8.98-6.93-12.3-3.07-3.32-6.89-5.85-11.42-7.55-4.53-1.7-9.78-2.57-15.7-2.57h-14.06l-1.13,79.63,2.8.11c.36.01.73.03,1.08.04s.72.02,1.07.03.71.01,1.06.02.7,0,1.04,0c3.67,0,7.1-.2,10.3-.6,3.19-.4,6.15-1.01,8.87-1.82,2.73-.81,5.22-1.83,7.5-3.05,2.27-1.22,4.33-2.65,6.17-4.29" style="fill: #fff; stroke-width: 0px;"/>
        <polygon points="380.5 81.19 379.3 311.16 441.95 311.16 441.85 358.76 324.96 358.76 327.14 81.19 380.5 81.19" style="fill: #fff; stroke-width: 0px;"/>
        <path d="m594.28,81.19l72.8,277.57h-57.91l-11.51-48.22h-65.39l-10.78,48.22h-53.49l68.53-277.57h57.75Zm-53.51,190.28h49.07l-16.18-78.77-7.31-44.87h-5.85l-6.6,44.9-13.14,78.74" style="fill: #fff; stroke-width: 0px;"/>
        <polygon points="833.74 81.19 767.58 223.91 769.12 358.76 715.03 358.76 713.59 224.43 641.82 81.19 700.41 81.19 731.49 155.54 736.65 171.2 741.79 171.2 748.89 148.43 773.94 81.19 833.74 81.19" style="fill: #fff; stroke-width: 0px;"/>
      </g>
    </g>
  </g>
</svg>