<?xml version="1.0" encoding="UTF-8"?>
<svg id="Layer_2" data-name="Layer 2" xmlns="http://www.w3.org/2000/svg" xmlns:xlink="http://www.w3.org/1999/xlink" viewBox="0 0 142.88 80">
  <defs>
    <clipPath id="clippath">
      <path d="m43.83,22.62l.35,5.2c-.14-2.14-.71-3.82-1.58-5.13-.87-1.31-2.04-2.25-3.39-2.93s-2.89-1.08-4.48-1.32-3.26-.31-4.87-.31l-.52-5.31c1.63,0,3.31.07,4.93.31s3.17.65,4.54,1.34,2.55,1.64,3.43,2.96,1.45,3.02,1.59,5.19Z" style="fill: none; stroke-width: 0px;"/>
    </clipPath>
    <clipPath id="clippath-1">
      <path d="m31.38,23.69s-.08,0-.13,0-.09,0-.13,0-.09,0-.13,0-.09,0-.13,0l-.51-5.25s.09,0,.13,0,.09,0,.13,0,.09,0,.13,0,.09,0,.13,0c.44,0,.85.03,1.24.08s.76.14,1.1.24.66.25.96.41.56.36.81.58c.23.2.43.42.6.67s.33.51.46.8.23.59.31.92.14.67.17,1.03l.44,5.2c-.03-.36-.09-.7-.16-1.02s-.18-.63-.31-.91-.28-.55-.46-.79-.37-.46-.6-.66c-.24-.22-.51-.41-.8-.57s-.61-.3-.95-.4-.7-.19-1.09-.24-.8-.08-1.23-.08Z" style="fill: none; stroke-width: 0px;"/>
    </clipPath>
    <clipPath id="clippath-2">
      <path d="m35.54,23.22l.45,5.2c-.03-.3-.07-.58-.13-.85s-.15-.51-.25-.74-.22-.44-.36-.64-.3-.38-.48-.54c-.19-.17-.41-.32-.64-.45s-.5-.24-.78-.33-.58-.15-.91-.2-.67-.07-1.03-.07c-.04,0-.09,0-.13,0s-.09,0-.13,0-.09,0-.13,0-.09,0-.13,0l-.51-5.24s.09,0,.13,0,.09,0,.13,0,.09,0,.13,0,.09,0,.13,0c.37,0,.72.02,1.05.07s.63.11.92.2.55.2.79.33.46.28.65.46c.18.16.34.34.48.54s.26.41.37.65.19.48.25.75.11.55.14.85Z" style="fill: none; stroke-width: 0px;"/>
    </clipPath>
    <clipPath id="clippath-3">
      <path d="m36.53,23.18c.15,1.73.29,3.46.44,5.2,0,.06,0,.12.01.19s0,.13,0,.19,0,.13,0,.19,0,.13,0,.2c-.01.99-.15,1.87-.42,2.63-.27.77-.66,1.42-1.17,1.95s-1.13.94-1.86,1.21-1.56.42-2.5.42l-.51-5.12c.94,0,1.79-.14,2.53-.42s1.37-.69,1.88-1.22.91-1.19,1.18-1.97.42-1.66.43-2.66c0-.07,0-.13,0-.2s0-.13,0-.19,0-.13,0-.19,0-.13-.01-.19Z" style="fill: none; stroke-width: 0px;"/>
    </clipPath>
    <clipPath id="clippath-4">
      <path d="m43.83,22.62c.12,1.73.23,3.47.35,5.2,0,.1.01.2.02.31s0,.21.01.31,0,.21,0,.32,0,.22,0,.33c-.01,1.13-.14,2.2-.4,3.19s-.63,1.91-1.13,2.75-1.11,1.6-1.84,2.27-1.57,1.26-2.53,1.76l-.42-5.08c.97-.5,1.82-1.1,2.56-1.78.74-.68,1.36-1.45,1.86-2.3s.89-1.78,1.14-2.78c.26-1,.4-2.08.41-3.22,0-.11,0-.22,0-.33s0-.22,0-.32,0-.21-.01-.32-.01-.21-.02-.31Z" style="fill: none; stroke-width: 0px;"/>
    </clipPath>
    <clipPath id="clippath-5">
      <path d="m44.83,22.61l.33,5.2c0,.1.01.2.02.31s0,.21.01.31,0,.21,0,.32,0,.22,0,.33c-.01,1.18-.15,2.3-.41,3.34s-.65,2.01-1.16,2.9-1.14,1.7-1.89,2.42-1.61,1.36-2.6,1.91l-.41-5.07c.99-.55,1.87-1.2,2.63-1.93s1.39-1.55,1.91-2.45.91-1.88,1.17-2.93.4-2.18.42-3.38c0-.11,0-.22,0-.33s0-.22,0-.32,0-.21-.01-.32-.01-.21-.02-.31Z" style="fill: none; stroke-width: 0px;"/>
    </clipPath>
    <clipPath id="clippath-6">
      <path d="m64.68,23.86c-1.41,0-2.52.54-3.39,1.43s-1.51,2.13-1.98,3.53-.75,2.96-.93,4.5-.23,3.05-.24,4.34c-.06-1.7-.11-3.4-.17-5.1,0-1.31.07-2.83.24-4.39.18-1.55.47-3.13.94-4.55s1.12-2.67,2-3.56c.89-.9,2.01-1.44,3.44-1.44s2.55.54,3.43,1.44,1.52,2.15,1.99,3.56c.46,1.42.75,3,.92,4.55.17,1.55.22,3.08.22,4.39v5.1c0-1.29-.04-2.8-.21-4.34s-.45-3.1-.91-4.5c-.46-1.4-1.09-2.64-1.96-3.53s-1.98-1.43-3.39-1.43Z" style="fill: none; stroke-width: 0px;"/>
    </clipPath>
    <clipPath id="clippath-7">
      <path d="m70.15,32.36l.02,5.1c0-1-.04-2.29-.18-3.67s-.36-2.84-.75-4.17c-.38-1.33-.91-2.54-1.66-3.42s-1.69-1.42-2.91-1.42-2.2.56-2.95,1.46c-.75.9-1.29,2.15-1.67,3.51s-.61,2.86-.75,4.25c-.13,1.39-.17,2.68-.18,3.65,0,.09,0,.19,0,.29s0,.21,0,.32,0,.23,0,.36,0,.25.01.38l-.16-5.08c0-.13,0-.26-.01-.39s0-.24,0-.36,0-.22,0-.33,0-.2,0-.29c0-.98.04-2.29.18-3.69s.37-2.91.76-4.29.93-2.64,1.69-3.55,1.74-1.48,2.99-1.48,2.2.55,2.95,1.43c.75.89,1.29,2.11,1.68,3.46s.62,2.83.75,4.22.18,2.7.18,3.71Z" style="fill: none; stroke-width: 0px;"/>
    </clipPath>
    <clipPath id="clippath-8">
      <path d="m58.14,37.65c0,.12,0,.24,0,.36s0,.25,0,.38,0,.27,0,.41,0,.28.01.43l-.17-5.08c0-.15,0-.29-.01-.43s0-.28,0-.41,0-.26,0-.39,0-.25,0-.36c.03.85.06,1.71.09,2.56.03.84.07,1.69.09,2.53Z" style="fill: none; stroke-width: 0px;"/>
    </clipPath>
    <clipPath id="clippath-9">
      <path d="m79.27,33.33l-.09,5.09c0-.06,0-.13,0-.19s0-.13,0-.19,0-.13,0-.19,0-.13,0-.19c0-2.45-.25-4.94-.78-7.29-.53-2.35-1.34-4.56-2.49-6.47-1.14-1.9-2.62-3.5-4.47-4.63s-4.09-1.77-6.75-1.77-4.9.65-6.76,1.77-3.34,2.72-4.5,4.63-1.98,4.12-2.52,6.47c-.54,2.35-.8,4.84-.81,7.29,0,.19,0,.37,0,.56s0,.37,0,.56,0,.37.02.56.02.37.03.56l-.27-5.07c-.01-.19-.02-.38-.03-.57s-.01-.38-.02-.57,0-.38,0-.57,0-.38,0-.57c.02-2.48.28-4.99.82-7.37.55-2.37,1.38-4.61,2.55-6.54s2.67-3.54,4.55-4.68c1.88-1.13,4.15-1.79,6.84-1.79s4.96.65,6.83,1.79,3.37,2.75,4.53,4.68c1.16,1.93,1.98,4.17,2.52,6.54.54,2.38.78,4.89.79,7.37,0,.06,0,.13,0,.19s0,.13,0,.19,0,.13,0,.19,0,.13,0,.19Z" style="fill: none; stroke-width: 0px;"/>
    </clipPath>
    <clipPath id="clippath-10">
      <path d="m58.16,39.23l-.17-5.08c.04,1.17.14,2.53.34,3.92s.52,2.8.99,4.07,1.11,2.39,1.96,3.19c.85.81,1.91,1.29,3.24,1.29,1.49,0,2.66-.62,3.56-1.61.9-.99,1.54-2.36,2-3.85.45-1.5.72-3.12.88-4.64s.2-2.92.2-3.97v5.1c0,1.04-.03,2.43-.18,3.93s-.42,3.11-.87,4.59-1.08,2.83-1.97,3.81-2.04,1.59-3.51,1.59c-1.31,0-2.36-.48-3.2-1.28s-1.47-1.91-1.93-3.16-.78-2.65-.98-4.02-.3-2.72-.34-3.88Z" style="fill: none; stroke-width: 0px;"/>
    </clipPath>
    <clipPath id="clippath-11">
      <path d="m64.6,58.07c-2.49,0-4.61-.57-6.4-1.56s-3.23-2.41-4.38-4.11-2-3.69-2.6-5.82-.94-4.4-1.06-6.68l-.27-5.07c.12,2.3.47,4.6,1.07,6.75.6,2.15,1.47,4.16,2.63,5.88,1.17,1.72,2.63,3.16,4.44,4.16s3.95,1.58,6.48,1.58c2.66,0,4.91-.64,6.78-1.74s3.37-2.68,4.54-4.56,2.01-4.06,2.57-6.37c.56-2.31.84-4.76.88-7.18l-.09,5.09c-.04,2.4-.32,4.82-.87,7.11-.55,2.29-1.38,4.45-2.54,6.3-1.15,1.86-2.63,3.42-4.48,4.51s-4.06,1.72-6.69,1.72Z" style="fill: none; stroke-width: 0px;"/>
    </clipPath>
    <clipPath id="clippath-12">
      <path d="m80.26,33.6l-.1,5.09c-.08,3.72-.62,6.85-1.52,9.46s-2.14,4.68-3.6,6.29-3.15,2.75-4.94,3.5-3.66,1.08-5.51,1.08-3.58-.31-5.3-1-3.35-1.74-4.79-3.22c-1.43-1.48-2.67-3.39-3.59-5.79s-1.54-5.26-1.73-8.68l-.28-5.07c.19,3.45.81,6.35,1.75,8.77s2.19,4.35,3.64,5.85c1.45,1.5,3.11,2.57,4.85,3.26s3.57,1.01,5.37,1.01,3.77-.34,5.58-1.09,3.51-1.9,5-3.53c1.48-1.63,2.74-3.73,3.65-6.36s1.46-5.8,1.54-9.56Z" style="fill: none; stroke-width: 0px;"/>
    </clipPath>
  </defs>
  <g id="Butoes">
    <path d="m141.24,0H1.64L0,70.68l1.79,9.32h139.31l1.79-9.32-1.64-70.68Z" style="stroke-width: 0px;"/>
    <polygon points="140.67 .55 142.27 70.11 .61 70.11 2.21 .55 140.67 .55" style="fill: #e45525; stroke: #000; stroke-miterlimit: 10; stroke-width: .6px;"/>
    <g>
      <g style="isolation: isolate;">
        <polygon points="29.35 12.83 29.87 18.13 21.91 18.13 21.28 12.83 29.35 12.83" style="fill: #121010; stroke-width: 0px;"/>
        <polygon points="30.35 18.46 30.86 23.7 29.24 23.7 28.71 18.46 30.35 18.46" style="fill: gray; stroke-width: 0px;"/>
        <polygon points="30.37 19.39 30.88 24.62 30.21 24.62 29.69 19.39 30.37 19.39" style="fill: #121010; stroke-width: 0px;"/>
        <g style="isolation: isolate;">
          <g style="clip-path: url(#clippath);">
            <g style="isolation: isolate;">
              <path d="m43.83,22.62l.35,5.2c-.14-2.14-.71-3.82-1.58-5.13-.87-1.31-2.04-2.25-3.39-2.93s-2.89-1.08-4.48-1.32-3.26-.31-4.87-.31l-.52-5.31c1.63,0,3.31.07,4.93.31s3.17.65,4.54,1.34,2.55,1.64,3.43,2.96,1.45,3.02,1.59,5.19" style="fill: #121011; stroke-width: 0px;"/>
            </g>
          </g>
        </g>
        <g style="isolation: isolate;">
          <g style="clip-path: url(#clippath-1);">
            <g style="isolation: isolate;">
              <path d="m36.53,23.18l.44,5.2c-.03-.36-.09-.7-.16-1.02s-.18-.63-.31-.91-.28-.55-.46-.79-.37-.46-.6-.66c-.24-.22-.51-.41-.8-.57s-.61-.3-.95-.4-.7-.19-1.09-.24-.8-.08-1.23-.08c-.04,0-.08,0-.13,0s-.09,0-.13,0-.09,0-.13,0-.09,0-.13,0l-.51-5.25s.09,0,.13,0,.09,0,.13,0,.09,0,.13,0,.09,0,.13,0c.44,0,.85.03,1.24.08s.76.14,1.1.24.66.25.96.41.56.36.81.58c.23.2.43.42.6.67s.33.51.46.8.23.59.31.92.14.67.17,1.03" style="fill: #858585; stroke-width: 0px;"/>
            </g>
          </g>
        </g>
        <g style="isolation: isolate;">
          <g style="clip-path: url(#clippath-2);">
            <g style="isolation: isolate;">
              <path d="m35.54,23.22l.45,5.2c-.03-.3-.07-.58-.13-.85s-.15-.51-.25-.74-.22-.44-.36-.64-.3-.38-.48-.54c-.19-.17-.41-.32-.64-.45s-.5-.24-.78-.33-.58-.15-.91-.2-.67-.07-1.03-.07c-.04,0-.09,0-.13,0s-.09,0-.13,0-.09,0-.13,0-.09,0-.13,0l-.51-5.24s.09,0,.13,0,.09,0,.13,0,.09,0,.13,0,.09,0,.13,0c.37,0,.72.02,1.05.07s.63.11.92.2.55.2.79.33.46.28.65.46c.18.16.34.34.48.54s.26.41.37.65.19.48.25.75.11.55.14.85" style="fill: #121011; stroke-width: 0px;"/>
            </g>
          </g>
        </g>
        <polygon points="30.54 30.22 31.05 35.34 29.08 35.27 28.55 30.15 30.54 30.22" style="fill: #121010; stroke-width: 0px;"/>
        <path d="m34.98,19.75c.26.23.5.5.69.8s.36.62.5.97.23.73.29,1.14.09.83.09,1.29c-.01,1-.16,1.89-.43,2.66s-.67,1.43-1.18,1.97-1.14.95-1.88,1.22-1.58.42-2.53.42l-1.99-.07.16-11.7h1.64s.09,0,.13,0,.09,0,.13,0,.09,0,.13,0,.09,0,.13,0c.44,0,.85.03,1.24.08s.76.14,1.1.24.66.25.96.41.56.36.81.58Zm-4.41,9.53c1.02,0,1.84-.18,2.49-.49s1.15-.75,1.52-1.26.61-1.11.76-1.72.21-1.25.22-1.86c0-.39-.02-.76-.07-1.1s-.13-.66-.23-.96-.24-.56-.4-.81-.35-.46-.56-.66c-.19-.17-.41-.33-.65-.46s-.5-.24-.79-.33-.59-.15-.92-.2-.68-.07-1.05-.07c-.04,0-.09,0-.13,0s-.09,0-.13,0-.09,0-.13,0-.09,0-.13,0h-.67l-.14,9.86,1.01.03" style="fill: #201d1d; stroke-width: 0px;"/>
        <g style="isolation: isolate;">
          <g style="clip-path: url(#clippath-3);">
            <g style="isolation: isolate;">
              <path d="m36.53,23.18l.44,5.2c0,.06,0,.12.01.19s0,.13,0,.19,0,.13,0,.19,0,.13,0,.2c0,.33-.02.66-.06.97s-.08.61-.15.89-.14.56-.23.82-.2.5-.32.74l-.45-5.15c.12-.23.23-.48.32-.74s.17-.54.24-.82.11-.59.15-.9.05-.64.06-.98c0-.07,0-.13,0-.2s0-.13,0-.19,0-.13,0-.19,0-.13-.01-.19" style="fill: #141213; stroke-width: 0px;"/>
              <path d="m35.79,27.39l.45,5.15c-.06.11-.11.21-.18.31s-.13.2-.19.3-.14.19-.21.28-.15.18-.23.26l-.46-5.14c.08-.08.16-.17.23-.26s.15-.18.21-.28.13-.2.2-.3.12-.21.18-.32" style="fill: #141112; stroke-width: 0px;"/>
              <path d="m34.97,28.56l.46,5.14c-.07.08-.15.15-.22.22s-.16.14-.24.21-.17.13-.25.19-.18.12-.27.18l-.47-5.13c.09-.06.18-.12.27-.18s.17-.13.26-.19.16-.14.24-.21.15-.15.23-.22" style="fill: #131111; stroke-width: 0px;"/>
              <path d="m33.98,29.36l.47,5.13c-.23.14-.47.26-.73.37s-.53.19-.81.27-.58.13-.89.16-.63.05-.97.05l-.51-5.12c.34,0,.67-.02.98-.06s.61-.09.9-.16.56-.16.82-.27.5-.23.73-.37" style="fill: #121011; stroke-width: 0px;"/>
            </g>
          </g>
        </g>
        <polygon points="29.46 33.65 29.99 38.73 29.04 38.73 28.5 33.65 29.46 33.65" style="fill: gray; stroke-width: 0px;"/>
        <g style="isolation: isolate;">
          <g style="clip-path: url(#clippath-4);">
            <g style="isolation: isolate;">
              <path d="m43.83,22.62l.35,5.2c0,.1.01.2.02.31s0,.21.01.31,0,.21,0,.32,0,.22,0,.33c0,.51-.03,1.01-.09,1.49s-.14.95-.24,1.41-.24.89-.39,1.32-.33.83-.54,1.23l-.36-5.13c.21-.4.39-.81.54-1.24s.29-.87.39-1.33.19-.93.24-1.42.09-.99.09-1.51c0-.11,0-.22,0-.33s0-.22,0-.32,0-.21-.01-.32-.01-.21-.02-.31" style="fill: #949494; stroke-width: 0px;"/>
              <path d="m42.59,29.4l.36,5.13c-.11.21-.22.41-.34.61s-.25.39-.38.58-.27.37-.42.55-.3.35-.46.52l-.38-5.11c.16-.17.32-.35.47-.53s.29-.37.43-.56.26-.39.39-.59.24-.4.35-.61" style="fill: #8f8f8f; stroke-width: 0px;"/>
              <path d="m40.97,31.69l.38,5.11c-.16.17-.33.34-.5.5s-.35.32-.54.47-.38.3-.58.44-.41.28-.62.41l-.41-5.09c.22-.13.42-.27.63-.41s.4-.29.59-.44.37-.31.55-.47.35-.33.51-.5" style="fill: #8a8a8a; stroke-width: 0px;"/>
              <path d="m38.7,33.52l.41,5.09c-.06.04-.13.08-.19.12s-.13.08-.2.11-.13.07-.2.11-.14.07-.21.11l-.42-5.08c.07-.04.14-.07.21-.11s.14-.07.2-.11.13-.08.2-.12.13-.08.2-.12" style="fill: #858585; stroke-width: 0px;"/>
            </g>
          </g>
        </g>
        <polygon points="37.89 33.98 38.31 39.06 37.93 39.26 37.5 34.18 37.89 33.98" style="fill: #828282; stroke-width: 0px;"/>
        <g style="isolation: isolate;">
          <g style="clip-path: url(#clippath-5);">
            <g style="isolation: isolate;">
              <path d="m44.83,22.61l.33,5.2c0,.1.01.2.02.31s0,.21.01.31,0,.21,0,.32,0,.22,0,.33c0,.55-.04,1.08-.1,1.6s-.15,1.02-.26,1.51-.25.96-.42,1.42-.36.9-.58,1.32l-.35-5.13c.22-.43.42-.87.58-1.33s.31-.94.42-1.43.2-1,.26-1.53.09-1.06.1-1.62c0-.11,0-.22,0-.33s0-.22,0-.32,0-.21-.01-.32-.01-.21-.02-.31" style="fill: #141213; stroke-width: 0px;"/>
              <path d="m43.5,29.81l.35,5.13c-.12.22-.24.44-.37.66s-.27.42-.41.63-.3.4-.46.6-.33.38-.5.57l-.37-5.1c.18-.19.35-.38.51-.58s.32-.4.46-.61.29-.42.42-.64.26-.44.37-.67" style="fill: #141112; stroke-width: 0px;"/>
              <path d="m41.73,32.29l.37,5.1c-.17.19-.36.37-.55.54s-.39.35-.59.51-.41.32-.63.48-.44.3-.67.44l-.4-5.08c.23-.14.46-.29.68-.45s.43-.32.64-.48.4-.34.6-.52.38-.36.55-.55" style="fill: #131111; stroke-width: 0px;"/>
              <path d="m39.26,34.29l.4,5.08s-.08.05-.13.08-.09.05-.13.08-.09.05-.13.07-.09.05-.13.07l-.41-5.07s.09-.05.13-.07.09-.05.13-.08.09-.05.13-.08.09-.05.13-.08" style="fill: #121011; stroke-width: 0px;"/>
            </g>
          </g>
        </g>
        <polygon points="44.77 52.54 45.1 57.42 37.93 39.26 37.5 34.18 44.77 52.54" style="fill: #121010; stroke-width: 0px;"/>
        <path d="m37.5,34.18l7.27,18.36h-8l-7.31-18.9h-.96l-.27,18.9h-7.61l.66-39.72h8.06c1.7,0,3.47.08,5.15.35s3.3.73,4.69,1.5,2.58,1.84,3.4,3.34,1.3,3.42,1.28,5.88c-.01,1.14-.15,2.22-.41,3.22-.26,1-.64,1.93-1.14,2.78s-1.13,1.62-1.86,2.3c-.74.68-1.59,1.28-2.56,1.78l-.39.2Zm-6.96-3.96c.94,0,1.79-.14,2.53-.42s1.37-.69,1.88-1.22.91-1.19,1.18-1.97.42-1.66.43-2.66c0-.45-.02-.88-.09-1.29s-.16-.78-.29-1.14-.3-.68-.5-.97-.43-.56-.69-.8c-.24-.22-.51-.41-.81-.58s-.61-.3-.96-.41-.71-.19-1.1-.24-.81-.08-1.24-.08c-.04,0-.09,0-.13,0s-.09,0-.13,0-.09,0-.13,0-.09,0-.13,0h-1.64l-.16,11.7,1.99.07" style="fill: #fff; stroke-width: 0px;"/>
        <polygon points="44.77 52.54 45.1 57.42 37.21 57.42 36.77 52.54 44.77 52.54" style="fill: gray; stroke-width: 0px;"/>
        <polygon points="36.77 52.54 37.21 57.42 29.99 38.73 29.46 33.65 36.77 52.54" style="fill: gray; stroke-width: 0px;"/>
        <polygon points="28.23 52.54 28.78 57.42 21.27 57.42 20.63 52.54 28.23 52.54" style="fill: gray; stroke-width: 0px;"/>
        <polygon points="29.22 53.49 29.76 58.36 20.26 58.36 19.61 53.49 29.22 53.49" style="fill: #121010; stroke-width: 0px;"/>
        <polygon points="36.06 53.49 36.51 58.36 29.99 41.47 29.46 36.41 36.06 53.49" style="fill: #121010; stroke-width: 0px;"/>
        <polygon points="46.22 53.49 46.54 58.36 36.51 58.36 36.06 53.49 46.22 53.49" style="fill: #121010; stroke-width: 0px;"/>
        <path d="m38.74,34.59l7.48,18.9h-10.15l-6.6-17.08-.23,17.08h-9.62l.7-41.59h9.05c1.07,0,2.58,0,4.24.19s3.48.56,5.15,1.31,3.22,1.87,4.33,3.56c1.12,1.69,1.81,3.94,1.78,6.95-.01,1.2-.15,2.33-.42,3.38s-.66,2.04-1.17,2.93-1.15,1.72-1.91,2.45-1.64,1.38-2.63,1.93Zm-9.28-.95l7.31,18.9h8l-7.27-18.36.39-.2c.97-.5,1.82-1.1,2.56-1.78.74-.68,1.36-1.45,1.86-2.3s.89-1.78,1.14-2.78c.26-1,.4-2.08.41-3.22.02-2.46-.45-4.38-1.28-5.88s-2.01-2.57-3.4-3.34-3-1.23-4.69-1.5-3.45-.35-5.15-.35h-8.06l-.66,39.72h7.61l.27-18.9h.96" style="fill: #201d1d; stroke-width: 0px;"/>
      </g>
      <g style="isolation: isolate;">
        <polygon points="113.51 12.83 113 18.13 105.58 18.13 106 12.83 113.51 12.83" style="fill: #121010; stroke-width: 0px;"/>
        <polygon points="92.23 12.83 91.98 18.13 84.56 18.13 84.72 12.83 92.23 12.83" style="fill: #121010; stroke-width: 0px;"/>
        <g style="isolation: isolate;">
          <g style="clip-path: url(#clippath-6);">
            <g style="isolation: isolate;">
              <path d="m71.15,32.56v5.1c0-1.29-.04-2.8-.21-4.34s-.45-3.1-.91-4.5c-.46-1.4-1.09-2.64-1.96-3.53s-1.98-1.43-3.39-1.43c-.24,0-.46.02-.68.04s-.43.07-.63.13-.4.13-.59.21-.37.18-.54.28l-.12-5.24c.18-.11.36-.2.55-.29s.39-.15.6-.21.42-.1.64-.13.45-.04.69-.04c1.43,0,2.55.54,3.43,1.44s1.52,2.15,1.99,3.56c.46,1.42.75,3,.92,4.55.17,1.55.22,3.08.22,4.39" style="fill: #858585; stroke-width: 0px;"/>
              <path d="m62.11,19.29l.12,5.24c-.1.06-.19.12-.28.19s-.18.13-.27.21-.17.15-.26.23-.16.16-.24.24l-.13-5.23c.08-.09.16-.17.25-.25s.17-.16.26-.23.18-.14.27-.21.19-.13.28-.19" style="fill: #8a8a8a; stroke-width: 0px;"/>
              <path d="m61.05,20.16l.13,5.23c-.11.12-.22.25-.33.38s-.21.27-.3.41-.19.29-.28.44-.18.31-.26.47l-.15-5.21c.08-.16.17-.32.26-.48s.19-.3.28-.45.2-.28.31-.42.22-.26.33-.38" style="fill: #8f8f8f; stroke-width: 0px;"/>
              <path d="m59.86,21.89l.15,5.21c-.38.74-.69,1.58-.93,2.46s-.43,1.81-.57,2.75-.23,1.88-.29,2.78-.08,1.77-.08,2.56c0,.12,0,.24,0,.36s0,.25,0,.38,0,.27,0,.41,0,.28.01.43l-.17-5.08c0-.15,0-.29-.01-.43s0-.28,0-.41,0-.26,0-.39,0-.25,0-.36c0-.79.03-1.67.08-2.59s.15-1.87.29-2.81.33-1.89.58-2.78.56-1.74.94-2.49" style="fill: #949494; stroke-width: 0px;"/>
            </g>
          </g>
        </g>
        <g style="isolation: isolate;">
          <g style="clip-path: url(#clippath-7);">
            <g style="isolation: isolate;">
              <path d="m70.15,32.36l.02,5.1c0-1-.04-2.29-.18-3.67s-.36-2.84-.75-4.17c-.38-1.33-.91-2.54-1.66-3.42s-1.69-1.42-2.91-1.42c-.18,0-.35.01-.52.03s-.33.06-.49.1-.31.1-.46.16-.29.14-.43.22l-.11-5.23c.14-.08.28-.16.43-.23s.3-.12.46-.17.32-.08.5-.1.35-.04.53-.04c1.24,0,2.2.55,2.95,1.43.75.89,1.29,2.11,1.68,3.46s.62,2.83.75,4.22.18,2.7.18,3.71" style="fill: #121011; stroke-width: 0px;"/>
              <path d="m62.67,20.08l.11,5.23c-.08.05-.16.1-.23.15s-.15.11-.22.17-.14.12-.21.19-.14.13-.2.2l-.12-5.22c.07-.07.14-.14.21-.21s.14-.13.21-.19.15-.12.22-.17.15-.11.23-.16" style="fill: #131111; stroke-width: 0px;"/>
              <path d="m61.79,20.8l.12,5.22c-.1.1-.19.21-.28.33s-.18.23-.26.36-.16.25-.24.38-.15.27-.22.41l-.14-5.21c.07-.14.15-.28.23-.41s.16-.26.25-.39.17-.24.26-.36.19-.23.28-.33" style="fill: #141112; stroke-width: 0px;"/>
              <path d="m60.77,22.29l.14,5.21c-.38.74-.68,1.59-.92,2.48s-.41,1.83-.54,2.76c-.13.93-.21,1.84-.25,2.68s-.07,1.6-.07,2.23c0,.09,0,.19,0,.29s0,.21,0,.32,0,.23,0,.36,0,.25.01.38l-.16-5.08c0-.13,0-.26-.01-.39s0-.24,0-.36,0-.22,0-.33,0-.2,0-.29c0-.64.02-1.41.07-2.26s.13-1.77.26-2.71.3-1.89.54-2.79.54-1.76.93-2.51" style="fill: #141213; stroke-width: 0px;"/>
            </g>
          </g>
        </g>
        <g style="isolation: isolate;">
          <g style="clip-path: url(#clippath-8);">
            <g style="isolation: isolate;">
              <path d="m59.86,21.89l.15,5.21c-.38.74-.69,1.58-.93,2.46s-.43,1.81-.57,2.75-.23,1.88-.29,2.78-.08,1.77-.08,2.56c0,.12,0,.24,0,.36s0,.25,0,.38,0,.27,0,.41,0,.28.01.43l-.17-5.08c0-.15,0-.29-.01-.43s0-.28,0-.41,0-.26,0-.39,0-.25,0-.36c0-.79.03-1.67.08-2.59s.15-1.87.29-2.81.33-1.89.58-2.78.56-1.74.94-2.49" style="fill: #949494; stroke-width: 0px;"/>
            </g>
          </g>
        </g>
        <g style="isolation: isolate;">
          <g style="clip-path: url(#clippath-9);">
            <g style="isolation: isolate;">
              <path d="m79.27,33.33l-.09,5.09c0-.06,0-.13,0-.19s0-.13,0-.19,0-.13,0-.19,0-.13,0-.19c0-2.45-.25-4.94-.78-7.29-.53-2.35-1.34-4.56-2.49-6.47-1.14-1.9-2.62-3.5-4.47-4.63s-4.09-1.77-6.75-1.77c-.67,0-1.32.04-1.94.12s-1.21.2-1.78.35-1.11.35-1.63.57-1.01.48-1.48.77l-.17-5.29c.47-.29.97-.55,1.5-.78s1.07-.42,1.65-.58,1.18-.28,1.8-.36,1.28-.12,1.97-.12c2.7,0,4.96.65,6.83,1.79s3.37,2.75,4.53,4.68c1.16,1.93,1.98,4.17,2.52,6.54.54,2.38.78,4.89.79,7.37,0,.06,0,.13,0,.19s0,.13,0,.19,0,.13,0,.19,0,.13,0,.19" style="fill: #121011; stroke-width: 0px;"/>
              <path d="m57.69,14.02l.17,5.29c-.23.14-.46.3-.69.46s-.44.33-.65.5-.42.35-.62.54-.39.38-.58.58l-.21-5.27c.19-.2.39-.4.59-.59s.41-.37.62-.55.43-.34.66-.5.46-.31.7-.46" style="fill: #131111; stroke-width: 0px;"/>
              <path d="m55.12,16.11l.21,5.27c-.24.26-.48.53-.7.81s-.44.57-.65.87-.4.6-.59.92-.37.64-.54.97l-.24-5.23c.17-.33.35-.66.54-.98s.39-.63.6-.93.43-.59.65-.88.46-.55.71-.82" style="fill: #141112; stroke-width: 0px;"/>
              <path d="m52.61,19.72l.24,5.23c-.47.92-.88,1.89-1.22,2.9s-.62,2.07-.85,3.15c-.22,1.08-.39,2.19-.5,3.3s-.17,2.24-.18,3.35c0,.19,0,.37,0,.56s0,.37,0,.56,0,.37.02.56.02.37.03.56l-.27-5.07c-.01-.19-.02-.38-.03-.57s-.01-.38-.02-.57,0-.38,0-.57,0-.38,0-.57c0-1.13.07-2.26.18-3.39s.28-2.24.51-3.34.51-2.16.86-3.18.76-2.01,1.24-2.93" style="fill: #141213; stroke-width: 0px;"/>
            </g>
          </g>
        </g>
        <polygon points="122.96 45.86 122.33 50.81 113.44 50.81 113.96 45.86 122.96 45.86" style="fill: #121010; stroke-width: 0px;"/>
        <polygon points="101.45 45.86 101.08 50.81 92.19 50.81 92.45 45.86 101.45 45.86" style="fill: #121010; stroke-width: 0px;"/>
        <path d="m64.59,18.62c1.43,0,2.55.54,3.43,1.44s1.52,2.15,1.99,3.56c.46,1.42.75,3,.92,4.55.17,1.55.22,3.08.22,4.39,0,1.05-.04,2.45-.2,3.97s-.42,3.14-.88,4.64c-.45,1.5-1.1,2.86-2,3.85-.9.99-2.06,1.61-3.56,1.61s-2.65-.62-3.54-1.61c-.9-.99-1.53-2.36-1.98-3.85-.45-1.5-.71-3.12-.85-4.64s-.18-2.92-.18-3.97c0-1.31.07-2.83.24-4.39.18-1.55.47-3.13.94-4.55s1.12-2.67,2-3.56c.89-.9,2.01-1.44,3.44-1.44Zm-.06,27.06c1.3,0,2.31-.63,3.08-1.62s1.31-2.35,1.69-3.79c.38-1.45.59-2.99.71-4.36s.15-2.57.15-3.34c0-.98-.03-2.29-.16-3.69-.13-1.41-.35-2.91-.74-4.29s-.92-2.64-1.68-3.55-1.73-1.48-2.99-1.48-2.23.57-2.99,1.48-1.3,2.17-1.69,3.55-.62,2.89-.76,4.29-.18,2.71-.18,3.69c0,.77.02,1.97.13,3.34s.32,2.91.69,4.36.9,2.8,1.67,3.79,1.77,1.62,3.07,1.62" style="fill: #201d1d; stroke-width: 0px;"/>
        <g style="isolation: isolate;">
          <g style="clip-path: url(#clippath-10);">
            <g style="isolation: isolate;">
              <path d="m71.15,32.56v5.1c0,.65,0,1.43-.06,2.3s-.13,1.8-.26,2.76c-.13.96-.32,1.94-.57,2.88-.25.94-.57,1.85-.98,2.65l-.03-4.98c.41-.82.74-1.73.99-2.68.25-.95.44-1.94.57-2.91s.22-1.92.27-2.79.07-1.66.07-2.32" style="fill: #141213; stroke-width: 0px;"/>
              <path d="m69.25,43.26l.03,4.98c-.08.17-.17.33-.27.49s-.19.31-.29.46-.2.29-.31.43-.22.27-.34.4l-.05-4.96c.12-.13.23-.26.34-.4s.22-.29.32-.44.2-.31.29-.47.18-.33.27-.5" style="fill: #141112; stroke-width: 0px;"/>
              <path d="m68.03,45.07l.05,4.96c-.08.09-.16.17-.24.25s-.17.16-.26.23-.18.14-.27.21-.18.13-.28.19l-.06-4.95c.1-.06.19-.12.28-.19s.18-.14.27-.21.17-.15.26-.23.17-.16.25-.25" style="fill: #131111; stroke-width: 0px;"/>
              <path d="m66.97,45.95l.06,4.95c-.17.11-.35.2-.54.29s-.38.15-.58.21-.41.1-.63.13-.44.04-.67.04c-1.31,0-2.36-.48-3.2-1.28s-1.47-1.91-1.93-3.16-.78-2.65-.98-4.02-.3-2.72-.34-3.88l-.17-5.08c.04,1.17.14,2.53.34,3.92s.52,2.8.99,4.07,1.11,2.39,1.96,3.19c.85.81,1.91,1.29,3.24,1.29.24,0,.46-.02.68-.05s.43-.07.64-.13.4-.13.59-.21.37-.18.54-.29" style="fill: #121011; stroke-width: 0px;"/>
            </g>
          </g>
        </g>
        <polygon points="101.51 52.54 101.14 57.42 84.73 57.42 84.89 52.54 101.51 52.54" style="fill: gray; stroke-width: 0px;"/>
        <polygon points="92.23 12.83 92.45 45.86 101.45 45.86 101.51 52.54 84.89 52.54 84.72 12.83 92.23 12.83" style="fill: #fff; stroke-width: 0px;"/>
        <polygon points="113.51 12.83 113.96 45.86 122.96 45.86 123.07 52.54 106.45 52.54 106 12.83 113.51 12.83" style="fill: #fff; stroke-width: 0px;"/>
        <polygon points="123.07 52.54 122.43 57.42 106.02 57.42 106.45 52.54 123.07 52.54" style="fill: gray; stroke-width: 0px;"/>
        <g style="isolation: isolate;">
          <g style="clip-path: url(#clippath-11);">
            <g style="isolation: isolate;">
              <path d="m79.27,33.33l-.09,5.09c-.02,1.06-.08,2.12-.2,3.17s-.27,2.1-.49,3.12-.48,2.02-.81,2.98-.7,1.89-1.15,2.77l.06-4.96c.45-.89.83-1.82,1.16-2.8s.6-1.98.82-3.02.38-2.09.49-3.15.18-2.14.2-3.2" style="fill: #949494; stroke-width: 0px;"/>
              <path d="m76.6,45.5l-.06,4.96c-.17.34-.35.66-.53.99s-.38.63-.59.94-.42.6-.65.88-.46.56-.7.82l.03-4.92c.25-.27.48-.54.71-.83s.45-.59.65-.89.41-.62.6-.95.37-.66.54-1" style="fill: #8f8f8f; stroke-width: 0px;"/>
              <path d="m74.09,49.17l-.03,4.92c-.19.2-.38.4-.58.59s-.41.38-.62.55-.43.35-.66.51-.46.32-.69.47v-4.89c.24-.15.47-.31.7-.47s.45-.34.66-.52.42-.37.63-.56.4-.39.59-.6" style="fill: #8a8a8a; stroke-width: 0px;"/>
              <path d="m71.51,51.31v4.89c-.47.29-.97.56-1.49.79s-1.07.43-1.65.58-1.18.28-1.81.36-1.28.12-1.97.12c-2.49,0-4.61-.57-6.4-1.56-1.78-.99-3.23-2.41-4.38-4.11s-2-3.69-2.6-5.82-.94-4.4-1.06-6.68l-.27-5.07c.12,2.3.47,4.6,1.07,6.75s1.47,4.16,2.63,5.88c1.17,1.72,2.63,3.16,4.44,4.16s3.95,1.58,6.48,1.58c.69,0,1.36-.04,1.99-.13s1.25-.21,1.83-.37,1.14-.36,1.67-.59,1.03-.5,1.51-.8" style="fill: #858585; stroke-width: 0px;"/>
            </g>
          </g>
        </g>
        <path d="m64.6,11.26c1.89,0,3.81.35,5.62,1.11,1.82.77,3.53,1.95,5.02,3.62s2.73,3.84,3.62,6.57,1.4,6.04,1.41,9.99c.01,3.96-.49,7.29-1.36,10.05s-2.13,4.98-3.63,6.69-3.23,2.92-5.08,3.71c-1.84.78-3.79,1.14-5.7,1.14s-3.86-.36-5.69-1.14c-1.84-.78-3.57-2-5.06-3.71-1.49-1.71-2.73-3.91-3.6-6.69-.86-2.77-1.35-6.1-1.32-10.05s.56-7.25,1.46-9.99c.9-2.73,2.16-4.9,3.65-6.57s3.21-2.86,5.03-3.62,3.74-1.11,5.62-1.11Zm-.1,41.94c2.73,0,5.03-.67,6.93-1.83s3.41-2.81,4.57-4.78c1.16-1.96,1.98-4.23,2.51-6.63.53-2.4.76-4.92.76-7.4,0-2.48-.25-4.99-.79-7.37-.53-2.37-1.36-4.61-2.52-6.54-1.16-1.93-2.65-3.54-4.53-4.68s-4.14-1.79-6.83-1.79-4.96.65-6.84,1.79c-1.88,1.13-3.38,2.75-4.55,4.68s-2,4.17-2.55,6.54c-.55,2.38-.81,4.89-.82,7.37-.02,2.48.21,5,.72,7.4s1.33,4.67,2.48,6.63c1.16,1.96,2.66,3.61,4.55,4.78s4.18,1.83,6.91,1.83" style="fill: #201d1d; stroke-width: 0px;"/>
        <path d="m64.6,12.18c2.7,0,4.96.65,6.83,1.79s3.37,2.75,4.53,4.68c1.16,1.93,1.98,4.17,2.52,6.54.54,2.38.78,4.89.79,7.37,0,2.48-.23,5-.76,7.4-.53,2.4-1.35,4.67-2.51,6.63-1.16,1.96-2.67,3.61-4.57,4.78s-4.19,1.83-6.93,1.83-5.02-.67-6.91-1.83-3.39-2.81-4.55-4.78c-1.15-1.96-1.96-4.23-2.48-6.63s-.74-4.92-.72-7.4c.02-2.48.28-4.99.82-7.37.55-2.37,1.38-4.61,2.55-6.54s2.67-3.54,4.55-4.68c1.88-1.13,4.15-1.79,6.84-1.79Zm-.08,34.44c1.49,0,2.66-.62,3.56-1.61.9-.99,1.54-2.36,2-3.85.45-1.5.72-3.12.88-4.64s.2-2.92.2-3.97c0-1.31-.05-2.83-.22-4.39-.17-1.55-.46-3.13-.92-4.55-.46-1.41-1.11-2.67-1.99-3.56s-2-1.44-3.43-1.44-2.55.54-3.44,1.44c-.89.9-1.53,2.15-2,3.56s-.76,3-.94,4.55c-.18,1.55-.24,3.08-.24,4.39,0,1.05.03,2.45.18,3.97s.41,3.14.85,4.64c.45,1.5,1.08,2.86,1.98,3.85.9.99,2.05,1.61,3.54,1.61" style="fill: #fff; stroke-width: 0px;"/>
        <polygon points="102.53 53.49 102.14 58.36 83.74 58.36 83.89 53.49 102.53 53.49" style="fill: #121010; stroke-width: 0px;"/>
        <polygon points="124.09 53.49 123.44 58.36 105.03 58.36 105.45 53.49 124.09 53.49" style="fill: #121010; stroke-width: 0px;"/>
        <path d="m93.45,44.91h9l.08,8.58h-18.64l-.16-41.59h9.49l.23,33.01Zm8.07,7.63l-.06-6.69h-9l-.22-33.03h-7.51l.17,39.72h16.62" style="fill: #201d1d; stroke-width: 0px;"/>
        <path d="m114.95,44.91h9l.14,8.58h-18.64l-.45-41.59h9.49l.46,33.01Zm8.12,7.63l-.11-6.69h-9l-.45-33.03h-7.51l.44,39.72h16.62" style="fill: #201d1d; stroke-width: 0px;"/>
        <g style="isolation: isolate;">
          <g style="clip-path: url(#clippath-12);">
            <g style="isolation: isolate;">
              <path d="m80.26,33.6l-.1,5.09c-.03,1.26-.11,2.45-.23,3.58-.13,1.13-.31,2.19-.53,3.19s-.49,1.94-.8,2.82-.65,1.69-1.04,2.45l.07-4.95c.39-.77.74-1.59,1.05-2.48s.58-1.84.81-2.85.41-2.09.54-3.23.21-2.35.24-3.62" style="fill: #141213; stroke-width: 0px;"/>
              <path d="m77.63,45.78l-.07,4.95c-.19.37-.38.73-.58,1.07s-.41.67-.63.99-.44.62-.67.91-.47.57-.71.83l.04-4.91c.25-.27.49-.55.72-.84s.46-.6.68-.92.43-.65.64-1,.4-.71.59-1.08" style="fill: #141112; stroke-width: 0px;"/>
              <path d="m74.99,49.62l-.04,4.91c-.22.24-.45.47-.68.69s-.47.43-.71.63-.49.39-.73.57-.5.35-.76.51v-4.89c.26-.16.52-.33.77-.51s.5-.37.74-.57.48-.41.72-.63.47-.45.69-.7" style="fill: #131111; stroke-width: 0px;"/>
              <path d="m72.07,52.03v4.89c-.59.36-1.18.67-1.8.94s-1.23.48-1.86.65-1.27.3-1.9.38-1.28.12-1.91.12c-1.78,0-3.58-.31-5.3-1s-3.35-1.74-4.79-3.22c-1.43-1.48-2.67-3.39-3.59-5.79s-1.54-5.26-1.73-8.68l-.28-5.07c.19,3.45.81,6.35,1.75,8.77s2.19,4.35,3.64,5.85c1.45,1.5,3.11,2.57,4.85,3.26s3.57,1.01,5.37,1.01c.64,0,1.29-.04,1.94-.12s1.29-.21,1.93-.38,1.27-.39,1.89-.66,1.23-.58,1.82-.95" style="fill: #121011; stroke-width: 0px;"/>
            </g>
          </g>
        </g>
      </g>
    </g>
  </g>
</svg>